<svg width="293" height="186" viewBox="0 0 293 186" fill="none" xmlns="http://www.w3.org/2000/svg">
<g clip-path="url(#clip0)">
<g filter="url(#filter0_dd)">
<rect x="30" y="22" width="233" height="143" rx="7" fill="white"/>
</g>
<rect x="51" y="76" width="87" height="4" rx="2" fill="#EFF1F5"/>
<rect x="51" y="87" width="78" height="4" rx="2" fill="#EFF1F5"/>
<rect x="69" y="106" width="69" height="2" rx="1" fill="#EFF1F5"/>
<rect x="69" y="130" width="69" height="2" rx="1" fill="#EFF1F5"/>
<rect x="69" y="114" width="43" height="2" rx="1" fill="#EFF1F5"/>
<rect x="69" y="135" width="43" height="2" rx="1" fill="#EFF1F5"/>
<circle cx="56.5" cy="109.5" r="5.5" fill="#EFF1F5"/>
<circle cx="56.5" cy="133.5" r="5.5" fill="#EFF1F5"/>
<g clip-path="url(#clip1)">
<path d="M160 30H249C252.314 30 255 32.6863 255 36V151C255 154.314 252.314 157 249 157H160V30Z" fill="#D2D9E4"/>
<ellipse cx="246.5" cy="118" rx="96" ry="95.5" transform="rotate(-90 246.5 118)" fill="#E5EAF1"/>
</g>
<path d="M52.0043 58H53.8487V53.6747H58.0795V52.1286H53.8487V49.3643H58.527V47.8182H52.0043V58ZM62.948 58.1491C64.7278 58.1491 65.9508 57.2791 66.269 55.9517L64.5886 55.7628C64.345 56.4091 63.7484 56.7472 62.9728 56.7472C61.8095 56.7472 61.0389 55.9815 61.024 54.674H66.3436V54.1222C66.3436 51.4425 64.7328 50.2642 62.8535 50.2642C60.666 50.2642 59.2392 51.87 59.2392 54.2266C59.2392 56.6229 60.6461 58.1491 62.948 58.1491ZM61.0289 53.4609C61.0836 52.4865 61.8045 51.6662 62.8784 51.6662C63.9125 51.6662 64.6085 52.4219 64.6184 53.4609H61.0289ZM70.0636 58.1541C71.2617 58.1541 71.9776 57.5923 72.3058 56.951H72.3654V58H74.0955V52.8892C74.0955 50.8707 72.4499 50.2642 70.9933 50.2642C69.3874 50.2642 68.1545 50.9801 67.7567 52.3722L69.4371 52.6108C69.6161 52.0888 70.1232 51.6413 71.0032 51.6413C71.8384 51.6413 72.2958 52.0689 72.2958 52.8196V52.8494C72.2958 53.3665 71.7539 53.3913 70.4066 53.5355C68.9251 53.6946 67.5082 54.1371 67.5082 55.8572C67.5082 57.3587 68.6069 58.1541 70.0636 58.1541ZM70.5309 56.8317C69.7802 56.8317 69.2433 56.4886 69.2433 55.8274C69.2433 55.1364 69.8448 54.848 70.6502 54.7337C71.1225 54.669 72.0671 54.5497 72.3008 54.3608V55.2607C72.3008 56.1108 71.6147 56.8317 70.5309 56.8317ZM79.7184 50.3636H78.212V48.5341H76.4123V50.3636H75.3285V51.7557H76.4123V56.0014C76.4023 57.4382 77.4464 58.1442 78.7987 58.1044C79.3107 58.0895 79.6637 57.9901 79.8576 57.9254L79.5543 56.5185C79.4549 56.5433 79.2511 56.5881 79.0273 56.5881C78.5749 56.5881 78.212 56.429 78.212 55.7031V51.7557H79.7184V50.3636ZM86.0907 54.7884C86.0907 55.9517 85.2605 56.5284 84.465 56.5284C83.6 56.5284 83.0233 55.9169 83.0233 54.9474V50.3636H81.2235V55.2259C81.2235 57.0604 82.2676 58.0994 83.769 58.0994C84.9125 58.0994 85.7179 57.4979 86.0659 56.6428H86.1454V58H87.8904V50.3636H86.0907V54.7884ZM89.7411 58H91.5408V53.5107C91.5408 52.5412 92.2717 51.8551 93.261 51.8551C93.5643 51.8551 93.9421 51.9098 94.0962 51.9595V50.304C93.9322 50.2741 93.6488 50.2543 93.4499 50.2543C92.5749 50.2543 91.8441 50.7514 91.5657 51.6364H91.4862V50.3636H89.7411V58ZM98.3581 58.1491C100.138 58.1491 101.361 57.2791 101.679 55.9517L99.9988 55.7628C99.7551 56.4091 99.1586 56.7472 98.383 56.7472C97.2196 56.7472 96.449 55.9815 96.4341 54.674H101.754V54.1222C101.754 51.4425 100.143 50.2642 98.2637 50.2642C96.0762 50.2642 94.6493 51.87 94.6493 54.2266C94.6493 56.6229 96.0563 58.1491 98.3581 58.1491ZM96.4391 53.4609C96.4938 52.4865 97.2147 51.6662 98.2885 51.6662C99.3226 51.6662 100.019 52.4219 100.029 53.4609H96.4391ZM109.312 52.3821C109.063 51.0895 108.029 50.2642 106.239 50.2642C104.4 50.2642 103.147 51.169 103.152 52.581C103.147 53.6946 103.833 54.4304 105.3 54.7337L106.602 55.0071C107.303 55.1612 107.631 55.4446 107.631 55.8771C107.631 56.3991 107.065 56.7919 106.21 56.7919C105.384 56.7919 104.847 56.4339 104.693 55.7479L102.938 55.9169C103.162 57.3189 104.34 58.1491 106.214 58.1491C108.124 58.1491 109.471 57.1598 109.476 55.7131C109.471 54.6243 108.77 53.9581 107.328 53.6449L106.026 53.3665C105.25 53.1925 104.942 52.924 104.947 52.4815C104.942 51.9645 105.513 51.6065 106.264 51.6065C107.094 51.6065 107.532 52.0589 107.671 52.5611L109.312 52.3821Z" fill="#505780"/>
</g>
<defs>
<filter id="filter0_dd" x="12" y="8" width="269" height="179" filterUnits="userSpaceOnUse" color-interpolation-filters="sRGB">
<feFlood flood-opacity="0" result="BackgroundImageFix"/>
<feColorMatrix in="SourceAlpha" type="matrix" values="0 0 0 0 0 0 0 0 0 0 0 0 0 0 0 0 0 0 127 0"/>
<feMorphology radius="2" operator="erode" in="SourceAlpha" result="effect1_dropShadow"/>
<feOffset dy="4"/>
<feGaussianBlur stdDeviation="10"/>
<feColorMatrix type="matrix" values="0 0 0 0 0.196078 0 0 0 0 0.196078 0 0 0 0 0.278431 0 0 0 0.08 0"/>
<feBlend mode="normal" in2="BackgroundImageFix" result="effect1_dropShadow"/>
<feColorMatrix in="SourceAlpha" type="matrix" values="0 0 0 0 0 0 0 0 0 0 0 0 0 0 0 0 0 0 127 0"/>
<feOffset/>
<feGaussianBlur stdDeviation="0.5"/>
<feColorMatrix type="matrix" values="0 0 0 0 0.0470588 0 0 0 0 0.101961 0 0 0 0 0.294118 0 0 0 0.1 0"/>
<feBlend mode="normal" in2="effect1_dropShadow" result="effect2_dropShadow"/>
<feBlend mode="normal" in="SourceGraphic" in2="effect2_dropShadow" result="shape"/>
</filter>
<clipPath id="clip0">
<rect width="293" height="186" fill="white"/>
</clipPath>
<clipPath id="clip1">
<path d="M160 30H249C252.314 30 255 32.6863 255 36V151C255 154.314 252.314 157 249 157H160V30Z" fill="white"/>
</clipPath>
</defs>
</svg>
