<svg width="293" height="186" viewBox="0 0 293 186" fill="none" xmlns="http://www.w3.org/2000/svg">
<g filter="url(#filter0_dd)">
<rect x="30" y="21" width="233" height="143" rx="7" fill="white"/>
</g>
<rect x="66" y="98" width="77" height="11" rx="2" fill="#EFF1F5"/>
<rect x="152" y="98" width="77" height="11" rx="2" fill="#EFF1F5"/>
<rect x="66" y="115" width="77" height="11" rx="2" fill="#EFF1F5"/>
<rect x="152" y="115" width="77" height="11" rx="2" fill="#EFF1F5"/>
<path d="M66.7173 86H68.0348V83.5426H69.4268C71.1065 83.5426 72.0085 82.5341 72.0085 81.1349C72.0085 79.7464 71.1172 78.7273 69.4446 78.7273H66.7173V86ZM68.0348 82.4595V79.8281H69.2422C70.2294 79.8281 70.6662 80.3608 70.6662 81.1349C70.6662 81.9091 70.2294 82.4595 69.2493 82.4595H68.0348ZM73.0461 86H74.3316V82.7933C74.3316 82.1009 74.8536 81.6108 75.5603 81.6108C75.7769 81.6108 76.0468 81.6499 76.1569 81.6854V80.5028C76.0397 80.4815 75.8373 80.4673 75.6952 80.4673C75.0702 80.4673 74.5482 80.8224 74.3493 81.4545H74.2925V80.5455H73.0461V86ZM79.1156 86.1065C80.7136 86.1065 81.7292 84.9808 81.7292 83.294C81.7292 81.6037 80.7136 80.4744 79.1156 80.4744C77.5175 80.4744 76.5019 81.6037 76.5019 83.294C76.5019 84.9808 77.5175 86.1065 79.1156 86.1065ZM79.1227 85.0767C78.2384 85.0767 77.8052 84.2884 77.8052 83.2905C77.8052 82.2926 78.2384 81.4936 79.1227 81.4936C79.9927 81.4936 80.4259 82.2926 80.4259 83.2905C80.4259 84.2884 79.9927 85.0767 79.1227 85.0767ZM85.5331 80.5455H84.4002V80.1158C84.4002 79.6896 84.5778 79.4517 85.0572 79.4517C85.2596 79.4517 85.4301 79.4979 85.5366 79.5298L85.7958 78.5355C85.6289 78.4787 85.2632 78.3864 84.8193 78.3864C83.8711 78.3864 83.1147 78.9297 83.1147 80.0305V80.5455H82.3086V81.5398H83.1147V86H84.4002V81.5398H85.5331V80.5455ZM86.4898 86H87.7753V80.5455H86.4898V86ZM87.1361 79.7713C87.5445 79.7713 87.8783 79.4588 87.8783 79.0753C87.8783 78.6882 87.5445 78.3757 87.1361 78.3757C86.7242 78.3757 86.3904 78.6882 86.3904 79.0753C86.3904 79.4588 86.7242 79.7713 87.1361 79.7713ZM90.3327 78.7273H89.0472V86H90.3327V78.7273ZM94.0194 86.1065C95.2907 86.1065 96.1643 85.4851 96.3916 84.5369L95.1913 84.402C95.0173 84.8636 94.5912 85.1051 94.0372 85.1051C93.2062 85.1051 92.6558 84.5582 92.6451 83.6243H96.4449V83.2301C96.4449 81.3161 95.2943 80.4744 93.952 80.4744C92.3895 80.4744 91.3703 81.6214 91.3703 83.3047C91.3703 85.0163 92.3752 86.1065 94.0194 86.1065ZM92.6487 82.7578C92.6877 82.0618 93.2027 81.4759 93.9697 81.4759C94.7083 81.4759 95.2055 82.0156 95.2126 82.7578H92.6487Z" fill="#505780"/>
<rect x="199.5" y="132.5" width="29" height="12" rx="1.5" fill="#5C60F5" stroke="#5C60F5"/>
<rect x="104" y="45" width="35" height="4" rx="2" fill="#D3D5DE"/>
<rect x="104" y="53" width="22" height="4" rx="2" fill="#D3D5DE"/>
<rect x="199" y="42" width="13" height="13" rx="2" fill="#D3D5DE"/>
<rect x="216" y="42" width="13" height="13" rx="2" fill="#D3D5DE"/>
<g clip-path="url(#clip0)">
<path d="M95.7143 53.5714C95.7143 44.3404 88.231 36.8571 79 36.8571C69.7689 36.8571 62.2857 44.3404 62.2857 53.5714C62.2857 62.8025 69.7689 70.2857 79 70.2857C88.231 70.2857 95.7143 62.8025 95.7143 53.5714Z" fill="#EFF1F5"/>
<path d="M73.7001 57.7258C74.7417 57.7258 75.5862 56.8813 75.5862 55.8397C75.5862 54.798 74.7417 53.9536 73.7001 53.9536C72.6584 53.9536 71.814 54.798 71.814 55.8397C71.814 56.8813 72.6584 57.7258 73.7001 57.7258Z" fill="#EAC0B3"/>
<path d="M73.7001 57.3485H80.1128V66.73C80.1128 66.73 78.7386 67.5335 76.9065 67.5335C75.0743 67.5335 73.7001 66.2219 73.7001 66.2219V57.3485Z" fill="#EAC0B3"/>
<path d="M80.0414 61.9174C80.0414 63.9488 79.7132 63.7564 77.577 63.7564C75.4408 63.7564 74.4551 62.1098 74.4551 60.0785C74.4551 58.0475 74.374 56.2169 76.0979 56.2169C80.9728 56.3964 80.0414 59.8861 80.0414 61.9174Z" fill="#C99688"/>
<path d="M84.2194 55.5002C84.2194 58.8658 83.6965 63.0043 79.5471 63.0043C75.3977 63.0043 73.4844 58.8658 73.4844 55.5002C72.5685 51.5016 72.7571 46.7864 78.9813 46.7864C85.2054 46.7864 84.2194 52.1343 84.2194 55.5002Z" fill="#F5D0C5"/>
<path d="M81.2446 57.3485H80.8673C80.659 57.3485 80.4901 57.5174 80.4901 57.7257C80.4901 57.9341 80.659 58.103 80.8673 58.103H81.2446C81.4529 58.103 81.6218 57.9341 81.6218 57.7257C81.6218 57.5174 81.4529 57.3485 81.2446 57.3485Z" fill="#EAC0B3"/>
<path d="M81.2445 64.5159H72.9457C71.0707 64.5159 69.5507 66.0359 69.5507 67.9109V69.797C69.5507 71.672 71.0707 73.192 72.9457 73.192H81.2445C83.1195 73.192 84.6395 71.672 84.6395 69.797V67.9109C84.6395 66.0359 83.1195 64.5159 81.2445 64.5159Z" fill="#5861D4"/>
<path d="M73.3229 63.7614H80.4901V64.8931C80.4901 64.8931 78.604 65.2703 76.9065 65.2703C75.209 65.2703 73.3229 64.8931 73.3229 64.8931V63.7614Z" fill="#5861D4"/>
<path d="M73.3229 63.7614H80.4901V64.5159C80.4901 64.5159 79.3584 65.0817 76.9065 65.0817C74.4545 65.0817 73.3229 64.5159 73.3229 64.5159V63.7614Z" fill="#3C45B3"/>
<path d="M73.1343 64.1387C73.1343 63.9386 73.2138 63.7467 73.3552 63.6052C73.4967 63.4637 73.6886 63.3842 73.8887 63.3842H79.9243C80.1244 63.3842 80.3163 63.4637 80.4577 63.6052C80.5992 63.7467 80.6787 63.9386 80.6787 64.1387C80.6787 64.1387 78.7926 64.5159 76.9065 64.5159C75.0204 64.5159 73.1343 64.1387 73.1343 64.1387Z" fill="#5861D4"/>
<path fill-rule="evenodd" clip-rule="evenodd" d="M85.0168 51.3131C85.0166 49.5287 84.314 47.8161 83.061 46.5457C81.808 45.2754 80.1053 44.5492 78.3211 44.5245C76.5369 44.4997 74.8147 45.1782 73.5268 46.4133C72.239 47.6484 71.4892 49.3408 71.4394 51.1245H71.4368L71.4394 68.3571L75.5862 70.2857V54.9333C76.5236 54.7529 78.1438 54.3561 80.1913 53.5164C82.2525 52.6711 83.5384 51.8721 84.2155 51.39C84.3068 52.3421 84.2751 53.3365 84.2457 54.2607C84.2321 54.693 84.2189 55.1094 84.2189 55.4998C84.2189 55.6538 84.2159 55.8084 84.2095 55.9635C84.2966 55.9359 84.3781 55.9057 84.4505 55.8729C85.0164 55.6149 85.0164 55.2705 85.0164 55.2705L85.0168 51.3131ZM72.5684 54.3308C72.2976 54.5335 72.0864 54.8054 71.9573 55.1181C71.7971 55.505 71.7703 55.9342 71.8809 56.338C71.9915 56.7419 72.2334 57.0974 72.5684 57.3486V54.3308Z" fill="#1B0B47"/>
<path d="M77.8229 59.2348C77.8229 59.1347 77.8626 59.0388 77.9334 58.968C78.0041 58.8973 78.1001 58.8575 78.2001 58.8575H81.649C81.7491 58.8575 81.845 58.8973 81.9158 58.968C81.9865 59.0388 82.0263 59.1347 82.0263 59.2348C82.0263 59.735 81.8275 60.2147 81.4738 60.5684C81.1201 60.9222 80.6404 61.1209 80.1402 61.1209H79.709C79.2088 61.1209 78.729 60.9222 78.3753 60.5684C78.0216 60.2147 77.8229 59.735 77.8229 59.2348Z" fill="#66253C"/>
<path fill-rule="evenodd" clip-rule="evenodd" d="M80.775 61.0115C80.5713 61.0842 80.3565 61.1212 80.1402 61.1209H79.709C79.2218 61.1209 78.7536 60.9324 78.4023 60.5949C78.051 60.2574 77.8439 59.797 77.8244 59.3102C78.1126 59.2023 78.5404 59.2148 78.9625 59.2272C79.0968 59.231 79.2303 59.2348 79.3586 59.2348C80.1922 59.2348 80.8674 59.8259 80.8674 60.5551C80.8674 60.7154 80.8346 60.8693 80.775 61.0115Z" fill="#B03E67"/>
<path d="M78.2267 58.8575H81.999V59.2348C81.999 59.3348 81.9592 59.4308 81.8885 59.5015C81.8177 59.5722 81.7218 59.612 81.6217 59.612H78.604C78.5039 59.612 78.408 59.5722 78.3372 59.5015C78.2665 59.4308 78.2267 59.3348 78.2267 59.2348V58.8575Z" fill="white"/>
<path d="M79.3584 56.0286C79.3584 55.7161 79.1051 55.4628 78.7926 55.4628C78.4801 55.4628 78.2267 55.7161 78.2267 56.0286V56.4058C78.2267 56.7183 78.4801 56.9717 78.7926 56.9717C79.1051 56.9717 79.3584 56.7183 79.3584 56.4058V56.0286Z" fill="#1B0B47"/>
<path d="M83.1306 56.0283C83.1306 55.7158 82.8772 55.4625 82.5647 55.4625C82.2522 55.4625 81.9989 55.7158 81.9989 56.0283V56.4055C81.9989 56.718 82.2522 56.9714 82.5647 56.9714C82.8772 56.9714 83.1306 56.718 83.1306 56.4055V56.0283Z" fill="#1B0B47"/>
</g>
<defs>
<filter id="filter0_dd" x="12" y="7" width="269" height="179" filterUnits="userSpaceOnUse" color-interpolation-filters="sRGB">
<feFlood flood-opacity="0" result="BackgroundImageFix"/>
<feColorMatrix in="SourceAlpha" type="matrix" values="0 0 0 0 0 0 0 0 0 0 0 0 0 0 0 0 0 0 127 0"/>
<feMorphology radius="2" operator="erode" in="SourceAlpha" result="effect1_dropShadow"/>
<feOffset dy="4"/>
<feGaussianBlur stdDeviation="10"/>
<feColorMatrix type="matrix" values="0 0 0 0 0.196078 0 0 0 0 0.196078 0 0 0 0 0.278431 0 0 0 0.08 0"/>
<feBlend mode="normal" in2="BackgroundImageFix" result="effect1_dropShadow"/>
<feColorMatrix in="SourceAlpha" type="matrix" values="0 0 0 0 0 0 0 0 0 0 0 0 0 0 0 0 0 0 127 0"/>
<feOffset/>
<feGaussianBlur stdDeviation="0.5"/>
<feColorMatrix type="matrix" values="0 0 0 0 0.0470588 0 0 0 0 0.101961 0 0 0 0 0.294118 0 0 0 0.1 0"/>
<feBlend mode="normal" in2="effect1_dropShadow" result="effect2_dropShadow"/>
<feBlend mode="normal" in="SourceGraphic" in2="effect2_dropShadow" result="shape"/>
</filter>
<clipPath id="clip0">
<rect x="64" y="39" width="30" height="30" rx="15" fill="white"/>
</clipPath>
</defs>
</svg>
