<svg width="293" height="186" viewBox="0 0 293 186" fill="none" xmlns="http://www.w3.org/2000/svg">
<g filter="url(#filter0_dd)">
<rect x="30" y="21" width="233" height="143" rx="7" fill="white"/>
<line x1="30" y1="40.5" x2="263" y2="40.5" stroke="#EBEEF2"/>
<rect x="114" y="59" width="66" height="7" rx="3.5" fill="#D3D5DE"/>
<rect x="78" y="79" width="134" height="4" rx="2" fill="#EFF1F5"/>
<rect x="108" y="90" width="78" height="4" rx="2" fill="#EFF1F5"/>
<circle cx="42" cy="31" r="6" fill="#EFF1F5"/>
<g clip-path="url(#clip0)">
<g clip-path="url(#clip1)">
<path d="M60 64H227C230.314 64 233 66.6863 233 70V185C233 188.314 230.314 191 227 191H60V64Z" fill="#D2D9E4"/>
<circle cx="88" cy="92" r="79" fill="#D2D9E4"/>
<circle cx="177" cy="241" r="139" fill="#E5EAF1"/>
</g>
</g>
</g>
<defs>
<filter id="filter0_dd" x="12" y="7" width="269" height="179" filterUnits="userSpaceOnUse" color-interpolation-filters="sRGB">
<feFlood flood-opacity="0" result="BackgroundImageFix"/>
<feColorMatrix in="SourceAlpha" type="matrix" values="0 0 0 0 0 0 0 0 0 0 0 0 0 0 0 0 0 0 127 0"/>
<feMorphology radius="2" operator="erode" in="SourceAlpha" result="effect1_dropShadow"/>
<feOffset dy="4"/>
<feGaussianBlur stdDeviation="10"/>
<feColorMatrix type="matrix" values="0 0 0 0 0.196078 0 0 0 0 0.196078 0 0 0 0 0.278431 0 0 0 0.08 0"/>
<feBlend mode="normal" in2="BackgroundImageFix" result="effect1_dropShadow"/>
<feColorMatrix in="SourceAlpha" type="matrix" values="0 0 0 0 0 0 0 0 0 0 0 0 0 0 0 0 0 0 127 0"/>
<feOffset/>
<feGaussianBlur stdDeviation="0.5"/>
<feColorMatrix type="matrix" values="0 0 0 0 0.0470588 0 0 0 0 0.101961 0 0 0 0 0.294118 0 0 0 0.1 0"/>
<feBlend mode="normal" in2="effect1_dropShadow" result="effect2_dropShadow"/>
<feBlend mode="normal" in="SourceGraphic" in2="effect2_dropShadow" result="shape"/>
</filter>
<clipPath id="clip0">
<path d="M60 125C60 120.582 63.5817 117 68 117H225C229.418 117 233 120.582 233 125V164H60V125Z" fill="white"/>
</clipPath>
<clipPath id="clip1">
<path d="M60 64H227C230.314 64 233 66.6863 233 70V185C233 188.314 230.314 191 227 191H60V64Z" fill="white"/>
</clipPath>
</defs>
</svg>
