<svg width="293" height="186" viewBox="0 0 293 186" fill="none" xmlns="http://www.w3.org/2000/svg">
<g filter="url(#filter0_dd)">
<rect x="84" y="21" width="124" height="143" rx="7" fill="white"/>
</g>
<rect x="93" y="116" width="108" height="4" rx="2" fill="#EFF1F5"/>
<rect x="93" y="126" width="51" height="4" rx="2" fill="#EFF1F5"/>
<rect x="90" y="144" width="52" height="13" rx="2" fill="#D3D5DE"/>
<rect x="148" y="144" width="53" height="13" rx="2" fill="#EFF1F5"/>
<path d="M146 85C158.703 85 169 74.7025 169 62C169 49.2975 158.703 39 146 39C133.297 39 123 49.2975 123 62C123 74.7025 133.297 85 146 85Z" fill="#EFF1F5" fill-opacity="0.5"/>
<path opacity="0.3" fill-rule="evenodd" clip-rule="evenodd" d="M145.583 54.5C145.583 53.8096 146.143 53.25 146.833 53.25C147.524 53.25 148.083 53.8096 148.083 54.5V55.75C148.083 56.4404 147.524 57 146.833 57C146.143 57 145.583 56.4404 145.583 55.75V54.5ZM150.217 56.8928C149.729 57.3809 149.729 58.1724 150.217 58.6605C150.705 59.1487 151.497 59.1487 151.985 58.6605L152.869 57.7767C153.357 57.2885 153.357 56.497 152.869 56.0089C152.381 55.5207 151.589 55.5207 151.101 56.0089L150.217 56.8928ZM146.833 65.3333C144.992 65.3333 143.5 63.841 143.5 62C143.5 60.1591 144.992 58.6667 146.833 58.6667C148.674 58.6667 150.167 60.1591 150.167 62C150.167 63.841 148.674 65.3333 146.833 65.3333ZM151.833 62C151.833 61.3096 152.393 60.75 153.083 60.75H154.333C155.024 60.75 155.583 61.3096 155.583 62C155.583 62.6904 155.024 63.25 154.333 63.25H153.083C152.393 63.25 151.833 62.6904 151.833 62ZM140.842 56.0089C140.354 56.497 140.354 57.2885 140.842 57.7767L141.726 58.6605C142.214 59.1487 143.006 59.1487 143.494 58.6605C143.982 58.1724 143.982 57.3809 143.494 56.8928L142.61 56.0089C142.122 55.5207 141.33 55.5207 140.842 56.0089Z" fill="#5C60F5"/>
<path fill-rule="evenodd" clip-rule="evenodd" d="M147.509 63.25C146.954 61.0935 144.996 59.5 142.667 59.5C139.905 59.5 137.667 61.7386 137.667 64.5C137.667 66.2623 138.578 67.8117 139.956 68.7021C140.509 69.1982 141.24 69.5 142.042 69.5H142.667H149.542C151.268 69.5 152.667 68.1009 152.667 66.375C152.667 64.6491 151.268 63.25 149.542 63.25H147.509Z" fill="#5C60F5"/>
<path d="M127.227 97.1811C127.003 95.5653 125.76 94.6278 124.148 94.6278C122.248 94.6278 120.817 96.0128 120.817 98.3636C120.817 100.711 122.23 102.099 124.148 102.099C125.877 102.099 127.024 100.981 127.227 99.5923L125.899 99.5852C125.732 100.438 125.036 100.917 124.166 100.917C122.987 100.917 122.141 100.033 122.141 98.3636C122.141 96.723 122.979 95.8104 124.169 95.8104C125.053 95.8104 125.746 96.3111 125.899 97.1811H127.227ZM129.946 102.11C130.802 102.11 131.313 101.709 131.547 101.251H131.59V102H132.826V98.3494C132.826 96.9077 131.65 96.4744 130.61 96.4744C129.463 96.4744 128.582 96.9858 128.298 97.9801L129.498 98.1506C129.626 97.7777 129.989 97.4581 130.617 97.4581C131.214 97.4581 131.54 97.7635 131.54 98.2997V98.321C131.54 98.6903 131.153 98.7081 130.191 98.8111C129.133 98.9247 128.121 99.2408 128.121 100.469C128.121 101.542 128.905 102.11 129.946 102.11ZM130.28 101.165C129.744 101.165 129.36 100.92 129.36 100.448C129.36 99.9545 129.79 99.7486 130.365 99.6669C130.702 99.6207 131.377 99.5355 131.544 99.4006V100.043C131.544 100.651 131.054 101.165 130.28 101.165ZM134.119 102H135.404V98.7933C135.404 98.1009 135.926 97.6108 136.633 97.6108C136.849 97.6108 137.119 97.6499 137.229 97.6854V96.5028C137.112 96.4815 136.91 96.4673 136.768 96.4673C136.143 96.4673 135.621 96.8224 135.422 97.4545H135.365V96.5455H134.119V102ZM139.883 102.096C140.82 102.096 141.243 101.538 141.445 101.141H141.524V102H142.788V94.7273H141.499V97.4474H141.445C141.25 97.0533 140.849 96.4744 139.886 96.4744C138.626 96.4744 137.635 97.4616 137.635 99.2798C137.635 101.077 138.597 102.096 139.883 102.096ZM140.242 101.041C139.393 101.041 138.945 100.295 138.945 99.2727C138.945 98.2571 139.386 97.5291 140.242 97.5291C141.069 97.5291 141.524 98.2145 141.524 99.2727C141.524 100.331 141.062 101.041 140.242 101.041ZM147.924 98.804C147.924 98.0156 148.399 97.5611 149.078 97.5611C149.742 97.5611 150.139 97.9979 150.139 98.7259V102H151.425V98.527C151.429 97.2202 150.683 96.4744 149.557 96.4744C148.74 96.4744 148.179 96.8651 147.931 97.4723H147.867V96.5455H146.638V102H147.924V98.804ZM154.301 102.11C155.157 102.11 155.669 101.709 155.903 101.251H155.946V102H157.181V98.3494C157.181 96.9077 156.006 96.4744 154.965 96.4744C153.818 96.4744 152.938 96.9858 152.654 97.9801L153.854 98.1506C153.982 97.7777 154.344 97.4581 154.973 97.4581C155.569 97.4581 155.896 97.7635 155.896 98.2997V98.321C155.896 98.6903 155.509 98.7081 154.546 98.8111C153.488 98.9247 152.476 99.2408 152.476 100.469C152.476 101.542 153.261 102.11 154.301 102.11ZM154.635 101.165C154.099 101.165 153.715 100.92 153.715 100.448C153.715 99.9545 154.145 99.7486 154.72 99.6669C155.058 99.6207 155.733 99.5355 155.899 99.4006V100.043C155.899 100.651 155.409 101.165 154.635 101.165ZM158.474 102H159.759V98.6832C159.759 98.0121 160.207 97.5575 160.761 97.5575C161.304 97.5575 161.677 97.9233 161.677 98.4844V102H162.938V98.598C162.938 97.9837 163.304 97.5575 163.925 97.5575C164.443 97.5575 164.855 97.8629 164.855 98.5376V102H166.144V98.3388C166.144 97.1207 165.441 96.4744 164.44 96.4744C163.648 96.4744 163.044 96.8651 162.803 97.4723H162.746C162.536 96.8544 162.007 96.4744 161.272 96.4744C160.541 96.4744 159.994 96.8509 159.767 97.4723H159.703V96.5455H158.474V102ZM169.863 102.107C171.135 102.107 172.008 101.485 172.236 100.537L171.035 100.402C170.861 100.864 170.435 101.105 169.881 101.105C169.05 101.105 168.5 100.558 168.489 99.6243H172.289V99.2301C172.289 97.3161 171.138 96.4744 169.796 96.4744C168.233 96.4744 167.214 97.6214 167.214 99.3047C167.214 101.016 168.219 102.107 169.863 102.107ZM168.493 98.7578C168.532 98.0618 169.047 97.4759 169.814 97.4759C170.552 97.4759 171.049 98.0156 171.057 98.7578H168.493Z" fill="#505780"/>
<circle cx="185" cy="31" r="2" fill="#EFF1F5"/>
<circle cx="192" cy="31" r="2" fill="#EFF1F5"/>
<circle cx="199" cy="31" r="2" fill="#EFF1F5"/>
<defs>
<filter id="filter0_dd" x="66" y="7" width="160" height="179" filterUnits="userSpaceOnUse" color-interpolation-filters="sRGB">
<feFlood flood-opacity="0" result="BackgroundImageFix"/>
<feColorMatrix in="SourceAlpha" type="matrix" values="0 0 0 0 0 0 0 0 0 0 0 0 0 0 0 0 0 0 127 0"/>
<feMorphology radius="2" operator="erode" in="SourceAlpha" result="effect1_dropShadow"/>
<feOffset dy="4"/>
<feGaussianBlur stdDeviation="10"/>
<feColorMatrix type="matrix" values="0 0 0 0 0.196078 0 0 0 0 0.196078 0 0 0 0 0.278431 0 0 0 0.08 0"/>
<feBlend mode="normal" in2="BackgroundImageFix" result="effect1_dropShadow"/>
<feColorMatrix in="SourceAlpha" type="matrix" values="0 0 0 0 0 0 0 0 0 0 0 0 0 0 0 0 0 0 127 0"/>
<feOffset/>
<feGaussianBlur stdDeviation="0.5"/>
<feColorMatrix type="matrix" values="0 0 0 0 0.0470588 0 0 0 0 0.101961 0 0 0 0 0.294118 0 0 0 0.1 0"/>
<feBlend mode="normal" in2="effect1_dropShadow" result="effect2_dropShadow"/>
<feBlend mode="normal" in="SourceGraphic" in2="effect2_dropShadow" result="shape"/>
</filter>
</defs>
</svg>
