<svg width="361" height="100" viewBox="0 0 361 100" fill="none" xmlns="http://www.w3.org/2000/svg">
<rect width="100" height="100" rx="50" fill="#16192C"/>
<path d="M20.0586 39.2877C18.1964 36.0622 19.3015 31.9379 22.5269 30.0756C25.7524 28.2134 29.8767 29.3186 31.7389 32.544L49.4411 63.205C51.3033 66.4305 50.1982 70.5549 46.9727 72.4171C43.7473 74.2793 39.6229 73.1742 37.7607 69.9487L20.0586 39.2877Z" fill="white"/>
<path d="M45.3947 39.2877C43.5325 36.0622 44.6376 31.9379 47.8631 30.0756C51.0885 28.2134 55.2129 29.3186 57.0751 32.544L74.7773 63.205C76.6395 66.4305 75.5344 70.5549 72.3089 72.4171C69.0835 74.2793 64.9591 73.1742 63.0969 69.9487L45.3947 39.2877Z" fill="white"/>
<path d="M67.3592 33.4475C67.3592 29.7231 70.3784 26.7038 74.1028 26.7038C77.8272 26.7038 80.8465 29.7231 80.8465 33.4475C80.8465 37.1719 77.8272 40.1912 74.1028 40.1912C70.3784 40.1912 67.3592 37.1719 67.3592 33.4475Z" fill="white"/>
<path d="M132.439 64.4234H139.38L144.668 45.3636H145.054L150.342 64.4234H157.265L165.252 36.2192H158.458L153.574 55.9401H153.299L148.231 36.2192H141.529L136.461 56.0503H136.204L131.246 36.2192H124.47L132.439 64.4234Z" fill="#16192C"/>
<path d="M180.071 64.9743C186.645 64.9743 191.162 61.7609 192.337 56.8582L186.13 56.1605C185.231 58.5476 183.027 59.7962 180.163 59.7962C175.866 59.7962 173.02 56.9684 172.965 52.1392H192.612V50.101C192.612 40.2038 186.663 35.852 179.722 35.852C171.643 35.852 166.373 41.783 166.373 50.4866C166.373 59.3371 171.569 64.9743 180.071 64.9743ZM172.983 47.6588C173.185 44.0599 175.848 41.0301 179.814 41.0301C183.633 41.0301 186.204 43.8212 186.241 47.6588H172.983Z" fill="#16192C"/>
<path d="M196.978 64.4234H203.515V59.9798H203.901C204.947 62.0364 207.132 64.9192 211.98 64.9192C218.627 64.9192 223.603 59.6493 223.603 50.3581C223.603 40.9567 218.48 35.852 211.962 35.852C206.986 35.852 204.911 38.845 203.901 40.8832H203.625V26.8178H196.978V64.4234ZM203.497 50.3213C203.497 44.8494 205.847 41.3055 210.126 41.3055C214.551 41.3055 216.828 45.0698 216.828 50.3213C216.828 55.6096 214.514 59.4657 210.126 59.4657C205.884 59.4657 203.497 55.7932 203.497 50.3213Z" fill="#16192C"/>
<path d="M227.703 75H234.35V59.9798H234.625C235.672 62.0364 237.857 64.9192 242.705 64.9192C249.352 64.9192 254.328 59.6493 254.328 50.3581C254.328 40.9567 249.205 35.852 242.686 35.852C237.71 35.852 235.635 38.845 234.625 40.8832H234.24V36.2192H227.703V75ZM234.222 50.3213C234.222 44.8494 236.572 41.3055 240.85 41.3055C245.276 41.3055 247.552 45.0698 247.552 50.3213C247.552 55.6096 245.239 59.4657 240.85 59.4657C236.609 59.4657 234.222 55.7932 234.222 50.3213Z" fill="#16192C"/>
<path d="M258.469 64.4234H265.116V36.2192H258.469V64.4234ZM261.811 32.2163C263.923 32.2163 265.649 30.6004 265.649 28.6173C265.649 26.6159 263.923 25 261.811 25C259.681 25 257.955 26.6159 257.955 28.6173C257.955 30.6004 259.681 32.2163 261.811 32.2163Z" fill="#16192C"/>
<path d="M275.835 36.2192H268.784L277.157 50.3213L268.564 64.4234H275.615L281.528 54.2692L287.495 64.4234H294.491L285.843 50.3213L294.344 36.2192H287.312L281.528 46.6306L275.835 36.2192Z" fill="#16192C"/>
<path d="M309.36 64.9743C315.934 64.9743 320.451 61.7609 321.626 56.8582L315.42 56.1605C314.52 58.5476 312.317 59.7962 309.452 59.7962C305.155 59.7962 302.309 56.9684 302.254 52.1392H321.902V50.101C321.902 40.2038 315.952 35.852 309.011 35.852C300.932 35.852 295.662 41.783 295.662 50.4866C295.662 59.3371 300.859 64.9743 309.36 64.9743ZM302.273 47.6588C302.475 44.0599 305.137 41.0301 309.103 41.0301C312.923 41.0301 315.493 43.8212 315.53 47.6588H302.273Z" fill="#16192C"/>
<path d="M332.621 26.8178H325.974V64.4234H332.621V26.8178Z" fill="#16192C"/>
<path d="M360.197 43.6743C359.278 38.9001 355.459 35.852 348.849 35.852C342.055 35.852 337.428 39.1939 337.446 44.4087C337.428 48.5219 339.962 51.2394 345.378 52.3595L350.189 53.3694C352.778 53.9387 353.99 54.9853 353.99 56.5828C353.99 58.5108 351.897 59.9614 348.739 59.9614C345.69 59.9614 343.707 58.6394 343.138 56.1054L336.656 56.7297C337.483 61.9078 341.834 64.9743 348.757 64.9743C355.808 64.9743 360.784 61.3202 360.803 55.9769C360.784 51.9556 358.195 49.495 352.87 48.3382L348.059 47.31C345.195 46.6673 344.056 45.6757 344.075 44.0415C344.056 42.1318 346.168 40.8098 348.941 40.8098C352.007 40.8098 353.623 42.4807 354.137 44.3353L360.197 43.6743Z" fill="#16192C"/>
</svg>
