<svg width="293" height="186" viewBox="0 0 293 186" fill="none" xmlns="http://www.w3.org/2000/svg">
<g filter="url(#filter0_dd)">
<rect x="30" y="21" width="233" height="143" rx="7" fill="white"/>
</g>
<rect x="62" y="113" width="79" height="11" rx="2" fill="#EFF1F5"/>
<rect x="150" y="113" width="80" height="11" rx="2" fill="#EFF1F5"/>
<rect x="62" y="130" width="79" height="11" rx="2" fill="#EFF1F5"/>
<rect x="150" y="130" width="80" height="11" rx="2" fill="#EFF1F5"/>
<rect x="200" y="83" width="30" height="11" rx="2" fill="#5C60F5"/>
<rect x="101" y="87" width="40" height="4" rx="2" fill="#D3D5DE"/>
<g clip-path="url(#clip0)">
<g clip-path="url(#clip1)">
<path d="M36 -32C36 -34.2091 37.7909 -36 40 -36H252C255.314 -36 258 -33.3137 258 -30V109C258 112.314 255.314 115 252 115H40C37.7909 115 36 113.209 36 111V-32Z" fill="#E5EAF1"/>
<circle cx="73.5" cy="-13.5" r="86.5" fill="#D2D9E4"/>
<circle cx="172" cy="112" r="122" fill="#E5EAF1"/>
<rect x="239" y="51" width="10" height="10" rx="2" fill="#D2D9E4"/>
<rect x="225" y="51" width="10" height="10" rx="2" fill="#D2D9E4"/>
</g>
</g>
<g clip-path="url(#clip2)">
<path d="M93.7143 86.5715C93.7143 77.3404 86.231 69.8572 77 69.8572C67.7689 69.8572 60.2857 77.3404 60.2857 86.5715C60.2857 95.8025 67.7689 103.286 77 103.286C86.231 103.286 93.7143 95.8025 93.7143 86.5715Z" fill="#EFF1F5"/>
<path d="M71.7001 90.7258C72.7417 90.7258 73.5862 89.8814 73.5862 88.8397C73.5862 87.7981 72.7417 86.9536 71.7001 86.9536C70.6584 86.9536 69.814 87.7981 69.814 88.8397C69.814 89.8814 70.6584 90.7258 71.7001 90.7258Z" fill="#EAC0B3"/>
<path d="M71.7001 90.3486H78.1128V99.7301C78.1128 99.7301 76.7386 100.534 74.9065 100.534C73.0743 100.534 71.7001 99.222 71.7001 99.222V90.3486Z" fill="#EAC0B3"/>
<path d="M78.0414 94.9176C78.0414 96.949 77.7132 96.7566 75.577 96.7566C73.4408 96.7566 72.4551 95.11 72.4551 93.0787C72.4551 91.0477 72.374 89.217 74.0979 89.217C78.9728 89.3966 78.0414 92.8863 78.0414 94.9176Z" fill="#C99688"/>
<path d="M82.2194 88.5003C82.2194 91.8659 81.6965 96.0044 77.5471 96.0044C73.3977 96.0044 71.4844 91.8659 71.4844 88.5003C70.5685 84.5018 70.7571 79.7865 76.9813 79.7865C83.2054 79.7865 82.2194 85.1344 82.2194 88.5003Z" fill="#F5D0C5"/>
<path d="M79.2446 90.3486H78.8673C78.659 90.3486 78.4901 90.5175 78.4901 90.7259C78.4901 90.9342 78.659 91.1031 78.8673 91.1031H79.2446C79.4529 91.1031 79.6218 90.9342 79.6218 90.7259C79.6218 90.5175 79.4529 90.3486 79.2446 90.3486Z" fill="#EAC0B3"/>
<path d="M79.2445 97.516H70.9457C69.0707 97.516 67.5507 99.036 67.5507 100.911V102.797C67.5507 104.672 69.0707 106.192 70.9457 106.192H79.2445C81.1195 106.192 82.6395 104.672 82.6395 102.797V100.911C82.6395 99.036 81.1195 97.516 79.2445 97.516Z" fill="#5861D4"/>
<path d="M71.3229 96.7615H78.4901V97.8931C78.4901 97.8931 76.604 98.2704 74.9065 98.2704C73.209 98.2704 71.3229 97.8931 71.3229 97.8931V96.7615Z" fill="#5861D4"/>
<path d="M71.3229 96.7615H78.4901V97.5159C78.4901 97.5159 77.3584 98.0818 74.9065 98.0818C72.4545 98.0818 71.3229 97.5159 71.3229 97.5159V96.7615Z" fill="#3C45B3"/>
<path d="M71.1343 97.1387C71.1343 96.9386 71.2138 96.7467 71.3552 96.6052C71.4967 96.4638 71.6886 96.3843 71.8887 96.3843H77.9243C78.1244 96.3843 78.3163 96.4638 78.4577 96.6052C78.5992 96.7467 78.6787 96.9386 78.6787 97.1387C78.6787 97.1387 76.7926 97.5159 74.9065 97.5159C73.0204 97.5159 71.1343 97.1387 71.1343 97.1387Z" fill="#5861D4"/>
<path fill-rule="evenodd" clip-rule="evenodd" d="M83.0168 84.3131C83.0166 82.5287 82.314 80.8161 81.061 79.5457C79.808 78.2754 78.1053 77.5492 76.3211 77.5245C74.5369 77.4997 72.8147 78.1782 71.5268 79.4133C70.239 80.6484 69.4892 82.3408 69.4394 84.1245H69.4368L69.4394 101.357L73.5862 103.286V87.9333C74.5236 87.7529 76.1438 87.3561 78.1913 86.5164C80.2525 85.6711 81.5384 84.8721 82.2155 84.39C82.3068 85.3421 82.2751 86.3365 82.2457 87.2607C82.2321 87.693 82.2189 88.1094 82.2189 88.4998C82.2189 88.6538 82.2159 88.8084 82.2095 88.9635C82.2966 88.9359 82.3781 88.9057 82.4505 88.8729C83.0164 88.6149 83.0164 88.2705 83.0164 88.2705L83.0168 84.3131ZM70.5684 87.3308C70.2976 87.5335 70.0864 87.8054 69.9573 88.1181C69.7971 88.505 69.7703 88.9342 69.8809 89.338C69.9915 89.7419 70.2334 90.0974 70.5684 90.3486V87.3308Z" fill="#1B0B47"/>
<path d="M75.8229 92.2349C75.8229 92.1348 75.8626 92.0389 75.9334 91.9682C76.0041 91.8974 76.1001 91.8577 76.2001 91.8577H79.649C79.7491 91.8577 79.845 91.8974 79.9158 91.9682C79.9865 92.0389 80.0263 92.1348 80.0263 92.2349C80.0263 92.7351 79.8275 93.2149 79.4738 93.5686C79.1201 93.9223 78.6404 94.121 78.1402 94.121H77.709C77.2088 94.121 76.729 93.9223 76.3753 93.5686C76.0216 93.2149 75.8229 92.7351 75.8229 92.2349Z" fill="#66253C"/>
<path fill-rule="evenodd" clip-rule="evenodd" d="M78.775 94.0115C78.5713 94.0842 78.3565 94.1212 78.1402 94.1209H77.709C77.2218 94.1209 76.7536 93.9324 76.4023 93.5949C76.051 93.2574 75.8439 92.797 75.8244 92.3102C76.1126 92.2023 76.5404 92.2148 76.9625 92.2272C77.0968 92.231 77.2303 92.2348 77.3586 92.2348C78.1922 92.2348 78.8674 92.8259 78.8674 93.5551C78.8674 93.7154 78.8346 93.8693 78.775 94.0115Z" fill="#B03E67"/>
<path d="M76.2267 91.8577H79.999V92.2349C79.999 92.3349 79.9592 92.4309 79.8885 92.5016C79.8177 92.5724 79.7218 92.6121 79.6217 92.6121H76.604C76.5039 92.6121 76.408 92.5724 76.3372 92.5016C76.2665 92.4309 76.2267 92.3349 76.2267 92.2349V91.8577Z" fill="white"/>
<path d="M77.3584 89.0287C77.3584 88.7162 77.1051 88.4629 76.7926 88.4629C76.4801 88.4629 76.2267 88.7162 76.2267 89.0287V89.4059C76.2267 89.7184 76.4801 89.9718 76.7926 89.9718C77.1051 89.9718 77.3584 89.7184 77.3584 89.4059V89.0287Z" fill="#1B0B47"/>
<path d="M81.1306 89.0284C81.1306 88.7159 80.8772 88.4625 80.5647 88.4625C80.2522 88.4625 79.9989 88.7159 79.9989 89.0284V89.4056C79.9989 89.7181 80.2522 89.9714 80.5647 89.9714C80.8772 89.9714 81.1306 89.7181 81.1306 89.4056V89.0284Z" fill="#1B0B47"/>
</g>
<defs>
<filter id="filter0_dd" x="12" y="7" width="269" height="179" filterUnits="userSpaceOnUse" color-interpolation-filters="sRGB">
<feFlood flood-opacity="0" result="BackgroundImageFix"/>
<feColorMatrix in="SourceAlpha" type="matrix" values="0 0 0 0 0 0 0 0 0 0 0 0 0 0 0 0 0 0 127 0"/>
<feMorphology radius="2" operator="erode" in="SourceAlpha" result="effect1_dropShadow"/>
<feOffset dy="4"/>
<feGaussianBlur stdDeviation="10"/>
<feColorMatrix type="matrix" values="0 0 0 0 0.196078 0 0 0 0 0.196078 0 0 0 0 0.278431 0 0 0 0.08 0"/>
<feBlend mode="normal" in2="BackgroundImageFix" result="effect1_dropShadow"/>
<feColorMatrix in="SourceAlpha" type="matrix" values="0 0 0 0 0 0 0 0 0 0 0 0 0 0 0 0 0 0 127 0"/>
<feOffset/>
<feGaussianBlur stdDeviation="0.5"/>
<feColorMatrix type="matrix" values="0 0 0 0 0.0470588 0 0 0 0 0.101961 0 0 0 0 0.294118 0 0 0 0.1 0"/>
<feBlend mode="normal" in2="effect1_dropShadow" result="effect2_dropShadow"/>
<feBlend mode="normal" in="SourceGraphic" in2="effect2_dropShadow" result="shape"/>
</filter>
<clipPath id="clip0">
<path d="M39 35C39 31.6863 41.6863 29 45 29H247C250.314 29 253 31.6863 253 35V59C253 62.3137 250.314 65 247 65H45C41.6863 65 39 62.3137 39 59V35Z" fill="white"/>
</clipPath>
<clipPath id="clip1">
<path d="M36 -32C36 -34.2091 37.7909 -36 40 -36H252C255.314 -36 258 -33.3137 258 -30V109C258 112.314 255.314 115 252 115H40C37.7909 115 36 113.209 36 111V-32Z" fill="white"/>
</clipPath>
<clipPath id="clip2">
<rect x="62" y="72" width="30" height="30" rx="15" fill="white"/>
</clipPath>
</defs>
</svg>
