<svg width="293" height="186" viewBox="0 0 293 186" fill="none" xmlns="http://www.w3.org/2000/svg">
<g filter="url(#filter0_dd)">
<rect x="30" y="21" width="233" height="143" rx="7" fill="white"/>
</g>
<rect x="108" y="93" width="77" height="11" rx="2" fill="#EFF1F5"/>
<rect x="108" y="110" width="77" height="11" rx="2" fill="#EFF1F5"/>
<path d="M126.496 84H127.795L129.255 78.897H129.312L130.768 84H132.067L134.12 76.7273H132.703L131.393 82.0753H131.329L129.926 76.7273H128.637L127.238 82.0717H127.17L125.86 76.7273H124.443L126.496 84ZM136.785 84.1065C138.056 84.1065 138.93 83.4851 139.157 82.5369L137.957 82.402C137.783 82.8636 137.356 83.1051 136.802 83.1051C135.971 83.1051 135.421 82.5582 135.41 81.6243H139.21V81.2301C139.21 79.3161 138.06 78.4744 136.717 78.4744C135.155 78.4744 134.136 79.6214 134.136 81.3047C134.136 83.0163 135.14 84.1065 136.785 84.1065ZM135.414 80.7578C135.453 80.0618 135.968 79.4759 136.735 79.4759C137.474 79.4759 137.971 80.0156 137.978 80.7578H135.414ZM141.533 76.7273H140.248V84H141.533V76.7273ZM145.184 84.1065C146.555 84.1065 147.429 83.2933 147.521 82.1357H146.292C146.182 82.7216 145.76 83.0589 145.195 83.0589C144.392 83.0589 143.874 82.3878 143.874 81.2727C143.874 80.1719 144.403 79.5114 145.195 79.5114C145.813 79.5114 146.193 79.9091 146.292 80.4347H147.521C147.432 79.2521 146.509 78.4744 145.177 78.4744C143.579 78.4744 142.571 79.6286 142.571 81.294C142.571 82.9453 143.554 84.1065 145.184 84.1065ZM150.906 84.1065C152.504 84.1065 153.519 82.9808 153.519 81.294C153.519 79.6037 152.504 78.4744 150.906 78.4744C149.308 78.4744 148.292 79.6037 148.292 81.294C148.292 82.9808 149.308 84.1065 150.906 84.1065ZM150.913 83.0767C150.029 83.0767 149.595 82.2884 149.595 81.2905C149.595 80.2926 150.029 79.4936 150.913 79.4936C151.783 79.4936 152.216 80.2926 152.216 81.2905C152.216 82.2884 151.783 83.0767 150.913 83.0767ZM154.561 84H155.846V80.6832C155.846 80.0121 156.293 79.5575 156.847 79.5575C157.391 79.5575 157.764 79.9233 157.764 80.4844V84H159.024V80.598C159.024 79.9837 159.39 79.5575 160.012 79.5575C160.53 79.5575 160.942 79.8629 160.942 80.5376V84H162.231V80.3388C162.231 79.1207 161.528 78.4744 160.526 78.4744C159.735 78.4744 159.131 78.8651 158.889 79.4723H158.833C158.623 78.8544 158.094 78.4744 157.359 78.4744C156.627 78.4744 156.08 78.8509 155.853 79.4723H155.789V78.5455H154.561V84ZM165.9 84.1065C167.171 84.1065 168.045 83.4851 168.272 82.5369L167.072 82.402C166.898 82.8636 166.472 83.1051 165.918 83.1051C165.087 83.1051 164.536 82.5582 164.526 81.6243H168.325V81.2301C168.325 79.3161 167.175 78.4744 165.832 78.4744C164.27 78.4744 163.251 79.6214 163.251 81.3047C163.251 83.0163 164.256 84.1065 165.9 84.1065ZM164.529 80.7578C164.568 80.0618 165.083 79.4759 165.85 79.4759C166.589 79.4759 167.086 80.0156 167.093 80.7578H164.529Z" fill="#505780"/>
<rect x="155.5" y="130.5" width="29" height="12" rx="1.5" fill="#5C60F5" stroke="#5C60F5"/>
<g clip-path="url(#clip0)">
<path d="M162.714 53.5714C162.714 44.3404 155.231 36.8571 146 36.8571C136.769 36.8571 129.286 44.3404 129.286 53.5714C129.286 62.8025 136.769 70.2857 146 70.2857C155.231 70.2857 162.714 62.8025 162.714 53.5714Z" fill="#EFF1F5"/>
<path d="M140.7 57.7258C141.742 57.7258 142.586 56.8813 142.586 55.8397C142.586 54.798 141.742 53.9536 140.7 53.9536C139.658 53.9536 138.814 54.798 138.814 55.8397C138.814 56.8813 139.658 57.7258 140.7 57.7258Z" fill="#EAC0B3"/>
<path d="M140.7 57.3485H147.113V66.73C147.113 66.73 145.739 67.5335 143.906 67.5335C142.074 67.5335 140.7 66.2219 140.7 66.2219V57.3485Z" fill="#EAC0B3"/>
<path d="M147.041 61.9174C147.041 63.9488 146.713 63.7564 144.577 63.7564C142.441 63.7564 141.455 62.1098 141.455 60.0785C141.455 58.0475 141.374 56.2169 143.098 56.2169C147.973 56.3964 147.041 59.8861 147.041 61.9174Z" fill="#C99688"/>
<path d="M151.219 55.5002C151.219 58.8658 150.697 63.0043 146.547 63.0043C142.398 63.0043 140.484 58.8658 140.484 55.5002C139.568 51.5016 139.757 46.7864 145.981 46.7864C152.205 46.7864 151.219 52.1343 151.219 55.5002Z" fill="#F5D0C5"/>
<path d="M148.245 57.3485H147.867C147.659 57.3485 147.49 57.5174 147.49 57.7257C147.49 57.9341 147.659 58.103 147.867 58.103H148.245C148.453 58.103 148.622 57.9341 148.622 57.7257C148.622 57.5174 148.453 57.3485 148.245 57.3485Z" fill="#EAC0B3"/>
<path d="M148.245 64.5159H139.946C138.071 64.5159 136.551 66.0359 136.551 67.9109V69.797C136.551 71.672 138.071 73.192 139.946 73.192H148.245C150.12 73.192 151.64 71.672 151.64 69.797V67.9109C151.64 66.0359 150.12 64.5159 148.245 64.5159Z" fill="#5861D4"/>
<path d="M140.323 63.7614H147.49V64.8931C147.49 64.8931 145.604 65.2703 143.906 65.2703C142.209 65.2703 140.323 64.8931 140.323 64.8931V63.7614Z" fill="#5861D4"/>
<path d="M140.323 63.7614H147.49V64.5159C147.49 64.5159 146.358 65.0817 143.906 65.0817C141.455 65.0817 140.323 64.5159 140.323 64.5159V63.7614Z" fill="#3C45B3"/>
<path d="M140.134 64.1387C140.134 63.9386 140.214 63.7467 140.355 63.6052C140.497 63.4637 140.689 63.3842 140.889 63.3842H146.924C147.124 63.3842 147.316 63.4637 147.458 63.6052C147.599 63.7467 147.679 63.9386 147.679 64.1387C147.679 64.1387 145.793 64.5159 143.906 64.5159C142.02 64.5159 140.134 64.1387 140.134 64.1387Z" fill="#5861D4"/>
<path fill-rule="evenodd" clip-rule="evenodd" d="M152.017 51.3131C152.017 49.5287 151.314 47.8161 150.061 46.5457C148.808 45.2754 147.105 44.5492 145.321 44.5245C143.537 44.4997 141.815 45.1782 140.527 46.4133C139.239 47.6484 138.489 49.3408 138.439 51.1245H138.437L138.439 68.3571L142.586 70.2857V54.9333C143.524 54.7529 145.144 54.3561 147.191 53.5164C149.252 52.6711 150.538 51.8721 151.216 51.39C151.307 52.3421 151.275 53.3365 151.246 54.2607C151.232 54.693 151.219 55.1094 151.219 55.4998C151.219 55.6538 151.216 55.8084 151.21 55.9635C151.297 55.9359 151.378 55.9057 151.451 55.8729C152.016 55.6149 152.016 55.2705 152.016 55.2705L152.017 51.3131ZM139.568 54.3308C139.298 54.5335 139.086 54.8054 138.957 55.1181C138.797 55.505 138.77 55.9342 138.881 56.338C138.992 56.7419 139.233 57.0974 139.568 57.3486V54.3308Z" fill="#1B0B47"/>
<path d="M144.823 59.2348C144.823 59.1347 144.863 59.0388 144.933 58.968C145.004 58.8973 145.1 58.8575 145.2 58.8575H148.649C148.749 58.8575 148.845 58.8973 148.916 58.968C148.987 59.0388 149.026 59.1347 149.026 59.2348C149.026 59.735 148.828 60.2147 148.474 60.5684C148.12 60.9222 147.64 61.1209 147.14 61.1209H146.709C146.209 61.1209 145.729 60.9222 145.375 60.5684C145.022 60.2147 144.823 59.735 144.823 59.2348Z" fill="#66253C"/>
<path fill-rule="evenodd" clip-rule="evenodd" d="M147.775 61.0115C147.571 61.0842 147.356 61.1212 147.14 61.1209H146.709C146.222 61.1209 145.754 60.9324 145.402 60.5949C145.051 60.2574 144.844 59.797 144.824 59.3102C145.113 59.2023 145.54 59.2148 145.962 59.2272C146.097 59.231 146.23 59.2348 146.359 59.2348C147.192 59.2348 147.867 59.8259 147.867 60.5551C147.867 60.7154 147.835 60.8693 147.775 61.0115Z" fill="#B03E67"/>
<path d="M145.227 58.8575H148.999V59.2348C148.999 59.3348 148.959 59.4308 148.888 59.5015C148.818 59.5722 148.722 59.612 148.622 59.612H145.604C145.504 59.612 145.408 59.5722 145.337 59.5015C145.266 59.4308 145.227 59.3348 145.227 59.2348V58.8575Z" fill="white"/>
<path d="M146.358 56.0286C146.358 55.7161 146.105 55.4628 145.793 55.4628C145.48 55.4628 145.227 55.7161 145.227 56.0286V56.4058C145.227 56.7183 145.48 56.9717 145.793 56.9717C146.105 56.9717 146.358 56.7183 146.358 56.4058V56.0286Z" fill="#1B0B47"/>
<path d="M150.131 56.0283C150.131 55.7158 149.877 55.4625 149.565 55.4625C149.252 55.4625 148.999 55.7158 148.999 56.0283V56.4055C148.999 56.718 149.252 56.9714 149.565 56.9714C149.877 56.9714 150.131 56.718 150.131 56.4055V56.0283Z" fill="#1B0B47"/>
</g>
<defs>
<filter id="filter0_dd" x="12" y="7" width="269" height="179" filterUnits="userSpaceOnUse" color-interpolation-filters="sRGB">
<feFlood flood-opacity="0" result="BackgroundImageFix"/>
<feColorMatrix in="SourceAlpha" type="matrix" values="0 0 0 0 0 0 0 0 0 0 0 0 0 0 0 0 0 0 127 0"/>
<feMorphology radius="2" operator="erode" in="SourceAlpha" result="effect1_dropShadow"/>
<feOffset dy="4"/>
<feGaussianBlur stdDeviation="10"/>
<feColorMatrix type="matrix" values="0 0 0 0 0.196078 0 0 0 0 0.196078 0 0 0 0 0.278431 0 0 0 0.08 0"/>
<feBlend mode="normal" in2="BackgroundImageFix" result="effect1_dropShadow"/>
<feColorMatrix in="SourceAlpha" type="matrix" values="0 0 0 0 0 0 0 0 0 0 0 0 0 0 0 0 0 0 127 0"/>
<feOffset/>
<feGaussianBlur stdDeviation="0.5"/>
<feColorMatrix type="matrix" values="0 0 0 0 0.0470588 0 0 0 0 0.101961 0 0 0 0 0.294118 0 0 0 0.1 0"/>
<feBlend mode="normal" in2="effect1_dropShadow" result="effect2_dropShadow"/>
<feBlend mode="normal" in="SourceGraphic" in2="effect2_dropShadow" result="shape"/>
</filter>
<clipPath id="clip0">
<rect x="131" y="39" width="30" height="30" rx="15" fill="white"/>
</clipPath>
</defs>
</svg>
