<svg width="293" height="186" viewBox="0 0 293 186" fill="none" xmlns="http://www.w3.org/2000/svg">
<g filter="url(#filter0_dd)">
<rect x="62" y="61" width="169" height="92" rx="7" fill="white"/>
</g>
<path fill-rule="evenodd" clip-rule="evenodd" d="M214.742 106.617C214.816 106.544 214.934 106.544 215.008 106.617L217.258 108.867C217.331 108.941 217.331 109.059 217.258 109.133L215.008 111.383C214.934 111.456 214.816 111.456 214.742 111.383C214.669 111.309 214.669 111.191 214.742 111.117L216.86 109L214.742 106.883C214.669 106.809 214.669 106.691 214.742 106.617Z" fill="black" stroke="#D3D5DE" stroke-width="0.5" stroke-linecap="round" stroke-linejoin="round"/>
<path fill-rule="evenodd" clip-rule="evenodd" d="M214.742 118.617C214.816 118.544 214.934 118.544 215.008 118.617L217.258 120.867C217.331 120.941 217.331 121.059 217.258 121.133L215.008 123.383C214.934 123.456 214.816 123.456 214.742 123.383C214.669 123.309 214.669 123.191 214.742 123.117L216.86 121L214.742 118.883C214.669 118.809 214.669 118.691 214.742 118.617Z" fill="black" stroke="#D3D5DE" stroke-width="0.5" stroke-linecap="round" stroke-linejoin="round"/>
<path fill-rule="evenodd" clip-rule="evenodd" d="M214.742 130.617C214.816 130.544 214.934 130.544 215.008 130.617L217.258 132.867C217.331 132.941 217.331 133.059 217.258 133.133L215.008 135.383C214.934 135.456 214.816 135.456 214.742 135.383C214.669 135.309 214.669 135.191 214.742 135.117L216.86 133L214.742 130.883C214.669 130.809 214.669 130.691 214.742 130.617Z" fill="black" stroke="#D3D5DE" stroke-width="0.5" stroke-linecap="round" stroke-linejoin="round"/>
<path d="M87.1023 84.9091C87.1023 81.6179 85.0938 79.679 82.424 79.679C79.7493 79.679 77.7457 81.6179 77.7457 84.9091C77.7457 88.1953 79.7493 90.1392 82.424 90.1392C85.0938 90.1392 87.1023 88.2003 87.1023 84.9091ZM85.2479 84.9091C85.2479 87.2259 84.0845 88.4837 82.424 88.4837C80.7685 88.4837 79.6001 87.2259 79.6001 84.9091C79.6001 82.5923 80.7685 81.3345 82.424 81.3345C84.0845 81.3345 85.2479 82.5923 85.2479 84.9091ZM88.6965 92.8636H90.4962V88.7969H90.5708C90.8542 89.3537 91.4458 90.1342 92.7583 90.1342C94.558 90.1342 95.9053 88.7074 95.9053 86.1918C95.9053 83.6463 94.5182 82.2642 92.7533 82.2642C91.406 82.2642 90.8442 83.0746 90.5708 83.6264H90.4664V82.3636H88.6965V92.8636ZM90.4614 86.1818C90.4614 84.7003 91.0978 83.7408 92.2562 83.7408C93.4543 83.7408 94.0708 84.7599 94.0708 86.1818C94.0708 87.6136 93.4444 88.6577 92.2562 88.6577C91.1077 88.6577 90.4614 87.6634 90.4614 86.1818ZM101.19 82.3636H99.6833V80.5341H97.8836V82.3636H96.7998V83.7557H97.8836V88.0014C97.8737 89.4382 98.9177 90.1442 100.27 90.1044C100.782 90.0895 101.135 89.9901 101.329 89.9254L101.026 88.5185C100.926 88.5433 100.722 88.5881 100.499 88.5881C100.046 88.5881 99.6833 88.429 99.6833 87.7031V83.7557H101.19V82.3636ZM102.625 90H104.425V82.3636H102.625V90ZM103.53 81.2798C104.101 81.2798 104.569 80.8423 104.569 80.3054C104.569 79.7635 104.101 79.326 103.53 79.326C102.953 79.326 102.486 79.7635 102.486 80.3054C102.486 80.8423 102.953 81.2798 103.53 81.2798ZM109.536 90.1491C111.773 90.1491 113.195 88.5732 113.195 86.2116C113.195 83.8452 111.773 82.2642 109.536 82.2642C107.299 82.2642 105.877 83.8452 105.877 86.2116C105.877 88.5732 107.299 90.1491 109.536 90.1491ZM109.546 88.7074C108.308 88.7074 107.702 87.6037 107.702 86.2067C107.702 84.8097 108.308 83.6911 109.546 83.6911C110.764 83.6911 111.371 84.8097 111.371 86.2067C111.371 87.6037 110.764 88.7074 109.546 88.7074ZM116.453 85.5256C116.453 84.4219 117.119 83.7855 118.068 83.7855C118.998 83.7855 119.555 84.397 119.555 85.4162V90H121.355V85.1378C121.36 83.3082 120.315 82.2642 118.739 82.2642C117.596 82.2642 116.811 82.8111 116.463 83.6612H116.373V82.3636H114.653V90H116.453V85.5256ZM129.15 84.3821C128.901 83.0895 127.867 82.2642 126.077 82.2642C124.238 82.2642 122.985 83.169 122.99 84.581C122.985 85.6946 123.671 86.4304 125.138 86.7337L126.44 87.0071C127.141 87.1612 127.469 87.4446 127.469 87.8771C127.469 88.3991 126.902 88.7919 126.047 88.7919C125.222 88.7919 124.685 88.4339 124.531 87.7479L122.776 87.9169C123 89.3189 124.178 90.1491 126.052 90.1491C127.961 90.1491 129.309 89.1598 129.314 87.7131C129.309 86.6243 128.608 85.9581 127.166 85.6449L125.863 85.3665C125.088 85.1925 124.78 84.924 124.785 84.4815C124.78 83.9645 125.351 83.6065 126.102 83.6065C126.932 83.6065 127.37 84.0589 127.509 84.5611L129.15 84.3821Z" fill="#505780"/>
<rect x="77" y="107" width="98" height="4" rx="2" fill="#D3D5DE"/>
<rect x="77" y="119" width="67" height="4" rx="2" fill="#D3D5DE"/>
<rect x="77" y="131" width="46" height="4" rx="2" fill="#D3D5DE"/>
<g filter="url(#filter1_d)">
<rect x="175" y="39" width="56" height="16" rx="4" fill="#505780"/>
</g>
<defs>
<filter id="filter0_dd" x="44" y="47" width="205" height="128" filterUnits="userSpaceOnUse" color-interpolation-filters="sRGB">
<feFlood flood-opacity="0" result="BackgroundImageFix"/>
<feColorMatrix in="SourceAlpha" type="matrix" values="0 0 0 0 0 0 0 0 0 0 0 0 0 0 0 0 0 0 127 0"/>
<feMorphology radius="2" operator="erode" in="SourceAlpha" result="effect1_dropShadow"/>
<feOffset dy="4"/>
<feGaussianBlur stdDeviation="10"/>
<feColorMatrix type="matrix" values="0 0 0 0 0.196078 0 0 0 0 0.196078 0 0 0 0 0.278431 0 0 0 0.08 0"/>
<feBlend mode="normal" in2="BackgroundImageFix" result="effect1_dropShadow"/>
<feColorMatrix in="SourceAlpha" type="matrix" values="0 0 0 0 0 0 0 0 0 0 0 0 0 0 0 0 0 0 127 0"/>
<feOffset/>
<feGaussianBlur stdDeviation="0.5"/>
<feColorMatrix type="matrix" values="0 0 0 0 0.0470588 0 0 0 0 0.101961 0 0 0 0 0.294118 0 0 0 0.1 0"/>
<feBlend mode="normal" in2="effect1_dropShadow" result="effect2_dropShadow"/>
<feBlend mode="normal" in="SourceGraphic" in2="effect2_dropShadow" result="shape"/>
</filter>
<filter id="filter1_d" x="160" y="34" width="86" height="46" filterUnits="userSpaceOnUse" color-interpolation-filters="sRGB">
<feFlood flood-opacity="0" result="BackgroundImageFix"/>
<feColorMatrix in="SourceAlpha" type="matrix" values="0 0 0 0 0 0 0 0 0 0 0 0 0 0 0 0 0 0 127 0"/>
<feMorphology radius="20" operator="erode" in="SourceAlpha" result="effect1_dropShadow"/>
<feOffset dy="10"/>
<feGaussianBlur stdDeviation="17.5"/>
<feColorMatrix type="matrix" values="0 0 0 0 0.114653 0 0 0 0 0.179942 0 0 0 0 0.216667 0 0 0 0.75 0"/>
<feBlend mode="normal" in2="BackgroundImageFix" result="effect1_dropShadow"/>
<feBlend mode="normal" in="SourceGraphic" in2="effect1_dropShadow" result="shape"/>
</filter>
</defs>
</svg>
