<svg width="293" height="186" viewBox="0 0 293 186" fill="none" xmlns="http://www.w3.org/2000/svg">
<g clip-path="url(#clip0)">
<g filter="url(#filter0_dd)">
<rect x="30" y="21" width="233" height="144" rx="7" fill="white"/>
</g>
<path d="M46 164C46 161.791 47.7909 160 50 160H106.035C108.245 160 110.035 161.791 110.035 164V165H46V164Z" fill="#EFF1F5"/>
<path d="M114.482 164C114.482 161.791 116.273 160 118.482 160H174.518C176.727 160 178.518 161.791 178.518 164V165H114.482V164Z" fill="#EFF1F5"/>
<path d="M182.965 164C182.965 161.791 184.756 160 186.965 160H243C245.209 160 247 161.791 247 164V165H182.965V164Z" fill="#EFF1F5"/>
<rect x="46" y="90" width="87" height="3" rx="1.5" fill="#EFF1F5"/>
<rect x="46" y="146" width="54" height="4" rx="2" fill="#EFF1F5"/>
<rect x="46" y="97" width="71" height="3" rx="1.5" fill="#EFF1F5"/>
<rect x="46" y="113" width="27" height="9" rx="2" fill="#5C60F5"/>
<path d="M46.2202 55.7273L48.8658 60.2869V63H50.1797V60.2869L52.8253 55.7273H51.3374L49.5582 58.9446H49.4872L47.7081 55.7273H46.2202ZM55.0652 63.1065C56.6632 63.1065 57.6788 61.9808 57.6788 60.294C57.6788 58.6037 56.6632 57.4744 55.0652 57.4744C53.4672 57.4744 52.4515 58.6037 52.4515 60.294C52.4515 61.9808 53.4672 63.1065 55.0652 63.1065ZM55.0723 62.0767C54.188 62.0767 53.7548 61.2884 53.7548 60.2905C53.7548 59.2926 54.188 58.4936 55.0723 58.4936C55.9423 58.4936 56.3755 59.2926 56.3755 60.2905C56.3755 61.2884 55.9423 62.0767 55.0723 62.0767ZM62.2464 60.706C62.2464 61.5369 61.6534 61.9489 61.0852 61.9489C60.4673 61.9489 60.0554 61.5121 60.0554 60.8196V57.5455H58.7699V61.0185C58.7699 62.3288 59.5156 63.071 60.5881 63.071C61.4048 63.071 61.9801 62.6413 62.2287 62.0305H62.2855V63H63.532V57.5455H62.2464V60.706ZM64.8539 63H66.1394V59.7933C66.1394 59.1009 66.6614 58.6108 67.3681 58.6108C67.5847 58.6108 67.8546 58.6499 67.9647 58.6854V57.5028C67.8475 57.4815 67.6451 57.4673 67.503 57.4673C66.878 57.4673 66.356 57.8224 66.1571 58.4545H66.1003V57.5455H64.8539V63ZM72.8688 63.1101C73.7246 63.1101 74.236 62.7088 74.4703 62.2507H74.513V63H75.7488V59.3494C75.7488 57.9077 74.5733 57.4744 73.5328 57.4744C72.3858 57.4744 71.5051 57.9858 71.2211 58.9801L72.4213 59.1506C72.5492 58.7777 72.9114 58.4581 73.54 58.4581C74.1365 58.4581 74.4632 58.7635 74.4632 59.2997V59.321C74.4632 59.6903 74.0762 59.7081 73.1138 59.8111C72.0556 59.9247 71.0435 60.2408 71.0435 61.4695C71.0435 62.5419 71.8283 63.1101 72.8688 63.1101ZM73.2026 62.1655C72.6664 62.1655 72.2828 61.9205 72.2828 61.4482C72.2828 60.9545 72.7125 60.7486 73.2878 60.6669C73.6252 60.6207 74.2999 60.5355 74.4668 60.4006V61.0433C74.4668 61.6506 73.9767 62.1655 73.2026 62.1655ZM78.1671 63H79.5094L80.5321 59.3139H80.6067L81.6294 63H82.9682L84.513 57.5455H83.199L82.2544 61.3594H82.2012L81.2211 57.5455H79.9249L78.9448 61.3807H78.8951L77.9363 57.5455H76.6259L78.1671 63ZM87.6788 63.1065C88.9501 63.1065 89.8237 62.4851 90.051 61.5369L88.8507 61.402C88.6767 61.8636 88.2505 62.1051 87.6966 62.1051C86.8656 62.1051 86.3152 61.5582 86.3045 60.6243H90.1042V60.2301C90.1042 58.3161 88.9537 57.4744 87.6113 57.4744C86.0488 57.4744 85.0297 58.6214 85.0297 60.3047C85.0297 62.0163 86.0346 63.1065 87.6788 63.1065ZM86.3081 59.7578C86.3471 59.0618 86.862 58.4759 87.6291 58.4759C88.3677 58.4759 88.8649 59.0156 88.872 59.7578H86.3081ZM95.5028 58.9872C95.3253 58.0639 94.5866 57.4744 93.3082 57.4744C91.9943 57.4744 91.0994 58.1207 91.103 59.1293C91.0994 59.9247 91.5895 60.4503 92.6371 60.6669L93.5675 60.8622C94.0682 60.9723 94.3026 61.1747 94.3026 61.4837C94.3026 61.8565 93.8977 62.1371 93.2869 62.1371C92.6974 62.1371 92.3139 61.8814 92.2038 61.3913L90.9503 61.5121C91.1101 62.5135 91.9517 63.1065 93.2905 63.1065C94.6541 63.1065 95.6165 62.3999 95.62 61.3665C95.6165 60.5888 95.1158 60.1129 94.0859 59.8892L93.1555 59.6903C92.6016 59.5661 92.3814 59.3743 92.3849 59.0582C92.3814 58.6889 92.7898 58.4332 93.326 58.4332C93.919 58.4332 94.2315 58.7564 94.331 59.1151L95.5028 58.9872ZM99.0593 63.1065C100.657 63.1065 101.673 61.9808 101.673 60.294C101.673 58.6037 100.657 57.4744 99.0593 57.4744C97.4613 57.4744 96.4457 58.6037 96.4457 60.294C96.4457 61.9808 97.4613 63.1065 99.0593 63.1065ZM99.0664 62.0767C98.1822 62.0767 97.7489 61.2884 97.7489 60.2905C97.7489 59.2926 98.1822 58.4936 99.0664 58.4936C99.9364 58.4936 100.37 59.2926 100.37 60.2905C100.37 61.2884 99.9364 62.0767 99.0664 62.0767ZM102.764 63H104.05V59.6832C104.05 59.0121 104.497 58.5575 105.051 58.5575C105.594 58.5575 105.967 58.9233 105.967 59.4844V63H107.228V59.598C107.228 58.9837 107.594 58.5575 108.215 58.5575C108.733 58.5575 109.145 58.8629 109.145 59.5376V63H110.434V59.3388C110.434 58.1207 109.731 57.4744 108.73 57.4744C107.938 57.4744 107.334 57.8651 107.093 58.4723H107.036C106.827 57.8544 106.297 57.4744 105.562 57.4744C104.831 57.4744 104.284 57.8509 104.057 58.4723H103.993V57.5455H102.764V63ZM114.153 63.1065C115.425 63.1065 116.298 62.4851 116.526 61.5369L115.325 61.402C115.151 61.8636 114.725 62.1051 114.171 62.1051C113.34 62.1051 112.79 61.5582 112.779 60.6243H116.579V60.2301C116.579 58.3161 115.428 57.4744 114.086 57.4744C112.523 57.4744 111.504 58.6214 111.504 60.3047C111.504 62.0163 112.509 63.1065 114.153 63.1065ZM112.783 59.7578C112.822 59.0618 113.337 58.4759 114.104 58.4759C114.842 58.4759 115.339 59.0156 115.347 59.7578H112.783ZM47.946 67.7273H46.6605V75H47.946V67.7273ZM50.8375 75.1101C51.6934 75.1101 52.2047 74.7088 52.4391 74.2507H52.4817V75H53.7175V71.3494C53.7175 69.9077 52.5421 69.4744 51.5016 69.4744C50.3546 69.4744 49.4739 69.9858 49.1898 70.9801L50.3901 71.1506C50.5179 70.7777 50.8801 70.4581 51.5087 70.4581C52.1053 70.4581 52.432 70.7635 52.432 71.2997V71.321C52.432 71.6903 52.0449 71.7081 51.0826 71.8111C50.0243 71.9247 49.0123 72.2408 49.0123 73.4695C49.0123 74.5419 49.7971 75.1101 50.8375 75.1101ZM51.1713 74.1655C50.6351 74.1655 50.2516 73.9205 50.2516 73.4482C50.2516 72.9545 50.6813 72.7486 51.2566 72.6669C51.5939 72.6207 52.2686 72.5355 52.4355 72.4006V73.0433C52.4355 73.6506 51.9455 74.1655 51.1713 74.1655ZM56.2956 71.804C56.2956 71.0156 56.7715 70.5611 57.4498 70.5611C58.1138 70.5611 58.5115 70.9979 58.5115 71.7259V75H59.7971V71.527C59.8006 70.2202 59.0549 69.4744 57.9292 69.4744C57.1124 69.4744 56.5513 69.8651 56.3027 70.4723H56.2388V69.5455H55.0101V75H56.2956V71.804ZM63.128 75.0959C64.0655 75.0959 64.4881 74.5384 64.6905 74.1406H64.7686V75H66.0328V67.7273H64.7438V70.4474H64.6905C64.4952 70.0533 64.0939 69.4744 63.1316 69.4744C61.8709 69.4744 60.8801 70.4616 60.8801 72.2798C60.8801 74.0767 61.8425 75.0959 63.128 75.0959ZM63.4867 74.0412C62.638 74.0412 62.1905 73.2955 62.1905 72.2727C62.1905 71.2571 62.6309 70.5291 63.4867 70.5291C64.3141 70.5291 64.7686 71.2145 64.7686 72.2727C64.7686 73.331 64.307 74.0412 63.4867 74.0412ZM67.4027 75H68.6882V69.5455H67.4027V75ZM68.049 68.7713C68.4574 68.7713 68.7912 68.4588 68.7912 68.0753C68.7912 67.6882 68.4574 67.3757 68.049 67.3757C67.6371 67.3757 67.3033 67.6882 67.3033 68.0753C67.3033 68.4588 67.6371 68.7713 68.049 68.7713ZM71.2956 71.804C71.2956 71.0156 71.7715 70.5611 72.4498 70.5611C73.1138 70.5611 73.5115 70.9979 73.5115 71.7259V75H74.7971V71.527C74.8006 70.2202 74.0549 69.4744 72.9292 69.4744C72.1124 69.4744 71.5513 69.8651 71.3027 70.4723H71.2388V69.5455H70.0101V75H71.2956V71.804ZM78.476 77.1591C79.9498 77.1591 81.0364 76.4844 81.0364 75.0888V69.5455H79.7686V70.4474H79.6976C79.5023 70.0533 79.0939 69.4744 78.1316 69.4744C76.8709 69.4744 75.8801 70.4616 75.8801 72.255C75.8801 74.0341 76.8709 74.9219 78.128 74.9219C79.062 74.9219 79.4988 74.4212 79.6976 74.0199H79.7615V75.0533C79.7615 75.8558 79.2289 76.1861 78.4973 76.1861C77.7232 76.1861 77.3823 75.8203 77.226 75.5007L76.0684 75.7812C76.3027 76.5447 77.0875 77.1591 78.476 77.1591ZM78.4867 73.9134C77.638 73.9134 77.1905 73.2528 77.1905 72.2479C77.1905 71.2571 77.6309 70.5291 78.4867 70.5291C79.3141 70.5291 79.7686 71.2145 79.7686 72.2479C79.7686 73.2884 79.307 73.9134 78.4867 73.9134ZM85.6262 75.0781C86.0453 75.0781 86.4039 74.7301 86.4075 74.2969C86.4039 73.8707 86.0453 73.5227 85.6262 73.5227C85.193 73.5227 84.8414 73.8707 84.845 74.2969C84.8414 74.7301 85.193 75.0781 85.6262 75.0781ZM88.5266 75.0781C88.9457 75.0781 89.3043 74.7301 89.3079 74.2969C89.3043 73.8707 88.9457 73.5227 88.5266 73.5227C88.0934 73.5227 87.7418 73.8707 87.7454 74.2969C87.7418 74.7301 88.0934 75.0781 88.5266 75.0781ZM91.427 75.0781C91.8461 75.0781 92.2047 74.7301 92.2083 74.2969C92.2047 73.8707 91.8461 73.5227 91.427 73.5227C90.9938 73.5227 90.6422 73.8707 90.6458 74.2969C90.6422 74.7301 90.9938 75.0781 91.427 75.0781Z" fill="#505780"/>
<g clip-path="url(#clip1)">
<path d="M152 53C152 51.8954 152.895 51 154 51H241C244.314 51 247 53.6863 247 57V124C247 127.314 244.314 130 241 130H154C152.895 130 152 129.105 152 128V53Z" fill="#D2D9E4"/>
<ellipse cx="216.5" cy="118" rx="74" ry="73.5" transform="rotate(-90 216.5 118)" fill="#E5EAF1"/>
</g>
<line x1="30" y1="40.5" x2="263" y2="40.5" stroke="#EBEEF2"/>
<circle cx="42" cy="31" r="6" fill="#EFF1F5"/>
</g>
<defs>
<filter id="filter0_dd" x="12" y="7" width="269" height="180" filterUnits="userSpaceOnUse" color-interpolation-filters="sRGB">
<feFlood flood-opacity="0" result="BackgroundImageFix"/>
<feColorMatrix in="SourceAlpha" type="matrix" values="0 0 0 0 0 0 0 0 0 0 0 0 0 0 0 0 0 0 127 0" result="hardAlpha"/>
<feMorphology radius="2" operator="erode" in="SourceAlpha" result="effect1_dropShadow"/>
<feOffset dy="4"/>
<feGaussianBlur stdDeviation="10"/>
<feColorMatrix type="matrix" values="0 0 0 0 0.196078 0 0 0 0 0.196078 0 0 0 0 0.278431 0 0 0 0.08 0"/>
<feBlend mode="normal" in2="BackgroundImageFix" result="effect1_dropShadow"/>
<feColorMatrix in="SourceAlpha" type="matrix" values="0 0 0 0 0 0 0 0 0 0 0 0 0 0 0 0 0 0 127 0" result="hardAlpha"/>
<feOffset/>
<feGaussianBlur stdDeviation="0.5"/>
<feColorMatrix type="matrix" values="0 0 0 0 0.0470588 0 0 0 0 0.101961 0 0 0 0 0.294118 0 0 0 0.1 0"/>
<feBlend mode="normal" in2="effect1_dropShadow" result="effect2_dropShadow"/>
<feBlend mode="normal" in="SourceGraphic" in2="effect2_dropShadow" result="shape"/>
</filter>
<clipPath id="clip0">
<rect width="293" height="186" fill="white"/>
</clipPath>
<clipPath id="clip1">
<path d="M152 53C152 51.8954 152.895 51 154 51H241C244.314 51 247 53.6863 247 57V124C247 127.314 244.314 130 241 130H154C152.895 130 152 129.105 152 128V53Z" fill="white"/>
</clipPath>
</defs>
</svg>
