<svg width="293" height="186" viewBox="0 0 293 186" fill="none" xmlns="http://www.w3.org/2000/svg">
<g filter="url(#filter0_dd)">
<rect x="85" y="21" width="124" height="143" rx="7" fill="white"/>
</g>
<path d="M95.7173 40H97.0348V36.9105H100.057V35.8061H97.0348V33.8317H100.376V32.7273H95.7173V40ZM101.52 40H102.805V34.5455H101.52V40ZM102.166 33.7713C102.575 33.7713 102.908 33.4588 102.908 33.0753C102.908 32.6882 102.575 32.3757 102.166 32.3757C101.754 32.3757 101.42 32.6882 101.42 33.0753C101.42 33.4588 101.754 33.7713 102.166 33.7713ZM105.413 32.7273H104.127V40H105.413V32.7273ZM109.15 40.1065C110.421 40.1065 111.294 39.4851 111.522 38.5369L110.321 38.402C110.147 38.8636 109.721 39.1051 109.167 39.1051C108.336 39.1051 107.786 38.5582 107.775 37.6243H111.575V37.2301C111.575 35.3161 110.424 34.4744 109.082 34.4744C107.52 34.4744 106.5 35.6214 106.5 37.3047C106.5 39.0163 107.505 40.1065 109.15 40.1065ZM107.779 36.7578C107.818 36.0618 108.333 35.4759 109.1 35.4759C109.838 35.4759 110.336 36.0156 110.343 36.7578H107.779ZM116.974 35.9872C116.796 35.0639 116.057 34.4744 114.779 34.4744C113.465 34.4744 112.57 35.1207 112.574 36.1293C112.57 36.9247 113.06 37.4503 114.108 37.6669L115.038 37.8622C115.539 37.9723 115.773 38.1747 115.773 38.4837C115.773 38.8565 115.368 39.1371 114.758 39.1371C114.168 39.1371 113.785 38.8814 113.675 38.3913L112.421 38.5121C112.581 39.5135 113.422 40.1065 114.761 40.1065C116.125 40.1065 117.087 39.3999 117.091 38.3665C117.087 37.5888 116.586 37.1129 115.557 36.8892L114.626 36.6903C114.072 36.5661 113.852 36.3743 113.856 36.0582C113.852 35.6889 114.26 35.4332 114.797 35.4332C115.39 35.4332 115.702 35.7564 115.802 36.1151L116.974 35.9872Z" fill="#505780"/>
<rect x="95" y="52" width="73" height="4" rx="2" fill="#EFF1F5"/>
<rect x="95" y="62" width="96" height="4" rx="2" fill="#EFF1F5"/>
<rect x="122" y="85" width="30" height="4" rx="2" fill="#EFF1F5"/>
<rect x="122" y="110" width="30" height="4" rx="2" fill="#EFF1F5"/>
<rect x="122" y="137" width="30" height="4" rx="2" fill="#EFF1F5"/>
<rect x="95" y="77" width="20" height="20" rx="10" fill="#EFF1F5"/>
<rect x="95" y="103" width="20" height="20" rx="10" fill="#EFF1F5"/>
<rect opacity="0.5" x="95" y="129" width="20" height="20" rx="10" fill="#EFF1F5"/>
<path fill-rule="evenodd" clip-rule="evenodd" d="M103 135H107C107.552 135 108 135.448 108 136V142C108 142.552 107.552 143 107 143H103C102.448 143 102 142.552 102 142V136C102 135.448 102.448 135 103 135ZM103 135.5C102.724 135.5 102.5 135.724 102.5 136V142C102.5 142.276 102.724 142.5 103 142.5H107C107.276 142.5 107.5 142.276 107.5 142V136C107.5 135.724 107.276 135.5 107 135.5H103Z" fill="#5C60F5"/>
<path fill-rule="evenodd" clip-rule="evenodd" d="M103.25 140.25C103.25 140.112 103.362 140 103.5 140H105C105.138 140 105.25 140.112 105.25 140.25C105.25 140.388 105.138 140.5 105 140.5H103.5C103.362 140.5 103.25 140.388 103.25 140.25Z" fill="#5C60F5"/>
<path fill-rule="evenodd" clip-rule="evenodd" d="M103.25 139.25C103.25 139.112 103.362 139 103.5 139H106.5C106.638 139 106.75 139.112 106.75 139.25C106.75 139.388 106.638 139.5 106.5 139.5H103.5C103.362 139.5 103.25 139.388 103.25 139.25Z" fill="#5C60F5"/>
<path fill-rule="evenodd" clip-rule="evenodd" d="M103.25 138.25C103.25 138.112 103.362 138 103.5 138H106.5C106.638 138 106.75 138.112 106.75 138.25C106.75 138.388 106.638 138.5 106.5 138.5H103.5C103.362 138.5 103.25 138.388 103.25 138.25Z" fill="#5C60F5"/>
<path fill-rule="evenodd" clip-rule="evenodd" d="M103.25 137.25C103.25 137.112 103.362 137 103.5 137H106.5C106.638 137 106.75 137.112 106.75 137.25C106.75 137.388 106.638 137.5 106.5 137.5H103.5C103.362 137.5 103.25 137.388 103.25 137.25Z" fill="#5C60F5"/>
<path fill-rule="evenodd" clip-rule="evenodd" d="M103 83H107C107.552 83 108 83.4477 108 84V90C108 90.5523 107.552 91 107 91H103C102.448 91 102 90.5523 102 90V84C102 83.4477 102.448 83 103 83ZM103 83.5C102.724 83.5 102.5 83.7239 102.5 84V90C102.5 90.2761 102.724 90.5 103 90.5H107C107.276 90.5 107.5 90.2761 107.5 90V84C107.5 83.7239 107.276 83.5 107 83.5H103Z" fill="#5C60F5"/>
<path fill-rule="evenodd" clip-rule="evenodd" d="M106.152 84.5647C106.461 84.5028 106.75 84.7394 106.75 85.0549V85.9549L105.5 86.2049V88.75C105.5 88.9977 105.349 89.1913 105.169 89.3116C104.987 89.433 104.75 89.5 104.5 89.5C104.25 89.5 104.013 89.433 103.831 89.3116C103.651 89.1913 103.5 88.9977 103.5 88.75C103.5 88.5023 103.651 88.3087 103.831 88.1884C104.013 88.067 104.25 88 104.5 88C104.678 88 104.85 88.0341 105 88.0978V85.2049C105 84.9666 105.168 84.7614 105.402 84.7147L106.152 84.5647Z" fill="#5C60F5"/>
<path fill-rule="evenodd" clip-rule="evenodd" d="M108.001 110H102.001C101.725 110 101.501 110.224 101.501 110.5V115L102.824 113.823C102.908 113.739 103.04 113.726 103.139 113.792L104.469 114.678L106.324 112.823C106.4 112.747 106.516 112.728 106.613 112.776L108.501 113.75V110.5C108.501 110.224 108.277 110 108.001 110ZM102.001 109.5C101.449 109.5 101.001 109.948 101.001 110.5V115.5C101.001 116.052 101.449 116.5 102.001 116.5H108.001C108.553 116.5 109.001 116.052 109.001 115.5V110.5C109.001 109.948 108.553 109.5 108.001 109.5H102.001ZM104.001 111.75C104.001 112.164 103.665 112.5 103.251 112.5C102.837 112.5 102.501 112.164 102.501 111.75C102.501 111.336 102.837 111 103.251 111C103.665 111 104.001 111.336 104.001 111.75Z" fill="#5C60F5"/>
<defs>
<filter id="filter0_dd" x="67" y="7" width="160" height="179" filterUnits="userSpaceOnUse" color-interpolation-filters="sRGB">
<feFlood flood-opacity="0" result="BackgroundImageFix"/>
<feColorMatrix in="SourceAlpha" type="matrix" values="0 0 0 0 0 0 0 0 0 0 0 0 0 0 0 0 0 0 127 0"/>
<feMorphology radius="2" operator="erode" in="SourceAlpha" result="effect1_dropShadow"/>
<feOffset dy="4"/>
<feGaussianBlur stdDeviation="10"/>
<feColorMatrix type="matrix" values="0 0 0 0 0.196078 0 0 0 0 0.196078 0 0 0 0 0.278431 0 0 0 0.08 0"/>
<feBlend mode="normal" in2="BackgroundImageFix" result="effect1_dropShadow"/>
<feColorMatrix in="SourceAlpha" type="matrix" values="0 0 0 0 0 0 0 0 0 0 0 0 0 0 0 0 0 0 127 0"/>
<feOffset/>
<feGaussianBlur stdDeviation="0.5"/>
<feColorMatrix type="matrix" values="0 0 0 0 0.0470588 0 0 0 0 0.101961 0 0 0 0 0.294118 0 0 0 0.1 0"/>
<feBlend mode="normal" in2="effect1_dropShadow" result="effect2_dropShadow"/>
<feBlend mode="normal" in="SourceGraphic" in2="effect2_dropShadow" result="shape"/>
</filter>
</defs>
</svg>
