<svg width="293" height="186" viewBox="0 0 293 186" fill="none" xmlns="http://www.w3.org/2000/svg">
<rect x="144" y="111" width="4" height="4" rx="2" fill="#EFF1F5"/>
<rect x="152" y="111" width="4" height="4" rx="2" fill="#EFF1F5"/>
<rect x="160" y="111" width="4" height="4" rx="2" fill="#EFF1F5"/>
<g filter="url(#filter0_dd)">
<rect x="85" y="21" width="124" height="143" rx="7" fill="white"/>
</g>
<path d="M100.746 60.8182H102.422L102.436 59.1776C105.511 58.9432 107.294 57.3097 107.301 54.8452C107.294 52.4233 105.469 51.1378 102.94 50.5696L102.521 50.4702L102.55 46.919C103.494 47.1392 104.07 47.7429 104.155 48.6378H107.102C107.067 46.2869 105.312 44.6037 102.578 44.3054L102.592 42.6364H100.916L100.902 44.2912C98.125 44.5611 96.1648 46.2372 96.179 48.6591C96.1719 50.804 97.6847 52.0327 100.142 52.6222L100.824 52.7926L100.788 56.5497C99.6307 56.3295 98.8494 55.6193 98.7713 54.4332H95.7955C95.8665 57.3026 97.7486 58.9077 100.76 59.1705L100.746 60.8182ZM102.464 56.5497L102.493 53.233C103.594 53.581 104.19 54.0284 104.197 54.8381C104.19 55.6974 103.537 56.3366 102.464 56.5497ZM100.845 50.0369C99.9574 49.7315 99.3182 49.2699 99.3324 48.4531C99.3324 47.6932 99.8722 47.1037 100.874 46.8977L100.845 50.0369ZM114.547 44.2557C111.294 44.2415 109.1 46.3722 109.114 49.2983C109.121 52.0114 111.003 53.9787 113.581 53.9787C115.179 53.9787 116.6 53.2045 117.246 51.9261H117.346C117.338 54.8097 116.337 56.5639 114.441 56.5639C113.326 56.5639 112.523 55.9531 112.289 54.8949H109.256C109.54 57.3452 111.529 59.1989 114.441 59.1989C118.042 59.1989 120.364 56.2869 120.357 51.3509C120.35 46.081 117.537 44.2699 114.547 44.2557ZM114.569 46.6705C115.982 46.6705 117.026 47.821 117.04 49.206C117.047 50.598 115.946 51.7486 114.54 51.7486C113.12 51.7486 112.104 50.6406 112.097 49.2131C112.083 47.7926 113.141 46.6705 114.569 46.6705ZM127.75 44.2557C124.498 44.2415 122.303 46.3722 122.317 49.2983C122.324 52.0114 124.206 53.9787 126.784 53.9787C128.382 53.9787 129.803 53.2045 130.449 51.9261H130.549C130.542 54.8097 129.54 56.5639 127.644 56.5639C126.529 56.5639 125.726 55.9531 125.492 54.8949H122.459C122.743 57.3452 124.732 59.1989 127.644 59.1989C131.245 59.1989 133.567 56.2869 133.56 51.3509C133.553 46.081 130.74 44.2699 127.75 44.2557ZM127.772 46.6705C129.185 46.6705 130.229 47.821 130.243 49.206C130.25 50.598 129.15 51.7486 127.743 51.7486C126.323 51.7486 125.307 50.6406 125.3 49.2131C125.286 47.7926 126.344 46.6705 127.772 46.6705Z" fill="#505780"/>
<rect x="95" y="72" width="73" height="4" rx="2" fill="#EFF1F5"/>
<rect x="95" y="82" width="96" height="4" rx="2" fill="#EFF1F5"/>
<rect x="113" y="103" width="30" height="4" rx="2" fill="#EFF1F5"/>
<rect x="95" y="100" width="10" height="10" rx="5" fill="#EFF1F5"/>
<rect x="113" y="119" width="30" height="4" rx="2" fill="#EFF1F5"/>
<rect x="95" y="116" width="10" height="10" rx="5" fill="#EFF1F5"/>
<rect x="113" y="135" width="30" height="4" rx="2" fill="#EFF1F5"/>
<rect x="95" y="132" width="10" height="10" rx="5" fill="#EFF1F5"/>
<defs>
<filter id="filter0_dd" x="67" y="7" width="160" height="179" filterUnits="userSpaceOnUse" color-interpolation-filters="sRGB">
<feFlood flood-opacity="0" result="BackgroundImageFix"/>
<feColorMatrix in="SourceAlpha" type="matrix" values="0 0 0 0 0 0 0 0 0 0 0 0 0 0 0 0 0 0 127 0" result="hardAlpha"/>
<feMorphology radius="2" operator="erode" in="SourceAlpha" result="effect1_dropShadow"/>
<feOffset dy="4"/>
<feGaussianBlur stdDeviation="10"/>
<feColorMatrix type="matrix" values="0 0 0 0 0.196078 0 0 0 0 0.196078 0 0 0 0 0.278431 0 0 0 0.08 0"/>
<feBlend mode="normal" in2="BackgroundImageFix" result="effect1_dropShadow"/>
<feColorMatrix in="SourceAlpha" type="matrix" values="0 0 0 0 0 0 0 0 0 0 0 0 0 0 0 0 0 0 127 0" result="hardAlpha"/>
<feOffset/>
<feGaussianBlur stdDeviation="0.5"/>
<feColorMatrix type="matrix" values="0 0 0 0 0.0470588 0 0 0 0 0.101961 0 0 0 0 0.294118 0 0 0 0.1 0"/>
<feBlend mode="normal" in2="effect1_dropShadow" result="effect2_dropShadow"/>
<feBlend mode="normal" in="SourceGraphic" in2="effect2_dropShadow" result="shape"/>
</filter>
</defs>
</svg>
