<svg width="293" height="186" viewBox="0 0 293 186" fill="none" xmlns="http://www.w3.org/2000/svg">
<g filter="url(#filter0_dd)">
<rect x="85" y="21" width="124" height="143" rx="7" fill="white"/>
</g>
<rect x="125" y="128" width="42" height="5" rx="2.5" fill="#EFF1F5"/>
<rect x="134" y="138" width="25" height="3" rx="1.5" fill="#EFF1F5"/>
<circle cx="185" cy="31" r="2" fill="#EFF1F5"/>
<circle cx="192" cy="31" r="2" fill="#EFF1F5"/>
<circle cx="199" cy="31" r="2" fill="#EFF1F5"/>
<rect x="127" y="73" width="8" height="14" rx="4" fill="#5C60F5"/>
<rect x="143" y="65" width="8" height="22" rx="4" fill="#5C60F5"/>
<rect x="160" y="54" width="8" height="33" rx="4" fill="#5C60F5"/>
<path d="M129.119 111.369H130.68V108.71H133.34V107.148H130.68V104.489H129.119V107.148H126.459V108.71H129.119V111.369ZM139.657 102.818H137.903L135.372 104.444V106.134L137.753 104.613H137.813V113H139.657V102.818ZM142.243 113H149.223V111.459H144.788V111.389L146.543 109.604C148.522 107.705 149.069 106.781 149.069 105.632C149.069 103.927 147.682 102.679 145.633 102.679C143.615 102.679 142.183 103.932 142.183 105.866H143.938C143.938 104.827 144.594 104.175 145.608 104.175C146.578 104.175 147.299 104.767 147.299 105.727C147.299 106.577 146.782 107.183 145.778 108.202L142.243 111.668V113ZM154.702 113.194C157.157 113.199 158.624 111.26 158.624 107.919C158.624 104.598 157.148 102.679 154.702 102.679C152.256 102.679 150.784 104.593 150.779 107.919C150.779 111.255 152.246 113.194 154.702 113.194ZM154.702 111.638C153.434 111.638 152.638 110.365 152.643 107.919C152.648 105.493 153.439 104.215 154.702 104.215C155.969 104.215 156.76 105.493 156.765 107.919C156.765 110.365 155.974 111.638 154.702 111.638ZM163.906 111.636C163.909 112.482 164.446 113.202 165.444 113.202C166.438 113.202 166.985 112.482 166.981 111.636V111.253C166.985 110.401 166.452 109.687 165.444 109.687C164.46 109.687 163.909 110.408 163.906 111.253V111.636ZM160.209 107.474C160.213 108.32 160.749 109.033 161.75 109.033C162.741 109.033 163.288 108.327 163.284 107.474V107.091C163.288 106.239 162.755 105.525 161.75 105.525C160.77 105.525 160.213 106.239 160.209 107.091V107.474ZM160.529 113H161.42L166.42 105.727H165.529L160.529 113ZM164.833 111.253C164.836 110.876 164.996 110.496 165.444 110.496C165.912 110.496 166.051 110.876 166.047 111.253V111.636C166.051 112.013 165.898 112.386 165.444 112.386C164.989 112.386 164.836 112.009 164.833 111.636V111.253ZM161.143 107.091C161.147 106.718 161.299 106.335 161.75 106.335C162.219 106.335 162.354 106.714 162.35 107.091V107.474C162.354 107.851 162.205 108.224 161.75 108.224C161.296 108.224 161.147 107.851 161.143 107.474V107.091Z" fill="#505780"/>
<defs>
<filter id="filter0_dd" x="67" y="7" width="160" height="179" filterUnits="userSpaceOnUse" color-interpolation-filters="sRGB">
<feFlood flood-opacity="0" result="BackgroundImageFix"/>
<feColorMatrix in="SourceAlpha" type="matrix" values="0 0 0 0 0 0 0 0 0 0 0 0 0 0 0 0 0 0 127 0"/>
<feMorphology radius="2" operator="erode" in="SourceAlpha" result="effect1_dropShadow"/>
<feOffset dy="4"/>
<feGaussianBlur stdDeviation="10"/>
<feColorMatrix type="matrix" values="0 0 0 0 0.196078 0 0 0 0 0.196078 0 0 0 0 0.278431 0 0 0 0.08 0"/>
<feBlend mode="normal" in2="BackgroundImageFix" result="effect1_dropShadow"/>
<feColorMatrix in="SourceAlpha" type="matrix" values="0 0 0 0 0 0 0 0 0 0 0 0 0 0 0 0 0 0 127 0"/>
<feOffset/>
<feGaussianBlur stdDeviation="0.5"/>
<feColorMatrix type="matrix" values="0 0 0 0 0.0470588 0 0 0 0 0.101961 0 0 0 0 0.294118 0 0 0 0.1 0"/>
<feBlend mode="normal" in2="effect1_dropShadow" result="effect2_dropShadow"/>
<feBlend mode="normal" in="SourceGraphic" in2="effect2_dropShadow" result="shape"/>
</filter>
</defs>
</svg>
