<svg width="715" height="670" viewBox="0 0 715 670" fill="none" xmlns="http://www.w3.org/2000/svg">
<g clip-path="url(#clip0_1542_5430)">
<path d="M20 40C20 33.3726 25.3726 28 32 28H354C360.627 28 366 33.3726 366 40V134C366 140.627 360.627 146 354 146H32C25.3726 146 20 140.627 20 134V40Z" fill="white"/>
<rect x="44" y="64" width="46" height="46" rx="8" fill="#FFEEF1"/>
<mask id="mask0_1542_5430" style="mask-type:alpha" maskUnits="userSpaceOnUse" x="58" y="78" width="18" height="18">
<path fill-rule="evenodd" clip-rule="evenodd" d="M62.5 90.375H60.25V93.75H62.5V90.375ZM68.125 85.875H65.875V93.75H68.125V85.875ZM73.75 80.25L71.5 80.25V93.75H73.75V80.25ZM71.5 79.125C70.8787 79.125 70.375 79.6287 70.375 80.25V93.75C70.375 94.3713 70.8787 94.875 71.5 94.875H73.75C74.3713 94.875 74.875 94.3713 74.875 93.75V80.25C74.875 79.6287 74.3713 79.125 73.75 79.125H71.5ZM64.75 85.875C64.75 85.2537 65.2537 84.75 65.875 84.75H68.125C68.7463 84.75 69.25 85.2537 69.25 85.875V93.75C69.25 94.3713 68.7463 94.875 68.125 94.875H65.875C65.2537 94.875 64.75 94.3713 64.75 93.75V85.875ZM59.125 90.375C59.125 89.7537 59.6287 89.25 60.25 89.25H62.5C63.1213 89.25 63.625 89.7537 63.625 90.375V93.75C63.625 94.3713 63.1213 94.875 62.5 94.875H60.25C59.6287 94.875 59.125 94.3713 59.125 93.75V90.375Z" fill="black"/>
</mask>
<g mask="url(#mask0_1542_5430)">
<rect x="58" y="78" width="18" height="18" fill="#FF92AE"/>
</g>
<path d="M106.528 70.4062H109.247V78H110.56V70.4062H113.283V69.2727H106.528V70.4062ZM114.673 78H115.947V71.4545H114.673V78ZM115.316 70.4446C115.755 70.4446 116.122 70.1037 116.122 69.6861C116.122 69.2685 115.755 68.9233 115.316 68.9233C114.873 68.9233 114.511 69.2685 114.511 69.6861C114.511 70.1037 114.873 70.4446 115.316 70.4446ZM120.717 71.4545H119.374V69.8864H118.1V71.4545H117.141V72.4773H118.1V76.3423C118.096 77.5312 119.004 78.1065 120.009 78.0852C120.414 78.081 120.687 78.0043 120.836 77.9489L120.606 76.8963C120.521 76.9134 120.363 76.9517 120.158 76.9517C119.745 76.9517 119.374 76.8153 119.374 76.0781V72.4773H120.717V71.4545ZM123.541 69.2727H122.267V78H123.541V69.2727ZM128.076 78.1321C129.504 78.1321 130.513 77.429 130.803 76.3636L129.597 76.1463C129.367 76.7642 128.813 77.0795 128.089 77.0795C126.998 77.0795 126.265 76.3722 126.231 75.1108H130.884V74.6591C130.884 72.294 129.469 71.3693 127.987 71.3693C126.163 71.3693 124.961 72.7585 124.961 74.7699C124.961 76.8026 126.146 78.1321 128.076 78.1321ZM126.235 74.1562C126.286 73.2273 126.96 72.4219 127.995 72.4219C128.984 72.4219 129.631 73.1548 129.636 74.1562H126.235Z" fill="#718096"/>
<path d="M107.293 102H117.264V99.7983H110.929V99.6989L113.436 97.1491C116.263 94.4361 117.044 93.1151 117.044 91.4744C117.044 89.0384 115.062 87.2557 112.136 87.2557C109.253 87.2557 107.207 89.0455 107.207 91.8082H109.714C109.714 90.3239 110.652 89.3935 112.101 89.3935C113.486 89.3935 114.516 90.2386 114.516 91.6094C114.516 92.8239 113.777 93.6903 112.342 95.1463L107.293 100.097V102ZM121.327 102.156C122.165 102.156 122.882 101.46 122.889 100.594C122.882 99.7415 122.165 99.0455 121.327 99.0455C120.46 99.0455 119.757 99.7415 119.764 100.594C119.757 101.46 120.46 102.156 121.327 102.156ZM130.247 102.199C133.358 102.199 135.624 100.416 135.616 97.9588C135.624 96.1406 134.487 94.8338 132.449 94.5426V94.429C134.026 94.0881 135.084 92.9162 135.077 91.2827C135.084 89.0668 133.195 87.2557 130.29 87.2557C127.463 87.2557 125.276 88.9389 125.219 91.375H127.754C127.797 90.1534 128.933 89.3935 130.276 89.3935C131.632 89.3935 132.534 90.2173 132.527 91.4389C132.534 92.7102 131.483 93.5554 129.977 93.5554H128.692V95.5866H129.977C131.817 95.5866 132.911 96.5099 132.903 97.8239C132.911 99.1094 131.795 99.9901 130.24 99.9901C128.777 99.9901 127.648 99.2301 127.584 98.044H124.913C124.984 100.501 127.179 102.199 130.247 102.199ZM143.431 102.277C146.939 102.284 149.034 99.5142 149.034 94.7415C149.034 89.9972 146.925 87.2557 143.431 87.2557C139.936 87.2557 137.834 89.9901 137.827 94.7415C137.827 99.5071 139.922 102.277 143.431 102.277ZM143.431 100.054C141.62 100.054 140.483 98.2358 140.49 94.7415C140.498 91.2756 141.627 89.4503 143.431 89.4503C145.242 89.4503 146.371 91.2756 146.378 94.7415C146.378 98.2358 145.249 100.054 143.431 100.054ZM156.771 102.277C160.279 102.284 162.374 99.5142 162.374 94.7415C162.374 89.9972 160.265 87.2557 156.771 87.2557C153.276 87.2557 151.174 89.9901 151.167 94.7415C151.167 99.5071 153.262 102.277 156.771 102.277ZM156.771 100.054C154.96 100.054 153.823 98.2358 153.83 94.7415C153.837 91.2756 154.967 89.4503 156.771 89.4503C158.582 89.4503 159.711 91.2756 159.718 94.7415C159.718 98.2358 158.589 100.054 156.771 100.054Z" fill="#16192C"/>
<path d="M173.125 94.6364C173.125 96.7543 173.683 98.5142 174.847 100.031H176.581C175.69 98.9062 175.013 96.6562 175.013 94.6364C175.013 92.6207 175.69 90.3707 176.581 89.2457H174.847C173.683 90.7628 173.125 92.5185 173.125 94.6364ZM180.225 97.6705H181.751V95.4162H184.005V93.8906H181.751V91.6364H180.225V93.8906H177.971V95.4162H180.225V97.6705ZM188.961 99.1193C190.904 99.1193 192.225 97.8537 192.221 96.0895C192.225 94.419 191.058 93.2173 189.485 93.2173C188.718 93.2173 188.058 93.5369 187.751 93.9673H187.7L187.926 91.7812H191.74V90.2727H186.404L185.991 94.875L187.632 95.169C187.9 94.8068 188.42 94.581 188.936 94.581C189.814 94.5852 190.444 95.2202 190.444 96.1364C190.444 97.044 189.826 97.6705 188.961 97.6705C188.228 97.6705 187.636 97.2102 187.593 96.5327H185.804C185.838 98.0412 187.154 99.1193 188.961 99.1193ZM198.285 97.3636C198.289 98.4119 198.958 99.3026 200.207 99.3026C201.443 99.3026 202.133 98.4119 202.129 97.3636V96.9034C202.133 95.8466 201.46 94.9645 200.207 94.9645C198.975 94.9645 198.289 95.8551 198.285 96.9034V97.3636ZM193.806 92.3693C193.811 93.4176 194.48 94.2997 195.724 94.2997C196.964 94.2997 197.654 93.4261 197.65 92.3693V91.9091C197.654 90.8523 196.981 89.9702 195.724 89.9702C194.505 89.9702 193.811 90.8523 193.806 91.9091V92.3693ZM194.224 99H195.336L201.336 90.2727H200.224L194.224 99ZM199.525 96.9034C199.529 96.4858 199.696 96.0554 200.207 96.0554C200.744 96.0554 200.885 96.4858 200.88 96.9034V97.3636C200.885 97.7812 200.727 98.2031 200.207 98.2031C199.687 98.2031 199.529 97.7685 199.525 97.3636V96.9034ZM195.055 91.9091C195.059 91.5043 195.217 91.0611 195.724 91.0611C196.261 91.0611 196.406 91.4915 196.402 91.9091V92.3693C196.406 92.7869 196.244 93.2088 195.724 93.2088C195.221 93.2088 195.059 92.7869 195.055 92.3693V91.9091ZM206.897 94.6364C206.897 92.5185 206.339 90.7585 205.176 89.2415H203.441C204.332 90.3665 205.01 92.6165 205.01 94.6364C205.01 96.652 204.332 98.902 203.441 100.027H205.176C206.339 98.5099 206.897 96.7543 206.897 94.6364Z" fill="#66CB9F"/>
<path d="M491 552C491 545.373 496.373 540 503 540H682C688.627 540 694 545.373 694 552V626C694 632.627 688.627 638 682 638H503C496.373 638 491 632.627 491 626V552Z" fill="url(#paint0_linear_1542_5430)"/>
<circle opacity="0.7" cx="531" cy="589" r="24" fill="#505780"/>
<path fill-rule="evenodd" clip-rule="evenodd" d="M526 583.5C526 582.119 527.119 581 528.5 581C529.881 581 531 582.119 531 583.5C531 582.119 532.119 581 533.5 581C534.881 581 536 582.119 536 583.5L536 583.506C536 583.575 536 583.776 535.962 584H538C538.552 584 539 584.448 539 585V586C539 586.552 538.552 587 538 587H524C523.448 587 523 586.552 523 586V585C523 584.448 523.448 584 524 584H526.038C526 583.776 526 583.575 526 583.506L526 583.5ZM527.068 584H530V583.5C530 582.672 529.328 582 528.5 582C527.672 582 527 582.672 527 583.5C527 583.585 527.002 583.774 527.045 583.931C527.053 583.959 527.06 583.982 527.068 584ZM532 584H534.932C534.94 583.982 534.947 583.959 534.955 583.931C534.998 583.774 535 583.585 535 583.5C535 582.672 534.328 582 533.5 582C532.672 582 532 582.672 532 583.5V584Z" fill="white"/>
<path d="M538 588V595.5C538 596.328 537.328 597 536.5 597H532V588H538Z" fill="white"/>
<path d="M525.5 597C524.672 597 524 596.328 524 595.5V588H530V597H525.5Z" fill="white"/>
<path d="M572.979 571.5L573.913 568.805H577.891L578.82 571.5H580.451L576.787 561.318H575.012L571.348 571.5H572.979ZM574.361 567.513L575.862 563.168H575.942L577.443 567.513H574.361ZM583.289 566.966C583.289 565.748 584.034 565.052 585.068 565.052C586.078 565.052 586.689 565.713 586.689 566.822V571.5H588.176V566.643C588.176 564.754 587.137 563.764 585.575 563.764C584.427 563.764 583.676 564.296 583.323 565.107H583.229V563.864H581.802V571.5H583.289V566.966ZM596.733 571.649C598.125 571.649 598.672 570.799 598.94 570.312H599.065V571.5H600.516V563.864H599.03V565.102H598.94C598.672 564.629 598.165 563.764 596.743 563.764C594.898 563.764 593.541 565.221 593.541 567.697C593.541 570.168 594.879 571.649 596.733 571.649ZM597.061 570.381C595.734 570.381 595.043 569.213 595.043 567.682C595.043 566.165 595.719 565.027 597.061 565.027C598.359 565.027 599.055 566.086 599.055 567.682C599.055 569.288 598.344 570.381 597.061 570.381ZM602.638 561.318V569.72C602.638 570.928 603.259 571.575 604.547 571.555C604.945 571.55 605.263 571.485 605.472 571.42L605.203 570.232C605.099 570.262 604.994 570.297 604.736 570.302C604.259 570.317 604.124 570.068 604.124 569.412V561.318H602.638ZM609.744 571.654C611.409 571.654 612.587 570.834 612.925 569.591L611.518 569.337C611.25 570.058 610.604 570.426 609.759 570.426C608.486 570.426 607.631 569.601 607.591 568.129H613.02V567.602C613.02 564.843 611.369 563.764 609.639 563.764C607.511 563.764 606.109 565.385 606.109 567.732C606.109 570.103 607.491 571.654 609.744 571.654ZM607.596 567.016C607.656 565.932 608.441 564.992 609.649 564.992C610.803 564.992 611.558 565.847 611.563 567.016H607.596ZM614.669 571.5H616.156V566.837C616.156 565.842 616.926 565.121 617.955 565.121C618.244 565.121 618.468 565.181 618.646 565.271L619.124 564.028C618.87 563.859 618.542 563.749 618.124 563.749C617.22 563.749 616.464 564.256 616.186 565.077H616.106V563.864H614.669V571.5ZM624.236 563.864H622.67V562.034H621.183V563.864H620.065V565.057H621.183V569.566C621.178 570.953 622.237 571.624 623.411 571.599C623.883 571.594 624.201 571.505 624.375 571.44L624.107 570.212C624.007 570.232 623.823 570.277 623.585 570.277C623.102 570.277 622.67 570.118 622.67 569.258V565.057H624.236V563.864ZM571.999 594.5H573.486V589.792C573.486 588.763 574.207 588.047 575.052 588.047C575.877 588.047 576.449 588.594 576.449 589.424V594.5H577.93V589.633C577.93 588.713 578.492 588.047 579.462 588.047C580.247 588.047 580.893 588.484 580.893 589.518V594.5H582.38V589.379C582.38 587.634 581.406 586.764 580.023 586.764C578.925 586.764 578.099 587.291 577.732 588.107H577.652C577.319 587.271 576.618 586.764 575.599 586.764C574.589 586.764 573.839 587.266 573.521 588.107H573.426V586.864H571.999V594.5ZM587.664 594.654C589.329 594.654 590.507 593.834 590.845 592.591L589.438 592.337C589.17 593.058 588.524 593.426 587.678 593.426C586.406 593.426 585.551 592.601 585.511 591.129H590.94V590.602C590.94 587.843 589.289 586.764 587.559 586.764C585.431 586.764 584.029 588.385 584.029 590.732C584.029 593.103 585.411 594.654 587.664 594.654ZM585.516 590.016C585.575 588.932 586.361 587.992 587.569 587.992C588.722 587.992 589.478 588.847 589.483 590.016H585.516ZM598.311 588.728C598.003 587.54 597.074 586.764 595.423 586.764C593.698 586.764 592.475 587.674 592.475 589.026C592.475 590.11 593.131 590.831 594.563 591.149L595.855 591.433C596.591 591.597 596.934 591.925 596.934 592.402C596.934 592.994 596.303 593.456 595.328 593.456C594.439 593.456 593.867 593.073 593.688 592.322L592.251 592.541C592.5 593.893 593.623 594.654 595.338 594.654C597.183 594.654 598.461 593.675 598.461 592.293C598.461 591.214 597.775 590.548 596.373 590.224L595.159 589.946C594.319 589.747 593.956 589.464 593.961 588.947C593.956 588.36 594.593 587.942 595.438 587.942C596.363 587.942 596.79 588.455 596.964 588.967L598.311 588.728ZM605.817 588.728C605.509 587.54 604.579 586.764 602.929 586.764C601.204 586.764 599.981 587.674 599.981 589.026C599.981 590.11 600.637 590.831 602.069 591.149L603.361 591.433C604.097 591.597 604.44 591.925 604.44 592.402C604.44 592.994 603.809 593.456 602.834 593.456C601.944 593.456 601.373 593.073 601.194 592.322L599.757 592.541C600.006 593.893 601.129 594.654 602.844 594.654C604.689 594.654 605.966 593.675 605.966 592.293C605.966 591.214 605.28 590.548 603.878 590.224L602.665 589.946C601.825 589.747 601.462 589.464 601.467 588.947C601.462 588.36 602.099 587.942 602.944 587.942C603.868 587.942 604.296 588.455 604.47 588.967L605.817 588.728ZM610.46 594.649C611.852 594.649 612.398 593.799 612.667 593.312H612.791V594.5H614.243V586.864H612.756V588.102H612.667C612.398 587.629 611.891 586.764 610.469 586.764C608.625 586.764 607.268 588.221 607.268 590.697C607.268 593.168 608.605 594.649 610.46 594.649ZM610.788 593.381C609.46 593.381 608.769 592.213 608.769 590.682C608.769 589.165 609.445 588.027 610.788 588.027C612.085 588.027 612.781 589.086 612.781 590.682C612.781 592.288 612.07 593.381 610.788 593.381ZM619.566 597.523C621.51 597.523 623.012 596.633 623.012 594.669V586.864H621.555V588.102H621.445C621.182 587.629 620.655 586.764 619.233 586.764C617.389 586.764 616.031 588.221 616.031 590.652C616.031 593.088 617.419 594.386 619.223 594.386C620.625 594.386 621.167 593.595 621.436 593.108H621.53V594.609C621.53 595.808 620.71 596.325 619.581 596.325C618.343 596.325 617.861 595.703 617.597 595.266L616.32 595.793C616.722 596.727 617.742 597.523 619.566 597.523ZM619.551 593.153C618.224 593.153 617.533 592.134 617.533 590.632C617.533 589.165 618.209 588.027 619.551 588.027C620.849 588.027 621.545 589.086 621.545 590.632C621.545 592.208 620.834 593.153 619.551 593.153ZM628.296 594.654C629.962 594.654 631.14 593.834 631.478 592.591L630.071 592.337C629.803 593.058 629.156 593.426 628.311 593.426C627.039 593.426 626.183 592.601 626.144 591.129H631.573V590.602C631.573 587.843 629.922 586.764 628.192 586.764C626.064 586.764 624.662 588.385 624.662 590.732C624.662 593.103 626.044 594.654 628.296 594.654ZM626.149 590.016C626.208 588.932 626.994 587.992 628.202 587.992C629.355 587.992 630.111 588.847 630.116 590.016H626.149ZM573.486 612.966C573.486 611.748 574.256 611.052 575.315 611.052C576.339 611.052 576.951 611.703 576.951 612.822V617.5H578.438V612.643C578.438 610.739 577.393 609.764 575.822 609.764C574.634 609.764 573.918 610.281 573.56 611.107H573.466V607.318H571.999V617.5H573.486V612.966ZM583.712 617.654C585.378 617.654 586.556 616.834 586.894 615.591L585.487 615.337C585.219 616.058 584.572 616.426 583.727 616.426C582.455 616.426 581.599 615.601 581.56 614.129H586.989V613.602C586.989 610.843 585.338 609.764 583.608 609.764C581.48 609.764 580.078 611.385 580.078 613.732C580.078 616.103 581.46 617.654 583.712 617.654ZM581.565 613.016C581.624 611.932 582.41 610.992 583.618 610.992C584.771 610.992 585.527 611.847 585.532 613.016H581.565ZM588.638 617.5H590.124V612.837C590.124 611.842 590.895 611.121 591.924 611.121C592.213 611.121 592.436 611.181 592.615 611.271L593.093 610.028C592.839 609.859 592.511 609.749 592.093 609.749C591.188 609.749 590.433 610.256 590.154 611.077H590.075V609.864H588.638V617.5ZM597.206 617.654C598.872 617.654 600.05 616.834 600.388 615.591L598.981 615.337C598.713 616.058 598.067 616.426 597.221 616.426C595.949 616.426 595.094 615.601 595.054 614.129H600.483V613.602C600.483 610.843 598.832 609.764 597.102 609.764C594.974 609.764 593.572 611.385 593.572 613.732C593.572 616.103 594.954 617.654 597.206 617.654ZM595.059 613.016C595.118 611.932 595.904 610.992 597.112 610.992C598.265 610.992 599.021 611.847 599.026 613.016H595.059ZM603.126 617.594C603.668 617.594 604.121 617.152 604.121 616.6C604.121 616.058 603.668 615.611 603.126 615.611C602.58 615.611 602.132 616.058 602.132 616.6C602.132 617.152 602.58 617.594 603.126 617.594ZM606.84 617.594C607.382 617.594 607.835 617.152 607.835 616.6C607.835 616.058 607.382 615.611 606.84 615.611C606.293 615.611 605.846 616.058 605.846 616.6C605.846 617.152 606.293 617.594 606.84 617.594ZM610.559 617.594C611.101 617.594 611.553 617.152 611.553 616.6C611.553 616.058 611.101 615.611 610.559 615.611C610.012 615.611 609.565 616.058 609.565 616.6C609.565 617.152 610.012 617.594 610.559 617.594Z" fill="white"/>
<path fill-rule="evenodd" clip-rule="evenodd" d="M663 589C663 588.724 663.224 588.5 663.5 588.5H675.293L672.146 585.354C671.951 585.158 671.951 584.842 672.146 584.646C672.342 584.451 672.658 584.451 672.854 584.646L676.854 588.646C677.049 588.842 677.049 589.158 676.854 589.354L672.854 593.354C672.658 593.549 672.342 593.549 672.146 593.354C671.951 593.158 671.951 592.842 672.146 592.646L675.293 589.5H663.5C663.224 589.5 663 589.276 663 589Z" fill="white"/>
<path d="M21 369C21 362.373 26.3726 357 33 357H459C465.627 357 471 362.373 471 369V626C471 632.627 465.627 638 459 638H33C26.3726 638 21 632.627 21 626V369Z" fill="white"/>
<path d="M46.1477 400.5H48.2557V395.557H53.6477V400.5H55.7614V388.864H53.6477V393.79H48.2557V388.864H46.1477V400.5ZM61.8267 400.67C63.8608 400.67 65.2585 399.676 65.6222 398.159L63.7017 397.943C63.4233 398.682 62.7415 399.068 61.8551 399.068C60.5256 399.068 59.6449 398.193 59.6278 396.699H65.7074V396.068C65.7074 393.006 63.8665 391.659 61.7188 391.659C59.2188 391.659 57.5881 393.494 57.5881 396.188C57.5881 398.926 59.196 400.67 61.8267 400.67ZM59.6335 395.312C59.696 394.199 60.5199 393.261 61.7472 393.261C62.929 393.261 63.7244 394.125 63.7358 395.312H59.6335ZM69.9588 400.676C71.3281 400.676 72.1463 400.034 72.5213 399.301H72.5895V400.5H74.5668V394.659C74.5668 392.352 72.6861 391.659 71.0213 391.659C69.1861 391.659 67.777 392.477 67.3224 394.068L69.2429 394.341C69.4474 393.744 70.027 393.233 71.0327 393.233C71.9872 393.233 72.5099 393.722 72.5099 394.58V394.614C72.5099 395.205 71.8906 395.233 70.3509 395.398C68.6577 395.58 67.0384 396.085 67.0384 398.051C67.0384 399.767 68.294 400.676 69.9588 400.676ZM70.4929 399.165C69.6349 399.165 69.0213 398.773 69.0213 398.017C69.0213 397.227 69.7088 396.898 70.6293 396.767C71.169 396.693 72.2486 396.557 72.5156 396.341V397.369C72.5156 398.341 71.7315 399.165 70.4929 399.165ZM79.8736 400.653C81.3736 400.653 82.0497 399.761 82.3736 399.125H82.4986V400.5H84.5213V388.864H82.4588V393.216H82.3736C82.0611 392.585 81.419 391.659 79.8793 391.659C77.8622 391.659 76.277 393.239 76.277 396.148C76.277 399.023 77.8168 400.653 79.8736 400.653ZM80.4474 398.966C79.0895 398.966 78.3736 397.773 78.3736 396.136C78.3736 394.511 79.0781 393.347 80.4474 393.347C81.7713 393.347 82.4986 394.443 82.4986 396.136C82.4986 397.83 81.7599 398.966 80.4474 398.966ZM86.7131 400.5H88.7699V391.773H86.7131V400.5ZM87.7472 390.534C88.4006 390.534 88.9347 390.034 88.9347 389.42C88.9347 388.801 88.4006 388.301 87.7472 388.301C87.0881 388.301 86.554 388.801 86.554 389.42C86.554 390.034 87.0881 390.534 87.7472 390.534ZM92.9418 395.386C92.9418 394.125 93.7031 393.398 94.7884 393.398C95.8509 393.398 96.4872 394.097 96.4872 395.261V400.5H98.544V394.943C98.5497 392.852 97.3565 391.659 95.5554 391.659C94.2486 391.659 93.3509 392.284 92.9531 393.256H92.8509V391.773H90.8849V400.5H92.9418V395.386ZM104.43 403.955C106.788 403.955 108.527 402.875 108.527 400.642V391.773H106.499V393.216H106.385C106.072 392.585 105.419 391.659 103.879 391.659C101.862 391.659 100.277 393.239 100.277 396.108C100.277 398.955 101.862 400.375 103.874 400.375C105.368 400.375 106.067 399.574 106.385 398.932H106.487V400.585C106.487 401.869 105.635 402.398 104.464 402.398C103.226 402.398 102.68 401.812 102.43 401.301L100.578 401.75C100.953 402.972 102.209 403.955 104.43 403.955ZM104.447 398.761C103.089 398.761 102.374 397.705 102.374 396.097C102.374 394.511 103.078 393.347 104.447 393.347C105.771 393.347 106.499 394.443 106.499 396.097C106.499 397.761 105.76 398.761 104.447 398.761Z" fill="#16192C"/>
<rect x="419" y="381" width="28" height="28" rx="6" fill="#4C6FFF"/>
<path fill-rule="evenodd" clip-rule="evenodd" d="M427.375 396.425C427.582 396.425 427.75 396.593 427.75 396.8V398.675C427.75 399.089 428.086 399.425 428.5 399.425H437.5C437.914 399.425 438.25 399.089 438.25 398.675V396.8C438.25 396.593 438.418 396.425 438.625 396.425C438.832 396.425 439 396.593 439 396.8V398.675C439 399.503 438.328 400.175 437.5 400.175H428.5C427.672 400.175 427 399.503 427 398.675V396.8C427 396.593 427.168 396.425 427.375 396.425Z" fill="white"/>
<path fill-rule="evenodd" clip-rule="evenodd" d="M432.735 389.86C432.881 389.713 433.119 389.713 433.265 389.86L435.515 392.11C435.662 392.256 435.662 392.494 435.515 392.64C435.369 392.787 435.131 392.787 434.985 392.64L433.375 391.03V397.625C433.375 397.832 433.207 398 433 398C432.793 398 432.625 397.832 432.625 397.625V391.03L431.015 392.64C430.869 392.787 430.631 392.787 430.485 392.64C430.338 392.494 430.338 392.256 430.485 392.11L432.735 389.86Z" fill="white"/>
<circle cx="49" cy="426" r="4" fill="#4C6FFF"/>
<path d="M63.5284 422.406H66.2472V430H67.5597V422.406H70.2827V421.273H63.5284V422.406ZM73.5447 430.132C74.9723 430.132 75.9822 429.429 76.272 428.364L75.0661 428.146C74.8359 428.764 74.282 429.08 73.5575 429.08C72.4666 429.08 71.7337 428.372 71.6996 427.111H76.353V426.659C76.353 424.294 74.9382 423.369 73.4553 423.369C71.6314 423.369 70.4297 424.759 70.4297 426.77C70.4297 428.803 71.6143 430.132 73.5447 430.132ZM71.7038 426.156C71.755 425.227 72.4283 424.422 73.4638 424.422C74.4524 424.422 75.1001 425.155 75.1044 426.156H71.7038ZM78.62 423.455H77.2223L79.2337 426.727L77.1967 430H78.5945L80.0646 427.554L81.5391 430H82.9325L80.8743 426.727L82.9155 423.455H81.522L80.0646 426.003L78.62 423.455ZM87.2791 423.455H85.9368V421.886H84.6626V423.455H83.7038V424.477H84.6626V428.342C84.6584 429.531 85.5661 430.107 86.5717 430.085C86.9766 430.081 87.2493 430.004 87.3984 429.949L87.1683 428.896C87.0831 428.913 86.9254 428.952 86.7209 428.952C86.3075 428.952 85.9368 428.815 85.9368 428.078V424.477H87.2791V423.455Z" fill="#425466"/>
<circle cx="127" cy="426" r="4" fill="url(#paint1_linear_1542_5430)"/>
<path d="M141.528 422.406H144.247V430H145.56V422.406H148.283V421.273H141.528V422.406ZM151.545 430.132C152.972 430.132 153.982 429.429 154.272 428.364L153.066 428.146C152.836 428.764 152.282 429.08 151.558 429.08C150.467 429.08 149.734 428.372 149.7 427.111H154.353V426.659C154.353 424.294 152.938 423.369 151.455 423.369C149.631 423.369 148.43 424.759 148.43 426.77C148.43 428.803 149.614 430.132 151.545 430.132ZM149.704 426.156C149.755 425.227 150.428 424.422 151.464 424.422C152.452 424.422 153.1 425.155 153.104 426.156H149.704ZM156.62 423.455H155.222L157.234 426.727L155.197 430H156.594L158.065 427.554L159.539 430H160.933L158.874 426.727L160.915 423.455H159.522L158.065 426.003L156.62 423.455ZM165.279 423.455H163.937V421.886H162.663V423.455H161.704V424.477H162.663V428.342C162.658 429.531 163.566 430.107 164.572 430.085C164.977 430.081 165.249 430.004 165.398 429.949L165.168 428.896C165.083 428.913 164.925 428.952 164.721 428.952C164.308 428.952 163.937 428.815 163.937 428.078V424.477H165.279V423.455Z" fill="#425466"/>
<path d="M45.5149 478.651H48.9844V480H50.2415V478.651H51.1719V477.567H50.2415V472.727H48.6009L45.5149 477.603V478.651ZM48.9986 477.567H46.8643V477.511L48.9418 474.219H48.9986V477.567ZM52.2707 480H53.5562V478.168L54.0249 477.667L55.694 480H57.2316L54.9944 476.9L57.1073 474.545H55.6052L53.645 476.737H53.5562V472.727H52.2707V480Z" fill="#425466"/>
<path d="M48.2564 515.765C49.8118 515.765 50.9446 514.874 50.9411 513.645C50.9446 512.736 50.3764 512.083 49.3572 511.937V511.881C50.1456 511.71 50.6747 511.124 50.6712 510.307C50.6747 509.199 49.7301 508.294 48.2777 508.294C46.8643 508.294 45.7706 509.135 45.7422 510.354H47.0099C47.0312 509.743 47.5994 509.363 48.2706 509.363C48.9489 509.363 49.3999 509.775 49.3963 510.385C49.3999 511.021 48.8743 511.444 48.1214 511.444H47.4787V512.459H48.1214C49.0412 512.459 49.5881 512.921 49.5845 513.578C49.5881 514.221 49.0305 514.661 48.2528 514.661C47.5213 514.661 46.9567 514.281 46.9247 513.688H45.5895C45.625 514.917 46.7223 515.765 48.2564 515.765ZM52.1242 515.666H53.4097V513.834L53.8784 513.333L55.5475 515.666H57.0851L54.8479 512.566L56.9608 510.211H55.4587L53.4985 512.403H53.4097V508.393H52.1242V515.666Z" fill="#425466"/>
<path d="M45.6463 552.334H50.6321V551.233H47.4645V551.183L48.718 549.909C50.1314 548.552 50.522 547.892 50.522 547.071C50.522 545.853 49.5312 544.962 48.0682 544.962C46.6264 544.962 45.6037 545.857 45.6037 547.238H46.8572C46.8572 546.496 47.326 546.031 48.0504 546.031C48.7429 546.031 49.2578 546.453 49.2578 547.139C49.2578 547.746 48.8885 548.179 48.1712 548.907L45.6463 551.382V552.334ZM51.8214 552.334H53.107V550.502L53.5757 550.001L55.2447 552.334H56.7824L54.5452 549.234L56.6581 546.879H55.156L53.1957 549.07H53.107V545.061H51.8214V552.334Z" fill="#425466"/>
<path d="M48.6044 581.727H47.3509L45.5433 582.888V584.096L47.2443 583.009H47.2869V589H48.6044V581.727ZM50.4152 589H51.7007V587.168L52.1695 586.667L53.8385 589H55.3761L53.1389 585.9L55.2518 583.545H53.7497L51.7895 585.737H51.7007V581.727H50.4152V589Z" fill="#425466"/>
<rect x="94.8555" y="592" width="127" height="8" rx="4" transform="rotate(-90 94.8555 592)" fill="#EDF2F7"/>
<path d="M98.8555 592C96.6463 592 94.8555 590.209 94.8555 588L94.8555 532.5C94.8555 530.291 96.6463 528.5 98.8555 528.5C101.065 528.5 102.855 530.291 102.855 532.5L102.855 588C102.855 590.209 101.065 592 98.8555 592Z" fill="#7895FF"/>
<rect x="108.855" y="592" width="127" height="8" rx="4" transform="rotate(-90 108.855 592)" fill="#EDF2F7"/>
<path d="M112.855 592C110.646 592 108.855 590.209 108.855 588L108.855 564.25C108.855 562.041 110.646 560.25 112.855 560.25C115.065 560.25 116.855 562.041 116.855 564.25L116.855 588C116.855 590.209 115.065 592 112.855 592Z" fill="url(#paint2_linear_1542_5430)"/>
<path d="M102.043 605.727V613H103.307V607.993H103.375L105.385 612.979H106.329L108.339 608.004H108.407V613H109.671V605.727H108.059L105.9 610.997H105.815L103.655 605.727H102.043Z" fill="#718096"/>
<rect x="159.312" y="592" width="127" height="8" rx="4" transform="rotate(-90 159.312 592)" fill="#EDF2F7"/>
<path d="M163.602 592C161.392 592 159.602 590.209 159.602 588L159.602 480C159.602 477.791 161.392 476 163.602 476C165.811 476 167.602 477.791 167.602 480L167.602 588C167.602 590.209 165.811 592 163.602 592Z" fill="#7895FF"/>
<rect x="173.312" y="592" width="127" height="8" rx="4" transform="rotate(-90 173.312 592)" fill="#EDF2F7"/>
<path d="M177.312 592C175.103 592 173.312 590.209 173.312 588L173.312 532.5C173.312 530.291 175.103 528.5 177.312 528.5C179.522 528.5 181.312 530.291 181.312 532.5L181.312 588C181.312 590.209 179.522 592 177.312 592Z" fill="url(#paint3_linear_1542_5430)"/>
<path d="M166.5 605.727V613H167.764V607.993H167.832L169.842 612.979H170.786L172.796 608.004H172.864V613H174.128V605.727H172.516L170.357 610.997H170.272L168.112 605.727H166.5Z" fill="#718096"/>
<rect x="223.77" y="592" width="127" height="8" rx="4" transform="rotate(-90 223.77 592)" fill="#EDF2F7"/>
<path d="M228.199 592C225.99 592 224.199 590.209 224.199 588L224.199 483C224.199 480.791 225.99 479 228.199 479C230.408 479 232.199 480.791 232.199 483L232.199 588C232.199 590.209 230.408 592 228.199 592Z" fill="#7895FF"/>
<rect x="237.77" y="592" width="127" height="8" rx="4" transform="rotate(-90 237.77 592)" fill="#EDF2F7"/>
<path d="M241.77 592C239.56 592 237.77 590.209 237.77 588L237.77 564.25C237.77 562.041 239.56 560.25 241.77 560.25C243.979 560.25 245.77 562.041 245.77 564.25L245.77 588C245.77 590.209 243.979 592 241.77 592Z" fill="url(#paint4_linear_1542_5430)"/>
<path d="M230.957 605.727V613H232.221V607.993H232.289L234.299 612.979H235.244L237.253 608.004H237.321V613H238.585V605.727H236.973L234.814 610.997H234.729L232.57 605.727H230.957Z" fill="#718096"/>
<rect x="288.227" y="592" width="127" height="8" rx="4" transform="rotate(-90 288.227 592)" fill="#EDF2F7"/>
<path d="M292.227 592C290.017 592 288.227 590.209 288.227 588L288.227 532.5C288.227 530.291 290.017 528.5 292.227 528.5C294.436 528.5 296.227 530.291 296.227 532.5L296.227 588C296.227 590.209 294.436 592 292.227 592Z" fill="#7895FF"/>
<rect x="302.227" y="592" width="127" height="8" rx="4" transform="rotate(-90 302.227 592)" fill="#EDF2F7"/>
<path d="M306.227 592C304.017 592 302.227 590.209 302.227 588L302.227 564.25C302.227 562.041 304.017 560.25 306.227 560.25C308.436 560.25 310.227 562.041 310.227 564.25L310.227 588C310.227 590.209 308.436 592 306.227 592Z" fill="url(#paint5_linear_1542_5430)"/>
<path d="M295.414 605.727V613H296.679V607.993H296.746L298.756 612.979H299.701L301.71 608.004H301.778V613H303.042V605.727H301.43L299.271 610.997H299.186L297.027 605.727H295.414Z" fill="#718096"/>
<rect x="352.684" y="592" width="127" height="8" rx="4" transform="rotate(-90 352.684 592)" fill="#EDF2F7"/>
<path d="M356.684 592C354.474 592 352.684 590.209 352.684 588L352.684 532.5C352.684 530.291 354.474 528.5 356.684 528.5C358.893 528.5 360.684 530.291 360.684 532.5L360.684 588C360.684 590.209 358.893 592 356.684 592Z" fill="#7895FF"/>
<rect x="366.684" y="592" width="127" height="8" rx="4" transform="rotate(-90 366.684 592)" fill="#EDF2F7"/>
<path d="M370.684 592C368.474 592 366.684 590.209 366.684 588L366.684 564.25C366.684 562.041 368.474 560.25 370.684 560.25C372.893 560.25 374.684 562.041 374.684 564.25L374.684 588C374.684 590.209 372.893 592 370.684 592Z" fill="url(#paint6_linear_1542_5430)"/>
<path d="M359.871 605.727V613H361.136V607.993H361.203L363.213 612.979H364.158L366.168 608.004H366.235V613H367.499V605.727H365.887L363.728 610.997H363.643L361.484 605.727H359.871Z" fill="#718096"/>
<rect x="417.141" y="592" width="127" height="8" rx="4" transform="rotate(-90 417.141 592)" fill="#EDF2F7"/>
<path d="M421.141 592C418.931 592 417.141 590.209 417.141 588L417.141 500.75C417.141 498.541 418.931 496.75 421.141 496.75C423.35 496.75 425.141 498.541 425.141 500.75L425.141 588C425.141 590.209 423.35 592 421.141 592Z" fill="#7895FF"/>
<rect x="431.141" y="592" width="127" height="8" rx="4" transform="rotate(-90 431.141 592)" fill="#EDF2F7"/>
<path d="M435.141 592C432.931 592 431.141 590.209 431.141 588L431.141 564.25C431.141 562.041 432.931 560.25 435.141 560.25C437.35 560.25 439.141 562.041 439.141 564.25L439.141 588C439.141 590.209 437.35 592 435.141 592Z" fill="url(#paint7_linear_1542_5430)"/>
<path d="M424.328 605.727V613H425.593V607.993H425.66L427.67 612.979H428.615L430.625 608.004H430.692V613H431.956V605.727H430.344L428.185 610.997H428.1L425.941 605.727H424.328Z" fill="#718096"/>
<path d="M491 369C491 362.373 496.373 357 503 357H681C687.627 357 693 362.373 693 369V508C693 514.627 687.627 520 681 520H503C496.373 520 491 514.627 491 508V369Z" fill="white"/>
<g filter="url(#filter0_dd_1542_5430)">
<rect x="507" y="377" width="170" height="36" rx="6" fill="white"/>
<mask id="mask1_1542_5430" style="mask-type:alpha" maskUnits="userSpaceOnUse" x="524" y="388" width="14" height="14">
<path fill-rule="evenodd" clip-rule="evenodd" d="M529.688 398.5C532.345 398.5 534.5 396.345 534.5 393.688C534.5 391.03 532.345 388.875 529.688 388.875C527.03 388.875 524.875 391.03 524.875 393.688C524.875 396.345 527.03 398.5 529.688 398.5ZM535.375 393.688C535.375 396.829 532.829 399.375 529.688 399.375C526.546 399.375 524 396.829 524 393.688C524 390.546 526.546 388 529.688 388C532.829 388 535.375 390.546 535.375 393.688Z" fill="black"/>
<path d="M533.051 398.274C533.077 398.309 533.105 398.343 533.137 398.375L536.506 401.744C536.848 402.085 537.402 402.085 537.744 401.744C538.085 401.402 538.085 400.848 537.744 400.506L534.375 397.137C534.343 397.105 534.309 397.077 534.274 397.051C533.931 397.518 533.518 397.931 533.051 398.274Z" fill="black"/>
</mask>
<g mask="url(#mask1_1542_5430)">
<rect x="524" y="388" width="14" height="14" fill="#B5B5BD"/>
</g>
<path d="M554.195 392.529H555.571C555.529 391.015 554.191 389.916 552.27 389.916C550.373 389.916 548.919 391.001 548.919 392.631C548.919 393.946 549.86 394.717 551.379 395.128L552.496 395.433C553.507 395.701 554.288 396.033 554.288 396.873C554.288 397.797 553.406 398.406 552.192 398.406C551.093 398.406 550.179 397.917 550.096 396.887H548.665C548.757 398.6 550.082 399.657 552.201 399.657C554.422 399.657 555.7 398.489 555.7 396.887C555.7 395.184 554.181 394.523 552.981 394.228L552.058 393.988C551.319 393.799 550.336 393.452 550.341 392.548C550.341 391.744 551.075 391.149 552.238 391.149C553.323 391.149 554.094 391.657 554.195 392.529ZM560.35 399.643C561.897 399.643 562.991 398.881 563.305 397.727L561.998 397.492C561.749 398.161 561.149 398.503 560.364 398.503C559.182 398.503 558.388 397.737 558.351 396.37H563.392V395.881C563.392 393.319 561.86 392.317 560.253 392.317C558.277 392.317 556.976 393.822 556.976 396.001C556.976 398.203 558.259 399.643 560.35 399.643ZM558.356 395.336C558.411 394.33 559.141 393.457 560.263 393.457C561.334 393.457 562.035 394.251 562.04 395.336H558.356ZM566.988 399.657C568.16 399.657 568.82 399.061 569.083 398.531H569.139V399.5H570.487V394.791C570.487 392.728 568.862 392.317 567.735 392.317C566.452 392.317 565.27 392.834 564.809 394.126L566.106 394.422C566.309 393.919 566.826 393.434 567.754 393.434C568.645 393.434 569.102 393.9 569.102 394.703V394.736C569.102 395.239 568.585 395.23 567.311 395.377C565.967 395.534 564.592 395.885 564.592 397.496C564.592 398.891 565.64 399.657 566.988 399.657ZM567.288 398.549C566.507 398.549 565.944 398.198 565.944 397.515C565.944 396.776 566.6 396.513 567.398 396.407C567.846 396.347 568.908 396.227 569.107 396.028V396.942C569.107 397.783 568.437 398.549 567.288 398.549ZM572.325 399.5H573.706V395.17C573.706 394.242 574.421 393.572 575.4 393.572C575.686 393.572 576.009 393.623 576.12 393.656V392.335C575.982 392.317 575.709 392.303 575.534 392.303C574.703 392.303 573.992 392.774 573.733 393.536H573.66V392.409H572.325V399.5ZM580.048 399.643C581.723 399.643 582.808 398.637 582.961 397.256H581.617C581.442 398.023 580.846 398.475 580.057 398.475C578.889 398.475 578.136 397.501 578.136 395.955C578.136 394.436 578.903 393.48 580.057 393.48C580.934 393.48 581.469 394.034 581.617 394.699H582.961C582.813 393.268 581.645 392.317 580.034 392.317C578.035 392.317 576.742 393.822 576.742 395.987C576.742 398.124 577.989 399.643 580.048 399.643ZM585.817 395.29C585.817 394.159 586.533 393.512 587.516 393.512C588.467 393.512 589.035 394.117 589.035 395.156V399.5H590.415V394.99C590.415 393.222 589.446 392.317 587.987 392.317C586.883 392.317 586.219 392.797 585.886 393.563H585.799V390.045H584.437V399.5H585.817V395.29ZM596.607 399.588C597.11 399.588 597.53 399.177 597.53 398.664C597.53 398.161 597.11 397.746 596.607 397.746C596.099 397.746 595.684 398.161 595.684 398.664C595.684 399.177 596.099 399.588 596.607 399.588ZM600.289 399.588C600.792 399.588 601.212 399.177 601.212 398.664C601.212 398.161 600.792 397.746 600.289 397.746C599.781 397.746 599.365 398.161 599.365 398.664C599.365 399.177 599.781 399.588 600.289 399.588ZM603.97 399.588C604.473 399.588 604.893 399.177 604.893 398.664C604.893 398.161 604.473 397.746 603.97 397.746C603.462 397.746 603.047 398.161 603.047 398.664C603.047 399.177 603.462 399.588 603.97 399.588Z" fill="#B5B5BD"/>
</g>
<rect x="507" y="427" width="70" height="31" rx="6" fill="#EBF2FA"/>
<path d="M519.759 447H523.487C525.447 447 526.491 445.977 526.491 444.588C526.491 443.297 525.567 442.517 524.574 442.47V442.385C525.482 442.18 526.151 441.537 526.151 440.51C526.151 439.202 525.179 438.273 523.253 438.273H519.759V447ZM521.604 445.491V443.173H523.151C524.037 443.173 524.587 443.685 524.587 444.405C524.587 445.061 524.139 445.491 523.108 445.491H521.604ZM521.604 441.925V439.764H523.006C523.824 439.764 524.288 440.186 524.288 440.817C524.288 441.507 523.726 441.925 522.972 441.925H521.604ZM529.525 447.124C530.492 447.124 531.118 446.702 531.438 446.092H531.489V447H533.211V442.585C533.211 441.026 531.89 440.369 530.432 440.369C528.864 440.369 527.833 441.119 527.581 442.312L529.26 442.449C529.384 442.014 529.772 441.695 530.424 441.695C531.042 441.695 531.395 442.006 531.395 442.543V442.568C531.395 442.99 530.948 443.045 529.81 443.156C528.515 443.276 527.351 443.71 527.351 445.172C527.351 446.467 528.276 447.124 529.525 447.124ZM530.044 445.871C529.486 445.871 529.086 445.611 529.086 445.112C529.086 444.601 529.507 444.349 530.147 444.26C530.543 444.205 531.191 444.111 531.408 443.966V444.661C531.408 445.347 530.841 445.871 530.044 445.871ZM537.031 447.107C538.088 447.107 538.637 446.497 538.889 445.952H538.966V447H540.755V438.273H538.944V441.554H538.889C538.646 441.021 538.122 440.369 537.027 440.369C535.591 440.369 534.376 441.486 534.376 443.736C534.376 445.926 535.539 447.107 537.031 447.107ZM537.606 445.662C536.716 445.662 536.23 444.869 536.23 443.727C536.23 442.594 536.707 441.814 537.606 441.814C538.488 441.814 538.983 442.56 538.983 443.727C538.983 444.895 538.48 445.662 537.606 445.662ZM545.197 449.591C547.067 449.591 548.397 448.739 548.397 447.064V440.455H546.594V441.554H546.526C546.283 441.021 545.751 440.369 544.656 440.369C543.219 440.369 542.005 441.486 542.005 443.714C542.005 445.892 543.185 446.906 544.66 446.906C545.704 446.906 546.288 446.382 546.526 445.841H546.603V447.038C546.603 447.938 546.028 448.287 545.239 448.287C544.438 448.287 544.033 447.938 543.884 447.541L542.205 447.767C542.423 448.798 543.433 449.591 545.197 449.591ZM545.235 445.543C544.344 445.543 543.859 444.835 543.859 443.706C543.859 442.594 544.336 441.814 545.235 441.814C546.117 441.814 546.612 442.56 546.612 443.706C546.612 444.861 546.109 445.543 545.235 445.543ZM552.825 447.128C554.444 447.128 555.535 446.339 555.79 445.125L554.112 445.014C553.928 445.513 553.46 445.773 552.854 445.773C551.947 445.773 551.371 445.172 551.371 444.196V444.192H555.829V443.693C555.829 441.469 554.482 440.369 552.752 440.369C550.826 440.369 549.577 441.737 549.577 443.757C549.577 445.832 550.809 447.128 552.825 447.128ZM551.371 443.067C551.41 442.321 551.977 441.724 552.782 441.724C553.57 441.724 554.116 442.287 554.12 443.067H551.371ZM563.571 438.273H561.836L559.676 439.641V441.277L561.674 440.024H561.725V447H563.571V438.273Z" fill="#A6B7D4"/>
<rect x="585" y="427" width="72" height="31" rx="6" fill="#EBF2FA"/>
<path d="M597.759 447H601.487C603.447 447 604.491 445.977 604.491 444.588C604.491 443.297 603.567 442.517 602.574 442.47V442.385C603.482 442.18 604.151 441.537 604.151 440.51C604.151 439.202 603.179 438.273 601.253 438.273H597.759V447ZM599.604 445.491V443.173H601.151C602.037 443.173 602.587 443.685 602.587 444.405C602.587 445.061 602.139 445.491 601.108 445.491H599.604ZM599.604 441.925V439.764H601.006C601.824 439.764 602.288 440.186 602.288 440.817C602.288 441.507 601.726 441.925 600.972 441.925H599.604ZM607.525 447.124C608.492 447.124 609.118 446.702 609.438 446.092H609.489V447H611.211V442.585C611.211 441.026 609.89 440.369 608.432 440.369C606.864 440.369 605.833 441.119 605.581 442.312L607.26 442.449C607.384 442.014 607.772 441.695 608.424 441.695C609.042 441.695 609.395 442.006 609.395 442.543V442.568C609.395 442.99 608.948 443.045 607.81 443.156C606.515 443.276 605.351 443.71 605.351 445.172C605.351 446.467 606.276 447.124 607.525 447.124ZM608.044 445.871C607.486 445.871 607.086 445.611 607.086 445.112C607.086 444.601 607.507 444.349 608.147 444.26C608.543 444.205 609.191 444.111 609.408 443.966V444.661C609.408 445.347 608.841 445.871 608.044 445.871ZM615.031 447.107C616.088 447.107 616.637 446.497 616.889 445.952H616.966V447H618.755V438.273H616.944V441.554H616.889C616.646 441.021 616.122 440.369 615.027 440.369C613.591 440.369 612.376 441.486 612.376 443.736C612.376 445.926 613.539 447.107 615.031 447.107ZM615.606 445.662C614.716 445.662 614.23 444.869 614.23 443.727C614.23 442.594 614.707 441.814 615.606 441.814C616.488 441.814 616.983 442.56 616.983 443.727C616.983 444.895 616.48 445.662 615.606 445.662ZM623.197 449.591C625.067 449.591 626.397 448.739 626.397 447.064V440.455H624.594V441.554H624.526C624.283 441.021 623.751 440.369 622.656 440.369C621.219 440.369 620.005 441.486 620.005 443.714C620.005 445.892 621.185 446.906 622.66 446.906C623.704 446.906 624.288 446.382 624.526 445.841H624.603V447.038C624.603 447.938 624.028 448.287 623.239 448.287C622.438 448.287 622.033 447.938 621.884 447.541L620.205 447.767C620.423 448.798 621.433 449.591 623.197 449.591ZM623.235 445.543C622.344 445.543 621.859 444.835 621.859 443.706C621.859 442.594 622.336 441.814 623.235 441.814C624.117 441.814 624.612 442.56 624.612 443.706C624.612 444.861 624.109 445.543 623.235 445.543ZM630.825 447.128C632.444 447.128 633.535 446.339 633.79 445.125L632.112 445.014C631.928 445.513 631.46 445.773 630.854 445.773C629.947 445.773 629.371 445.172 629.371 444.196V444.192H633.829V443.693C633.829 441.469 632.482 440.369 630.752 440.369C628.826 440.369 627.577 441.737 627.577 443.757C627.577 445.832 628.809 447.128 630.825 447.128ZM629.371 443.067C629.41 442.321 629.977 441.724 630.782 441.724C631.57 441.724 632.116 442.287 632.12 443.067H629.371ZM637.774 447H643.995V445.491H640.331V445.432L641.605 444.183C643.399 442.547 643.88 441.729 643.88 440.736C643.88 439.223 642.645 438.153 640.774 438.153C638.941 438.153 637.684 439.249 637.689 440.962H639.44C639.436 440.126 639.964 439.615 640.761 439.615C641.528 439.615 642.099 440.092 642.099 440.859C642.099 441.554 641.673 442.031 640.88 442.794L637.774 445.67V447Z" fill="#A6B7D4"/>
<rect x="506.5" y="469" width="72" height="31" rx="6" fill="#EBF2FA"/>
<path d="M519.259 489H522.987C524.947 489 525.991 487.977 525.991 486.588C525.991 485.297 525.067 484.517 524.074 484.47V484.385C524.982 484.18 525.651 483.537 525.651 482.51C525.651 481.202 524.679 480.273 522.753 480.273H519.259V489ZM521.104 487.491V485.173H522.651C523.537 485.173 524.087 485.685 524.087 486.405C524.087 487.061 523.639 487.491 522.608 487.491H521.104ZM521.104 483.925V481.764H522.506C523.324 481.764 523.788 482.186 523.788 482.817C523.788 483.507 523.226 483.925 522.472 483.925H521.104ZM529.025 489.124C529.992 489.124 530.618 488.702 530.938 488.092H530.989V489H532.711V484.585C532.711 483.026 531.39 482.369 529.932 482.369C528.364 482.369 527.333 483.119 527.081 484.312L528.76 484.449C528.884 484.014 529.272 483.695 529.924 483.695C530.542 483.695 530.895 484.006 530.895 484.543V484.568C530.895 484.99 530.448 485.045 529.31 485.156C528.015 485.276 526.851 485.71 526.851 487.172C526.851 488.467 527.776 489.124 529.025 489.124ZM529.544 487.871C528.986 487.871 528.586 487.611 528.586 487.112C528.586 486.601 529.007 486.349 529.647 486.26C530.043 486.205 530.691 486.111 530.908 485.966V486.661C530.908 487.347 530.341 487.871 529.544 487.871ZM536.531 489.107C537.588 489.107 538.137 488.497 538.389 487.952H538.466V489H540.255V480.273H538.444V483.554H538.389C538.146 483.021 537.622 482.369 536.527 482.369C535.091 482.369 533.876 483.486 533.876 485.736C533.876 487.926 535.039 489.107 536.531 489.107ZM537.106 487.662C536.216 487.662 535.73 486.869 535.73 485.727C535.73 484.594 536.207 483.814 537.106 483.814C537.988 483.814 538.483 484.56 538.483 485.727C538.483 486.895 537.98 487.662 537.106 487.662ZM544.697 491.591C546.567 491.591 547.897 490.739 547.897 489.064V482.455H546.094V483.554H546.026C545.783 483.021 545.251 482.369 544.156 482.369C542.719 482.369 541.505 483.486 541.505 485.714C541.505 487.892 542.685 488.906 544.16 488.906C545.204 488.906 545.788 488.382 546.026 487.841H546.103V489.038C546.103 489.938 545.528 490.287 544.739 490.287C543.938 490.287 543.533 489.938 543.384 489.541L541.705 489.767C541.923 490.798 542.933 491.591 544.697 491.591ZM544.735 487.543C543.844 487.543 543.359 486.835 543.359 485.706C543.359 484.594 543.836 483.814 544.735 483.814C545.617 483.814 546.112 484.56 546.112 485.706C546.112 486.861 545.609 487.543 544.735 487.543ZM552.325 489.128C553.944 489.128 555.035 488.339 555.29 487.125L553.612 487.014C553.428 487.513 552.96 487.773 552.354 487.773C551.447 487.773 550.871 487.172 550.871 486.196V486.192H555.329V485.693C555.329 483.469 553.982 482.369 552.252 482.369C550.326 482.369 549.077 483.737 549.077 485.757C549.077 487.832 550.309 489.128 552.325 489.128ZM550.871 485.067C550.91 484.321 551.477 483.724 552.282 483.724C553.07 483.724 553.616 484.287 553.62 485.067H550.871ZM562.5 489.119C564.46 489.119 565.862 488.041 565.858 486.55C565.862 485.463 565.172 484.688 563.889 484.526V484.457C564.865 484.283 565.538 483.592 565.534 482.612C565.538 481.236 564.332 480.153 562.525 480.153C560.735 480.153 559.389 481.202 559.363 482.71H561.132C561.153 482.045 561.762 481.615 562.517 481.615C563.262 481.615 563.761 482.067 563.757 482.723C563.761 483.409 563.177 483.874 562.338 483.874H561.524V485.229H562.338C563.326 485.229 563.944 485.723 563.94 486.426C563.944 487.121 563.348 487.598 562.504 487.598C561.69 487.598 561.081 487.172 561.047 486.533H559.189C559.218 488.058 560.582 489.119 562.5 489.119Z" fill="#A6B7D4"/>
<rect x="584.5" y="469" width="97" height="32" rx="6" fill="#EBF2FA"/>
<path d="M597.259 489.5H600.987C602.947 489.5 603.991 488.477 603.991 487.088C603.991 485.797 603.067 485.017 602.074 484.97V484.885C602.982 484.68 603.651 484.037 603.651 483.01C603.651 481.702 602.679 480.773 600.753 480.773H597.259V489.5ZM599.104 487.991V485.673H600.651C601.537 485.673 602.087 486.185 602.087 486.905C602.087 487.561 601.639 487.991 600.608 487.991H599.104ZM599.104 484.425V482.264H600.506C601.324 482.264 601.788 482.686 601.788 483.317C601.788 484.007 601.226 484.425 600.472 484.425H599.104ZM607.025 489.624C607.992 489.624 608.618 489.202 608.938 488.592H608.989V489.5H610.711V485.085C610.711 483.526 609.39 482.869 607.932 482.869C606.364 482.869 605.333 483.619 605.081 484.812L606.76 484.949C606.884 484.514 607.272 484.195 607.924 484.195C608.542 484.195 608.895 484.506 608.895 485.043V485.068C608.895 485.49 608.448 485.545 607.31 485.656C606.015 485.776 604.851 486.21 604.851 487.672C604.851 488.967 605.776 489.624 607.025 489.624ZM607.544 488.371C606.986 488.371 606.586 488.111 606.586 487.612C606.586 487.101 607.007 486.849 607.647 486.76C608.043 486.705 608.691 486.611 608.908 486.466V487.161C608.908 487.847 608.341 488.371 607.544 488.371ZM614.531 489.607C615.588 489.607 616.137 488.997 616.389 488.452H616.466V489.5H618.255V480.773H616.444V484.054H616.389C616.146 483.521 615.622 482.869 614.527 482.869C613.091 482.869 611.876 483.986 611.876 486.236C611.876 488.426 613.039 489.607 614.531 489.607ZM615.106 488.162C614.216 488.162 613.73 487.369 613.73 486.227C613.73 485.094 614.207 484.314 615.106 484.314C615.988 484.314 616.483 485.06 616.483 486.227C616.483 487.395 615.98 488.162 615.106 488.162ZM622.697 492.091C624.567 492.091 625.897 491.239 625.897 489.564V482.955H624.094V484.054H624.026C623.783 483.521 623.251 482.869 622.156 482.869C620.719 482.869 619.505 483.986 619.505 486.214C619.505 488.392 620.685 489.406 622.16 489.406C623.204 489.406 623.788 488.882 624.026 488.341H624.103V489.538C624.103 490.438 623.528 490.787 622.739 490.787C621.938 490.787 621.533 490.438 621.384 490.041L619.705 490.267C619.923 491.298 620.933 492.091 622.697 492.091ZM622.735 488.043C621.844 488.043 621.359 487.335 621.359 486.206C621.359 485.094 621.836 484.314 622.735 484.314C623.617 484.314 624.112 485.06 624.112 486.206C624.112 487.361 623.609 488.043 622.735 488.043ZM630.325 489.628C631.944 489.628 633.035 488.839 633.29 487.625L631.612 487.514C631.428 488.013 630.96 488.273 630.354 488.273C629.447 488.273 628.871 487.672 628.871 486.696V486.692H633.329V486.193C633.329 483.969 631.982 482.869 630.252 482.869C628.326 482.869 627.077 484.237 627.077 486.257C627.077 488.332 628.309 489.628 630.325 489.628ZM628.871 485.567C628.91 484.821 629.477 484.224 630.282 484.224C631.07 484.224 631.616 484.787 631.62 485.567H628.871ZM637.142 487.966H641.331V489.5H643.095V487.966H644.177V486.487H643.095V480.773H640.785L637.142 486.513V487.966ZM641.365 486.487H639V486.419L641.297 482.784H641.365V486.487Z" fill="#A6B7D4"/>
<path fill-rule="evenodd" clip-rule="evenodd" d="M658.146 481.646C658.342 481.451 658.658 481.451 658.854 481.646L661.5 484.293L664.146 481.646C664.342 481.451 664.658 481.451 664.854 481.646C665.049 481.842 665.049 482.158 664.854 482.354L662.207 485L664.854 487.646C665.049 487.842 665.049 488.158 664.854 488.354C664.658 488.549 664.342 488.549 664.146 488.354L661.5 485.707L658.854 488.354C658.658 488.549 658.342 488.549 658.146 488.354C657.951 488.158 657.951 487.842 658.146 487.646L660.793 485L658.146 482.354C657.951 482.158 657.951 481.842 658.146 481.646Z" fill="#A6B7D4"/>
<path d="M389 163C389 156.373 394.373 151 401 151H683C689.627 151 695 156.373 695 163V325C695 331.627 689.627 337 683 337H401C394.373 337 389 331.627 389 325V163Z" fill="white"/>
<rect x="413" y="175" width="48" height="48" rx="8" fill="#E4ECF7"/>
<mask id="mask2_1542_5430" style="mask-type:alpha" maskUnits="userSpaceOnUse" x="429" y="191" width="18" height="18">
<path fill-rule="evenodd" clip-rule="evenodd" d="M438 207.875C442.349 207.875 445.875 204.349 445.875 200C445.875 195.651 442.349 192.125 438 192.125C433.651 192.125 430.125 195.651 430.125 200C430.125 204.349 433.651 207.875 438 207.875ZM438 209C442.971 209 447 204.971 447 200C447 195.029 442.971 191 438 191C433.029 191 429 195.029 429 200C429 204.971 433.029 209 438 209Z" fill="black"/>
<path fill-rule="evenodd" clip-rule="evenodd" d="M433.82 201.763C434.089 201.608 434.433 201.699 434.589 201.968C435.271 203.147 436.543 203.938 438 203.938C439.457 203.938 440.729 203.147 441.411 201.968C441.567 201.699 441.911 201.608 442.18 201.763C442.449 201.919 442.54 202.263 442.385 202.532C441.51 204.043 439.875 205.062 438 205.062C436.125 205.062 434.49 204.043 433.615 202.532C433.46 202.263 433.551 201.919 433.82 201.763Z" fill="black"/>
<path d="M436.875 198.312C436.875 199.244 436.371 200 435.75 200C435.129 200 434.625 199.244 434.625 198.312C434.625 197.381 435.129 196.625 435.75 196.625C436.371 196.625 436.875 197.381 436.875 198.312Z" fill="black"/>
<path d="M441.375 198.312C441.375 199.244 440.871 200 440.25 200C439.629 200 439.125 199.244 439.125 198.312C439.125 197.381 439.629 196.625 440.25 196.625C440.871 196.625 441.375 197.381 441.375 198.312Z" fill="black"/>
</mask>
<g mask="url(#mask2_1542_5430)">
<rect x="429" y="191" width="18" height="18" fill="#A6B7D4"/>
</g>
<path fill-rule="evenodd" clip-rule="evenodd" d="M654 187C654 185.895 653.105 185 652 185C650.895 185 650 185.895 650 187C650 188.105 650.895 189 652 189C653.105 189 654 188.105 654 187Z" fill="#425466"/>
<path fill-rule="evenodd" clip-rule="evenodd" d="M661 187C661 185.895 660.105 185 659 185C657.895 185 657 185.895 657 187C657 188.105 657.895 189 659 189C660.105 189 661 188.105 661 187Z" fill="#425466"/>
<path fill-rule="evenodd" clip-rule="evenodd" d="M668 187C668 185.895 667.105 185 666 185C664.895 185 664 185.895 664 187C664 188.105 664.895 189 666 189C667.105 189 668 188.105 668 187Z" fill="#425466"/>
<path d="M414.148 265H416.256V260.057H421.648V265H423.761V253.364H421.648V258.29H416.256V253.364H414.148V265ZM429.827 265.17C431.861 265.17 433.259 264.176 433.622 262.659L431.702 262.443C431.423 263.182 430.741 263.568 429.855 263.568C428.526 263.568 427.645 262.693 427.628 261.199H433.707V260.568C433.707 257.506 431.866 256.159 429.719 256.159C427.219 256.159 425.588 257.994 425.588 260.688C425.588 263.426 427.196 265.17 429.827 265.17ZM427.634 259.812C427.696 258.699 428.52 257.761 429.747 257.761C430.929 257.761 431.724 258.625 431.736 259.812H427.634ZM437.959 265.176C439.328 265.176 440.146 264.534 440.521 263.801H440.589V265H442.567V259.159C442.567 256.852 440.686 256.159 439.021 256.159C437.186 256.159 435.777 256.977 435.322 258.568L437.243 258.841C437.447 258.244 438.027 257.733 439.033 257.733C439.987 257.733 440.51 258.222 440.51 259.08V259.114C440.51 259.705 439.891 259.733 438.351 259.898C436.658 260.08 435.038 260.585 435.038 262.551C435.038 264.267 436.294 265.176 437.959 265.176ZM438.493 263.665C437.635 263.665 437.021 263.273 437.021 262.517C437.021 261.727 437.709 261.398 438.629 261.267C439.169 261.193 440.249 261.057 440.516 260.841V261.869C440.516 262.841 439.732 263.665 438.493 263.665ZM447.874 265.153C449.374 265.153 450.05 264.261 450.374 263.625H450.499V265H452.521V253.364H450.459V257.716H450.374C450.061 257.085 449.419 256.159 447.879 256.159C445.862 256.159 444.277 257.739 444.277 260.648C444.277 263.523 445.817 265.153 447.874 265.153ZM448.447 263.466C447.089 263.466 446.374 262.273 446.374 260.636C446.374 259.011 447.078 257.847 448.447 257.847C449.771 257.847 450.499 258.943 450.499 260.636C450.499 262.33 449.76 263.466 448.447 263.466ZM454.713 265H456.77V256.273H454.713V265ZM455.747 255.034C456.401 255.034 456.935 254.534 456.935 253.92C456.935 253.301 456.401 252.801 455.747 252.801C455.088 252.801 454.554 253.301 454.554 253.92C454.554 254.534 455.088 255.034 455.747 255.034ZM460.942 259.886C460.942 258.625 461.703 257.898 462.788 257.898C463.851 257.898 464.487 258.597 464.487 259.761V265H466.544V259.443C466.55 257.352 465.357 256.159 463.555 256.159C462.249 256.159 461.351 256.784 460.953 257.756H460.851V256.273H458.885V265H460.942V259.886ZM472.43 268.455C474.788 268.455 476.527 267.375 476.527 265.142V256.273H474.499V257.716H474.385C474.072 257.085 473.419 256.159 471.879 256.159C469.862 256.159 468.277 257.739 468.277 260.608C468.277 263.455 469.862 264.875 471.874 264.875C473.368 264.875 474.067 264.074 474.385 263.432H474.487V265.085C474.487 266.369 473.635 266.898 472.464 266.898C471.226 266.898 470.68 266.312 470.43 265.801L468.578 266.25C468.953 267.472 470.209 268.455 472.43 268.455ZM472.447 263.261C471.089 263.261 470.374 262.205 470.374 260.597C470.374 259.011 471.078 257.847 472.447 257.847C473.771 257.847 474.499 258.943 474.499 260.597C474.499 262.261 473.76 263.261 472.447 263.261Z" fill="#27272E"/>
<path d="M413.979 295H420.681V293.683H416.097V293.608L418.121 291.49C419.985 289.606 420.517 288.706 420.517 287.567C420.517 285.932 419.185 284.679 417.266 284.679C415.362 284.679 413.969 285.912 413.969 287.771H415.436C415.431 286.678 416.137 285.962 417.236 285.962C418.27 285.962 419.055 286.598 419.055 287.612C419.055 288.512 418.518 289.158 417.425 290.317L413.979 293.886V295ZM425.926 295.139C427.974 295.139 429.436 293.692 429.431 291.709C429.436 289.74 428.064 288.308 426.21 288.308C425.454 288.308 424.753 288.597 424.355 288.984H424.295L424.619 286.136H428.939V284.818H423.341L422.769 289.949L424.176 290.158C424.559 289.815 425.245 289.581 425.862 289.581C427.07 289.591 427.945 290.496 427.945 291.739C427.945 292.962 427.094 293.847 425.926 293.847C424.942 293.847 424.161 293.22 424.082 292.345H422.59C422.65 293.966 424.057 295.139 425.926 295.139ZM431.891 295.094C432.433 295.094 432.885 294.652 432.885 294.1C432.885 293.558 432.433 293.111 431.891 293.111C431.344 293.111 430.896 293.558 430.896 294.1C430.896 294.652 431.344 295.094 431.891 295.094ZM438.053 295.139C440.101 295.139 441.563 293.692 441.558 291.709C441.563 289.74 440.191 288.308 438.336 288.308C437.581 288.308 436.88 288.597 436.482 288.984H436.422L436.746 286.136H441.066V284.818H435.468L434.896 289.949L436.303 290.158C436.686 289.815 437.372 289.581 437.988 289.581C439.197 289.591 440.072 290.496 440.072 291.739C440.072 292.962 439.221 293.847 438.053 293.847C437.069 293.847 436.288 293.22 436.209 292.345H434.717C434.777 293.966 436.184 295.139 438.053 295.139ZM451.519 295.139C452.831 295.139 453.736 294.652 454.482 293.782H454.531L454.671 295H455.854V289.79H451.752V291.058H454.347C454.293 292.634 453.184 293.737 451.519 293.737C449.729 293.737 448.416 292.38 448.416 289.904C448.416 287.433 449.779 286.081 451.504 286.081C452.851 286.081 453.85 286.822 454.208 288.035H455.784C455.441 286.051 453.691 284.679 451.489 284.679C448.859 284.679 446.89 286.663 446.89 289.914C446.89 293.136 448.764 295.139 451.519 295.139ZM457.8 295H461.703C464.069 295 465.138 293.822 465.138 292.261C465.138 290.685 464.035 289.795 463.025 289.74V289.641C463.96 289.402 464.741 288.766 464.741 287.493C464.741 285.987 463.697 284.818 461.529 284.818H457.8V295ZM459.336 293.683V290.421H461.608C462.841 290.421 463.612 291.217 463.612 292.186C463.612 293.041 463.03 293.683 461.554 293.683H459.336ZM459.336 289.223V286.126H461.434C462.653 286.126 463.234 286.767 463.234 287.612C463.234 288.597 462.429 289.223 461.395 289.223H459.336Z" fill="#84859E"/>
<path d="M634.174 295.139C636.222 295.139 637.684 293.692 637.679 291.709C637.684 289.74 636.312 288.308 634.458 288.308C633.702 288.308 633.001 288.597 632.603 288.984H632.544L632.867 286.136H637.187V284.818H631.589L631.017 289.949L632.424 290.158C632.807 289.815 633.493 289.581 634.11 289.581C635.318 289.591 636.193 290.496 636.193 291.739C636.193 292.962 635.343 293.847 634.174 293.847C633.19 293.847 632.409 293.22 632.33 292.345H630.838C630.898 293.966 632.305 295.139 634.174 295.139ZM643.04 295.169C645.391 295.169 646.768 293.25 646.768 289.914C646.768 286.603 645.371 284.679 643.04 284.679C640.703 284.679 639.311 286.598 639.306 289.914C639.306 293.245 640.683 295.164 643.04 295.169ZM643.04 293.842C641.663 293.842 640.832 292.46 640.832 289.914C640.837 287.379 641.668 285.982 643.04 285.982C644.407 285.982 645.242 287.379 645.242 289.914C645.242 292.46 644.412 293.842 643.04 293.842ZM656.677 295.139C657.989 295.139 658.894 294.652 659.64 293.782H659.69L659.829 295H661.012V289.79H656.911V291.058H659.506C659.451 292.634 658.342 293.737 656.677 293.737C654.887 293.737 653.575 292.38 653.575 289.904C653.575 287.433 654.937 286.081 656.662 286.081C658.009 286.081 659.009 286.822 659.366 288.035H660.942C660.599 286.051 658.849 284.679 656.647 284.679C654.017 284.679 652.048 286.663 652.048 289.914C652.048 293.136 653.923 295.139 656.677 295.139ZM662.958 295H666.861C669.228 295 670.297 293.822 670.297 292.261C670.297 290.685 669.193 289.795 668.184 289.74V289.641C669.118 289.402 669.899 288.766 669.899 287.493C669.899 285.987 668.855 284.818 666.687 284.818H662.958V295ZM664.495 293.683V290.421H666.767C668 290.421 668.77 291.217 668.77 292.186C668.77 293.041 668.189 293.683 666.712 293.683H664.495ZM664.495 289.223V286.126H666.593C667.811 286.126 668.392 286.767 668.392 287.612C668.392 288.597 667.587 289.223 666.553 289.223H664.495Z" fill="#84859E"/>
<rect x="413" y="305" width="258" height="8" rx="4" fill="#E4ECF7"/>
<rect x="413" y="305" width="203.159" height="8" rx="4" fill="#4C6FFF"/>
<g filter="url(#filter1_d_1542_5430)">
<path d="M388 51C388 44.3726 393.373 39 400 39H682C688.627 39 694 44.3726 694 51V119C694 125.627 688.627 131 682 131H400C393.373 131 388 125.627 388 119V51Z" fill="white"/>
<circle cx="436" cy="85" r="24" fill="url(#paint8_linear_1542_5430)"/>
<path fill-rule="evenodd" clip-rule="evenodd" d="M441.485 79.4314C442.061 78.8562 442.993 78.8562 443.569 79.4314C444.137 79.9996 444.144 80.9165 443.589 81.4933L435.749 91.2944C435.737 91.3085 435.725 91.322 435.712 91.3349C435.137 91.9101 434.204 91.9101 433.629 91.3349L428.431 86.1371C427.856 85.5619 427.856 84.6292 428.431 84.0539C429.007 83.4787 429.939 83.4787 430.515 84.0539L434.626 88.1657L441.446 79.4755C441.458 79.46 441.471 79.4453 441.485 79.4314Z" fill="white"/>
<path d="M480.636 80.6307H484.233V90.5H486.324V80.6307H489.92V78.8636H480.636V80.6307ZM494.217 90.6705C496.251 90.6705 497.649 89.6761 498.013 88.1591L496.092 87.9432C495.814 88.6818 495.132 89.0682 494.246 89.0682C492.916 89.0682 492.036 88.1932 492.018 86.6989H498.098V86.0682C498.098 83.0057 496.257 81.6591 494.109 81.6591C491.609 81.6591 489.979 83.4943 489.979 86.1875C489.979 88.9261 491.587 90.6705 494.217 90.6705ZM492.024 85.3125C492.087 84.1989 492.911 83.2614 494.138 83.2614C495.32 83.2614 496.115 84.125 496.126 85.3125H492.024ZM501.348 81.7727H499.166L501.757 86.1364L499.098 90.5H501.28L503.109 87.358L504.956 90.5H507.121L504.445 86.1364L507.075 81.7727H504.899L503.109 84.9943L501.348 81.7727ZM513.024 81.7727H511.303V79.6818H509.246V81.7727H508.007V83.3636H509.246V88.2159C509.234 89.858 510.428 90.6648 511.973 90.6193C512.558 90.6023 512.962 90.4886 513.183 90.4148L512.837 88.8068C512.723 88.8352 512.49 88.8864 512.234 88.8864C511.717 88.8864 511.303 88.7045 511.303 87.875V83.3636H513.024V81.7727ZM523.134 81.7727H521.321V81.0852C521.321 80.4034 521.605 80.0227 522.372 80.0227C522.696 80.0227 522.969 80.0966 523.139 80.1477L523.554 78.5568C523.287 78.4659 522.702 78.3182 521.991 78.3182C520.474 78.3182 519.264 79.1875 519.264 80.9489V81.7727H517.974V83.3636H519.264V90.5H521.321V83.3636H523.134V81.7727ZM528.223 90.6705C530.78 90.6705 532.405 88.8693 532.405 86.1705C532.405 83.4659 530.78 81.6591 528.223 81.6591C525.666 81.6591 524.041 83.4659 524.041 86.1705C524.041 88.8693 525.666 90.6705 528.223 90.6705ZM528.234 89.0227C526.82 89.0227 526.126 87.7614 526.126 86.1648C526.126 84.5682 526.82 83.2898 528.234 83.2898C529.626 83.2898 530.32 84.5682 530.32 86.1648C530.32 87.7614 529.626 89.0227 528.234 89.0227ZM534.151 90.5H536.207V85.3693C536.207 84.2614 537.043 83.4773 538.173 83.4773C538.52 83.4773 538.952 83.5398 539.128 83.5966V81.7045C538.94 81.6705 538.616 81.6477 538.389 81.6477C537.389 81.6477 536.554 82.2159 536.236 83.2273H536.145V81.7727H534.151V90.5ZM548.821 81.7727H547.099V79.6818H545.043V81.7727H543.804V83.3636H545.043V88.2159C545.031 89.858 546.224 90.6648 547.77 90.6193C548.355 90.6023 548.759 90.4886 548.98 90.4148L548.634 88.8068C548.52 88.8352 548.287 88.8864 548.031 88.8864C547.514 88.8864 547.099 88.7045 547.099 87.875V83.3636H548.821V81.7727ZM552.786 85.3864C552.786 84.125 553.57 83.3977 554.672 83.3977C555.751 83.3977 556.388 84.0852 556.388 85.2614V90.5H558.445V84.9432C558.445 82.8352 557.251 81.6591 555.439 81.6591C554.098 81.6591 553.246 82.267 552.842 83.2557H552.74V78.8636H550.729V90.5H552.786V85.3864ZM564.405 90.6705C566.439 90.6705 567.837 89.6761 568.2 88.1591L566.28 87.9432C566.001 88.6818 565.32 89.0682 564.433 89.0682C563.104 89.0682 562.223 88.1932 562.206 86.6989H568.286V86.0682C568.286 83.0057 566.445 81.6591 564.297 81.6591C561.797 81.6591 560.166 83.4943 560.166 86.1875C560.166 88.9261 561.774 90.6705 564.405 90.6705ZM562.212 85.3125C562.274 84.1989 563.098 83.2614 564.325 83.2614C565.507 83.2614 566.303 84.125 566.314 85.3125H562.212ZM576.506 90.6761C577.875 90.6761 578.693 90.0341 579.068 89.3011H579.136V90.5H581.114V84.6591C581.114 82.3523 579.233 81.6591 577.568 81.6591C575.733 81.6591 574.324 82.4773 573.869 84.0682L575.79 84.3409C575.994 83.7443 576.574 83.233 577.58 83.233C578.534 83.233 579.057 83.7216 579.057 84.5795V84.6136C579.057 85.2045 578.438 85.233 576.898 85.3977C575.205 85.5795 573.585 86.0852 573.585 88.0511C573.585 89.767 574.841 90.6761 576.506 90.6761ZM577.04 89.1648C576.182 89.1648 575.568 88.7727 575.568 88.017C575.568 87.2273 576.256 86.8977 577.176 86.767C577.716 86.6932 578.795 86.5568 579.062 86.3409V87.3693C579.062 88.3409 578.278 89.1648 577.04 89.1648ZM585.239 78.8636H583.182V90.5H585.239V78.8636ZM591.217 90.6705C593.251 90.6705 594.649 89.6761 595.013 88.1591L593.092 87.9432C592.814 88.6818 592.132 89.0682 591.246 89.0682C589.916 89.0682 589.036 88.1932 589.018 86.6989H595.098V86.0682C595.098 83.0057 593.257 81.6591 591.109 81.6591C588.609 81.6591 586.979 83.4943 586.979 86.1875C586.979 88.9261 588.587 90.6705 591.217 90.6705ZM589.024 85.3125C589.087 84.1989 589.911 83.2614 591.138 83.2614C592.32 83.2614 593.115 84.125 593.126 85.3125H589.024ZM596.838 90.5H598.895V85.3693C598.895 84.2614 599.73 83.4773 600.861 83.4773C601.207 83.4773 601.639 83.5398 601.815 83.5966V81.7045C601.628 81.6705 601.304 81.6477 601.077 81.6477C600.077 81.6477 599.241 82.2159 598.923 83.2273H598.832V81.7727H596.838V90.5ZM608.009 81.7727H606.287V79.6818H604.23V81.7727H602.991V83.3636H604.23V88.2159C604.219 89.858 605.412 90.6648 606.957 90.6193C607.543 90.6023 607.946 90.4886 608.168 90.4148L607.821 88.8068C607.707 88.8352 607.474 88.8864 607.219 88.8864C606.702 88.8864 606.287 88.7045 606.287 87.875V83.3636H608.009V81.7727Z" fill="#27272E"/>
<path fill-rule="evenodd" clip-rule="evenodd" d="M655 85C655 84.7239 655.224 84.5 655.5 84.5H667.293L664.146 81.3536C663.951 81.1583 663.951 80.8417 664.146 80.6464C664.342 80.4512 664.658 80.4512 664.854 80.6464L668.854 84.6464C669.049 84.8417 669.049 85.1583 668.854 85.3536L664.854 89.3536C664.658 89.5488 664.342 89.5488 664.146 89.3536C663.951 89.1583 663.951 88.8417 664.146 88.6464L667.293 85.5H655.5C655.224 85.5 655 85.2761 655 85Z" fill="#27272E"/>
</g>
<g filter="url(#filter2_d_1542_5430)">
<path d="M21 178C21 171.373 26.3726 166 33 166H173C179.627 166 185 171.373 185 178V325C185 331.627 179.627 337 173 337H33C26.3726 337 21 331.627 21 325V178Z" fill="white"/>
<rect x="45" y="190" width="46" height="46" rx="8" fill="#E1E8FF"/>
<mask id="mask3_1542_5430" style="mask-type:alpha" maskUnits="userSpaceOnUse" x="59" y="204" width="18" height="18">
<path fill-rule="evenodd" clip-rule="evenodd" d="M63.5 216.375H61.25V219.75H63.5V216.375ZM69.125 211.875H66.875V219.75H69.125V211.875ZM74.75 206.25L72.5 206.25V219.75H74.75V206.25ZM72.5 205.125C71.8787 205.125 71.375 205.629 71.375 206.25V219.75C71.375 220.371 71.8787 220.875 72.5 220.875H74.75C75.3713 220.875 75.875 220.371 75.875 219.75V206.25C75.875 205.629 75.3713 205.125 74.75 205.125H72.5ZM65.75 211.875C65.75 211.254 66.2537 210.75 66.875 210.75H69.125C69.7463 210.75 70.25 211.254 70.25 211.875V219.75C70.25 220.371 69.7463 220.875 69.125 220.875H66.875C66.2537 220.875 65.75 220.371 65.75 219.75V211.875ZM60.125 216.375C60.125 215.754 60.6287 215.25 61.25 215.25H63.5C64.1213 215.25 64.625 215.754 64.625 216.375V219.75C64.625 220.371 64.1213 220.875 63.5 220.875H61.25C60.6287 220.875 60.125 220.371 60.125 219.75V216.375Z" fill="black"/>
</mask>
<g mask="url(#mask3_1542_5430)">
<rect x="59" y="204" width="18" height="18" fill="#4C6FFF"/>
</g>
<path d="M45.5284 275.406H48.2472V283H49.5597V275.406H52.2827V274.273H45.5284V275.406ZM53.6729 283H54.9471V276.455H53.6729V283ZM54.3164 275.445C54.7553 275.445 55.1218 275.104 55.1218 274.686C55.1218 274.268 54.7553 273.923 54.3164 273.923C53.8732 273.923 53.511 274.268 53.511 274.686C53.511 275.104 53.8732 275.445 54.3164 275.445ZM59.7166 276.455H58.3743V274.886H57.1001V276.455H56.1413V277.477H57.1001V281.342C57.0959 282.531 58.0036 283.107 59.0092 283.085C59.4141 283.081 59.6868 283.004 59.8359 282.949L59.6058 281.896C59.5206 281.913 59.3629 281.952 59.1584 281.952C58.745 281.952 58.3743 281.815 58.3743 281.078V277.477H59.7166V276.455ZM62.5408 274.273H61.2667V283H62.5408V274.273ZM67.076 283.132C68.5036 283.132 69.5135 282.429 69.8033 281.364L68.5973 281.146C68.3672 281.764 67.8132 282.08 67.0888 282.08C65.9979 282.08 65.2649 281.372 65.2308 280.111H69.8842V279.659C69.8842 277.294 68.4695 276.369 66.9865 276.369C65.1626 276.369 63.9609 277.759 63.9609 279.77C63.9609 281.803 65.1456 283.132 67.076 283.132ZM65.2351 279.156C65.2862 278.227 65.9595 277.422 66.995 277.422C67.9837 277.422 68.6314 278.155 68.6357 279.156H65.2351Z" fill="#718096"/>
<path d="M46.2926 307H56.2642V304.798H49.929V304.699L52.4361 302.149C55.2628 299.436 56.044 298.115 56.044 296.474C56.044 294.038 54.0625 292.256 51.1364 292.256C48.2528 292.256 46.2074 294.045 46.2074 296.808H48.7145C48.7145 295.324 49.652 294.393 51.1009 294.393C52.4858 294.393 53.5156 295.239 53.5156 296.609C53.5156 297.824 52.777 298.69 51.3423 300.146L46.2926 305.097V307ZM60.3267 307.156C61.1648 307.156 61.8821 306.46 61.8892 305.594C61.8821 304.741 61.1648 304.045 60.3267 304.045C59.4602 304.045 58.7571 304.741 58.7642 305.594C58.7571 306.46 59.4602 307.156 60.3267 307.156ZM69.2472 307.199C72.358 307.199 74.6236 305.416 74.6165 302.959C74.6236 301.141 73.4872 299.834 71.4489 299.543V299.429C73.0256 299.088 74.0838 297.916 74.0767 296.283C74.0838 294.067 72.1946 292.256 69.2898 292.256C66.4631 292.256 64.2756 293.939 64.2188 296.375H66.7543C66.7969 295.153 67.9332 294.393 69.2756 294.393C70.6321 294.393 71.5341 295.217 71.527 296.439C71.5341 297.71 70.483 298.555 68.9773 298.555H67.6918V300.587H68.9773C70.8168 300.587 71.9105 301.51 71.9034 302.824C71.9105 304.109 70.7955 304.99 69.2401 304.99C67.777 304.99 66.6477 304.23 66.5838 303.044H63.9134C63.9844 305.501 66.179 307.199 69.2472 307.199ZM82.4308 307.277C85.9393 307.284 88.0344 304.514 88.0344 299.741C88.0344 294.997 85.9251 292.256 82.4308 292.256C78.9364 292.256 76.8342 294.99 76.8271 299.741C76.8271 304.507 78.9222 307.277 82.4308 307.277ZM82.4308 305.054C80.6197 305.054 79.4833 303.236 79.4904 299.741C79.4975 296.276 80.6268 294.45 82.4308 294.45C84.2418 294.45 85.3711 296.276 85.3782 299.741C85.3782 303.236 84.2489 305.054 82.4308 305.054ZM95.7706 307.277C99.2791 307.284 101.374 304.514 101.374 299.741C101.374 294.997 99.2649 292.256 95.7706 292.256C92.2763 292.256 90.174 294.99 90.1669 299.741C90.1669 304.507 92.2621 307.277 95.7706 307.277ZM95.7706 305.054C93.9595 305.054 92.8232 303.236 92.8303 299.741C92.8374 296.276 93.9666 294.45 95.7706 294.45C97.5817 294.45 98.7109 296.276 98.718 299.741C98.718 303.236 97.5888 305.054 95.7706 305.054Z" fill="#16192C"/>
<path d="M112.125 299.636C112.125 301.754 112.683 303.514 113.847 305.031H115.581C114.69 303.906 114.013 301.656 114.013 299.636C114.013 297.621 114.69 295.371 115.581 294.246H113.847C112.683 295.763 112.125 297.518 112.125 299.636ZM119.225 302.67H120.751V300.416H123.005V298.891H120.751V296.636H119.225V298.891H116.971V300.416H119.225V302.67ZM127.961 304.119C129.904 304.119 131.225 302.854 131.221 301.089C131.225 299.419 130.058 298.217 128.485 298.217C127.718 298.217 127.058 298.537 126.751 298.967H126.7L126.926 296.781H130.74V295.273H125.404L124.991 299.875L126.632 300.169C126.9 299.807 127.42 299.581 127.936 299.581C128.814 299.585 129.444 300.22 129.444 301.136C129.444 302.044 128.826 302.67 127.961 302.67C127.228 302.67 126.636 302.21 126.593 301.533H124.804C124.838 303.041 126.154 304.119 127.961 304.119ZM137.285 302.364C137.289 303.412 137.958 304.303 139.207 304.303C140.443 304.303 141.133 303.412 141.129 302.364V301.903C141.133 300.847 140.46 299.964 139.207 299.964C137.975 299.964 137.289 300.855 137.285 301.903V302.364ZM132.806 297.369C132.811 298.418 133.48 299.3 134.724 299.3C135.964 299.3 136.654 298.426 136.65 297.369V296.909C136.654 295.852 135.981 294.97 134.724 294.97C133.505 294.97 132.811 295.852 132.806 296.909V297.369ZM133.224 304H134.336L140.336 295.273H139.224L133.224 304ZM138.525 301.903C138.529 301.486 138.696 301.055 139.207 301.055C139.744 301.055 139.885 301.486 139.88 301.903V302.364C139.885 302.781 139.727 303.203 139.207 303.203C138.687 303.203 138.529 302.768 138.525 302.364V301.903ZM134.055 296.909C134.059 296.504 134.217 296.061 134.724 296.061C135.261 296.061 135.406 296.491 135.402 296.909V297.369C135.406 297.787 135.244 298.209 134.724 298.209C134.221 298.209 134.059 297.787 134.055 297.369V296.909ZM145.897 299.636C145.897 297.518 145.339 295.759 144.176 294.241H142.441C143.332 295.366 144.01 297.616 144.01 299.636C144.01 301.652 143.332 303.902 142.441 305.027H144.176C145.339 303.51 145.897 301.754 145.897 299.636Z" fill="#66CB9F"/>
</g>
<path d="M205 178C205 171.373 210.373 166 217 166H357C363.627 166 369 171.373 369 178V325C369 331.627 363.627 337 357 337H217C210.373 337 205 331.627 205 325V178Z" fill="white"/>
<rect x="229" y="190" width="46" height="46" rx="8" fill="#FFEDE3"/>
<mask id="mask4_1542_5430" style="mask-type:alpha" maskUnits="userSpaceOnUse" x="243" y="204" width="18" height="18">
<path fill-rule="evenodd" clip-rule="evenodd" d="M247.5 216.375H245.25V219.75H247.5V216.375ZM253.125 211.875H250.875V219.75H253.125V211.875ZM258.75 206.25L256.5 206.25V219.75H258.75V206.25ZM256.5 205.125C255.879 205.125 255.375 205.629 255.375 206.25V219.75C255.375 220.371 255.879 220.875 256.5 220.875H258.75C259.371 220.875 259.875 220.371 259.875 219.75V206.25C259.875 205.629 259.371 205.125 258.75 205.125H256.5ZM249.75 211.875C249.75 211.254 250.254 210.75 250.875 210.75H253.125C253.746 210.75 254.25 211.254 254.25 211.875V219.75C254.25 220.371 253.746 220.875 253.125 220.875H250.875C250.254 220.875 249.75 220.371 249.75 219.75V211.875ZM244.125 216.375C244.125 215.754 244.629 215.25 245.25 215.25H247.5C248.121 215.25 248.625 215.754 248.625 216.375V219.75C248.625 220.371 248.121 220.875 247.5 220.875H245.25C244.629 220.875 244.125 220.371 244.125 219.75V216.375Z" fill="black"/>
</mask>
<g mask="url(#mask4_1542_5430)">
<rect x="243" y="204" width="18" height="18" fill="#F7936F"/>
</g>
<path d="M229.528 275.406H232.247V283H233.56V275.406H236.283V274.273H229.528V275.406ZM237.673 283H238.947V276.455H237.673V283ZM238.316 275.445C238.755 275.445 239.122 275.104 239.122 274.686C239.122 274.268 238.755 273.923 238.316 273.923C237.873 273.923 237.511 274.268 237.511 274.686C237.511 275.104 237.873 275.445 238.316 275.445ZM243.717 276.455H242.374V274.886H241.1V276.455H240.141V277.477H241.1V281.342C241.096 282.531 242.004 283.107 243.009 283.085C243.414 283.081 243.687 283.004 243.836 282.949L243.606 281.896C243.521 281.913 243.363 281.952 243.158 281.952C242.745 281.952 242.374 281.815 242.374 281.078V277.477H243.717V276.455ZM246.541 274.273H245.267V283H246.541V274.273ZM251.076 283.132C252.504 283.132 253.513 282.429 253.803 281.364L252.597 281.146C252.367 281.764 251.813 282.08 251.089 282.08C249.998 282.08 249.265 281.372 249.231 280.111H253.884V279.659C253.884 277.294 252.469 276.369 250.987 276.369C249.163 276.369 247.961 277.759 247.961 279.77C247.961 281.803 249.146 283.132 251.076 283.132ZM249.235 279.156C249.286 278.227 249.96 277.422 250.995 277.422C251.984 277.422 252.631 278.155 252.636 279.156H249.235Z" fill="#718096"/>
<path d="M230.293 307H240.264V304.798H233.929V304.699L236.436 302.149C239.263 299.436 240.044 298.115 240.044 296.474C240.044 294.038 238.062 292.256 235.136 292.256C232.253 292.256 230.207 294.045 230.207 296.808H232.714C232.714 295.324 233.652 294.393 235.101 294.393C236.486 294.393 237.516 295.239 237.516 296.609C237.516 297.824 236.777 298.69 235.342 300.146L230.293 305.097V307ZM244.327 307.156C245.165 307.156 245.882 306.46 245.889 305.594C245.882 304.741 245.165 304.045 244.327 304.045C243.46 304.045 242.757 304.741 242.764 305.594C242.757 306.46 243.46 307.156 244.327 307.156ZM253.247 307.199C256.358 307.199 258.624 305.416 258.616 302.959C258.624 301.141 257.487 299.834 255.449 299.543V299.429C257.026 299.088 258.084 297.916 258.077 296.283C258.084 294.067 256.195 292.256 253.29 292.256C250.463 292.256 248.276 293.939 248.219 296.375H250.754C250.797 295.153 251.933 294.393 253.276 294.393C254.632 294.393 255.534 295.217 255.527 296.439C255.534 297.71 254.483 298.555 252.977 298.555H251.692V300.587H252.977C254.817 300.587 255.911 301.51 255.903 302.824C255.911 304.109 254.795 304.99 253.24 304.99C251.777 304.99 250.648 304.23 250.584 303.044H247.913C247.984 305.501 250.179 307.199 253.247 307.199ZM266.431 307.277C269.939 307.284 272.034 304.514 272.034 299.741C272.034 294.997 269.925 292.256 266.431 292.256C262.936 292.256 260.834 294.99 260.827 299.741C260.827 304.507 262.922 307.277 266.431 307.277ZM266.431 305.054C264.62 305.054 263.483 303.236 263.49 299.741C263.498 296.276 264.627 294.45 266.431 294.45C268.242 294.45 269.371 296.276 269.378 299.741C269.378 303.236 268.249 305.054 266.431 305.054ZM279.771 307.277C283.279 307.284 285.374 304.514 285.374 299.741C285.374 294.997 283.265 292.256 279.771 292.256C276.276 292.256 274.174 294.99 274.167 299.741C274.167 304.507 276.262 307.277 279.771 307.277ZM279.771 305.054C277.96 305.054 276.823 303.236 276.83 299.741C276.837 296.276 277.967 294.45 279.771 294.45C281.582 294.45 282.711 296.276 282.718 299.741C282.718 303.236 281.589 305.054 279.771 305.054Z" fill="#16192C"/>
<path d="M296.125 299.636C296.125 301.754 296.683 303.514 297.847 305.031H299.581C298.69 303.906 298.013 301.656 298.013 299.636C298.013 297.621 298.69 295.371 299.581 294.246H297.847C296.683 295.763 296.125 297.518 296.125 299.636ZM303.225 302.67H304.751V300.416H307.005V298.891H304.751V296.636H303.225V298.891H300.971V300.416H303.225V302.67ZM311.961 304.119C313.904 304.119 315.225 302.854 315.221 301.089C315.225 299.419 314.058 298.217 312.485 298.217C311.718 298.217 311.058 298.537 310.751 298.967H310.7L310.926 296.781H314.74V295.273H309.404L308.991 299.875L310.632 300.169C310.9 299.807 311.42 299.581 311.936 299.581C312.814 299.585 313.444 300.22 313.444 301.136C313.444 302.044 312.826 302.67 311.961 302.67C311.228 302.67 310.636 302.21 310.593 301.533H308.804C308.838 303.041 310.154 304.119 311.961 304.119ZM321.285 302.364C321.289 303.412 321.958 304.303 323.207 304.303C324.443 304.303 325.133 303.412 325.129 302.364V301.903C325.133 300.847 324.46 299.964 323.207 299.964C321.975 299.964 321.289 300.855 321.285 301.903V302.364ZM316.806 297.369C316.811 298.418 317.48 299.3 318.724 299.3C319.964 299.3 320.654 298.426 320.65 297.369V296.909C320.654 295.852 319.981 294.97 318.724 294.97C317.505 294.97 316.811 295.852 316.806 296.909V297.369ZM317.224 304H318.336L324.336 295.273H323.224L317.224 304ZM322.525 301.903C322.529 301.486 322.696 301.055 323.207 301.055C323.744 301.055 323.885 301.486 323.88 301.903V302.364C323.885 302.781 323.727 303.203 323.207 303.203C322.687 303.203 322.529 302.768 322.525 302.364V301.903ZM318.055 296.909C318.059 296.504 318.217 296.061 318.724 296.061C319.261 296.061 319.406 296.491 319.402 296.909V297.369C319.406 297.787 319.244 298.209 318.724 298.209C318.221 298.209 318.059 297.787 318.055 297.369V296.909ZM329.897 299.636C329.897 297.518 329.339 295.759 328.176 294.241H326.441C327.332 295.366 328.01 297.616 328.01 299.636C328.01 301.652 327.332 303.902 326.441 305.027H328.176C329.339 303.51 329.897 301.754 329.897 299.636Z" fill="#66CB9F"/>
</g>
<defs>
<filter id="filter0_dd_1542_5430" x="505" y="376" width="174" height="40" filterUnits="userSpaceOnUse" color-interpolation-filters="sRGB">
<feFlood flood-opacity="0" result="BackgroundImageFix"/>
<feColorMatrix in="SourceAlpha" type="matrix" values="0 0 0 0 0 0 0 0 0 0 0 0 0 0 0 0 0 0 127 0" result="hardAlpha"/>
<feOffset/>
<feGaussianBlur stdDeviation="0.5"/>
<feColorMatrix type="matrix" values="0 0 0 0 0.196078 0 0 0 0 0.196078 0 0 0 0 0.278431 0 0 0 0.2 0"/>
<feBlend mode="normal" in2="BackgroundImageFix" result="effect1_dropShadow_1542_5430"/>
<feColorMatrix in="SourceAlpha" type="matrix" values="0 0 0 0 0 0 0 0 0 0 0 0 0 0 0 0 0 0 127 0" result="hardAlpha"/>
<feOffset dy="1"/>
<feGaussianBlur stdDeviation="1"/>
<feColorMatrix type="matrix" values="0 0 0 0 0.196078 0 0 0 0 0.196078 0 0 0 0 0.278431 0 0 0 0.08 0"/>
<feBlend mode="normal" in2="effect1_dropShadow_1542_5430" result="effect2_dropShadow_1542_5430"/>
<feBlend mode="normal" in="SourceGraphic" in2="effect2_dropShadow_1542_5430" result="shape"/>
</filter>
<filter id="filter1_d_1542_5430" x="338" y="29" width="406" height="192" filterUnits="userSpaceOnUse" color-interpolation-filters="sRGB">
<feFlood flood-opacity="0" result="BackgroundImageFix"/>
<feColorMatrix in="SourceAlpha" type="matrix" values="0 0 0 0 0 0 0 0 0 0 0 0 0 0 0 0 0 0 127 0" result="hardAlpha"/>
<feOffset dy="40"/>
<feGaussianBlur stdDeviation="25"/>
<feColorMatrix type="matrix" values="0 0 0 0 0.564861 0 0 0 0 0.615583 0 0 0 0 0.691667 0 0 0 0.25 0"/>
<feBlend mode="normal" in2="BackgroundImageFix" result="effect1_dropShadow_1542_5430"/>
<feBlend mode="normal" in="SourceGraphic" in2="effect1_dropShadow_1542_5430" result="shape"/>
</filter>
<filter id="filter2_d_1542_5430" x="-29" y="156" width="264" height="271" filterUnits="userSpaceOnUse" color-interpolation-filters="sRGB">
<feFlood flood-opacity="0" result="BackgroundImageFix"/>
<feColorMatrix in="SourceAlpha" type="matrix" values="0 0 0 0 0 0 0 0 0 0 0 0 0 0 0 0 0 0 127 0" result="hardAlpha"/>
<feOffset dy="40"/>
<feGaussianBlur stdDeviation="25"/>
<feColorMatrix type="matrix" values="0 0 0 0 0.564861 0 0 0 0 0.615583 0 0 0 0 0.691667 0 0 0 0.25 0"/>
<feBlend mode="normal" in2="BackgroundImageFix" result="effect1_dropShadow_1542_5430"/>
<feBlend mode="normal" in="SourceGraphic" in2="effect1_dropShadow_1542_5430" result="shape"/>
</filter>
<linearGradient id="paint0_linear_1542_5430" x1="694" y1="540" x2="617.263" y2="698.955" gradientUnits="userSpaceOnUse">
<stop offset="0.0001" stop-color="#68DBF2"/>
<stop offset="1" stop-color="#509CF5"/>
</linearGradient>
<linearGradient id="paint1_linear_1542_5430" x1="131" y1="422" x2="123" y2="430" gradientUnits="userSpaceOnUse">
<stop stop-color="#FFEF5E"/>
<stop offset="1" stop-color="#F7936F"/>
</linearGradient>
<linearGradient id="paint2_linear_1542_5430" x1="108.855" y1="560.25" x2="123.9" y2="564.041" gradientUnits="userSpaceOnUse">
<stop stop-color="#FFEF5E"/>
<stop offset="1" stop-color="#F7936F"/>
</linearGradient>
<linearGradient id="paint3_linear_1542_5430" x1="173.312" y1="528.5" x2="189.063" y2="530.484" gradientUnits="userSpaceOnUse">
<stop stop-color="#FFEF5E"/>
<stop offset="1" stop-color="#F7936F"/>
</linearGradient>
<linearGradient id="paint4_linear_1542_5430" x1="237.77" y1="560.25" x2="252.814" y2="564.041" gradientUnits="userSpaceOnUse">
<stop stop-color="#FFEF5E"/>
<stop offset="1" stop-color="#F7936F"/>
</linearGradient>
<linearGradient id="paint5_linear_1542_5430" x1="302.227" y1="560.25" x2="317.271" y2="564.041" gradientUnits="userSpaceOnUse">
<stop stop-color="#FFEF5E"/>
<stop offset="1" stop-color="#F7936F"/>
</linearGradient>
<linearGradient id="paint6_linear_1542_5430" x1="366.684" y1="560.25" x2="381.728" y2="564.041" gradientUnits="userSpaceOnUse">
<stop stop-color="#FFEF5E"/>
<stop offset="1" stop-color="#F7936F"/>
</linearGradient>
<linearGradient id="paint7_linear_1542_5430" x1="431.141" y1="560.25" x2="446.185" y2="564.041" gradientUnits="userSpaceOnUse">
<stop stop-color="#FFEF5E"/>
<stop offset="1" stop-color="#F7936F"/>
</linearGradient>
<linearGradient id="paint8_linear_1542_5430" x1="460" y1="61" x2="412" y2="109" gradientUnits="userSpaceOnUse">
<stop stop-color="#D665FF"/>
<stop offset="1" stop-color="#4C6FFF"/>
</linearGradient>
<clipPath id="clip0_1542_5430">
<rect width="715" height="670" rx="16" fill="white"/>
</clipPath>
</defs>
</svg>
